<?xml version="1.0" encoding="UTF-8"?>
<!DOCTYPE svg PUBLIC "-//W3C//DTD SVG 1.1//EN" "http://www.w3.org/Graphics/SVG/1.1/DTD/svg11.dtd">
<!-- Creator: CorelDRAW -->
<svg xmlns="http://www.w3.org/2000/svg" xml:space="preserve" width="100%" height="100%" style="shape-rendering:geometricPrecision; text-rendering:geometricPrecision; image-rendering:optimizeQuality; fill-rule:evenodd; clip-rule:evenodd"
viewBox="0 0 20 13">
 <defs>
  <style type="text/css">
   <![CDATA[
    .fil1 {fill:#DD6B1A}
    .fil4 {fill:#FFCF00}
    .fil3 {fill:#DD6B1A}
    .fil0 {fill:#29355C;fill-rule:nonzero}
    .fil2 {fill:url(#id0)}
   ]]>
  </style>
  <linearGradient id="id0" gradientUnits="userSpaceOnUse" x1="0.18175" y1="5.14132" x2="19.8182" y2="5.14132">
   <stop offset="0" style="stop-color:#003D6A"/>
   <stop offset="0.360784" style="stop-color:#7BA9CD"/>
   <stop offset="1" style="stop-color:#003D6A"/>
  </linearGradient>
 </defs>
 <g id="Layer_x0020_1">
  <metadata id="CorelCorpID_0Corel-Layer"/>
  <g id="_210731592">
   <polygon id="_209481832" class="fil0" points="1.01724,12.3276 0.37418,12.3276 0.37418,11.1655 1.01724,11.1655 1.01724,11.3261 0.56022,11.3261 0.56022,11.6425 0.98858,11.6425 0.98858,11.8015 0.56022,11.8015 0.56022,12.1662 1.01724,12.1662 "/>
   <path id="_209481832" class="fil0" d="M1.55637 12.1941c0.0767,0 0.1319,-0.0228 0.16535,-0.06811 0.03343,-0.04531 0.05015,-0.11368 0.05015,-0.20539l0 -0.02931c0,-0.1088 -0.01725,-0.18694 -0.05175,-0.23469 -0.03451,-0.04749 -0.08997,-0.07136 -0.16667,-0.07136 -0.06528,0 -0.11518,0.02631 -0.14941,0.07949 -0.03425,0.05291 -0.05123,0.12889 -0.05123,0.22792 0,0.20105 0.06794,0.30145 0.20356,0.30145zm-0.05202 0.1495c-0.10615,0 -0.18949,-0.03989 -0.24947,-0.11966 -0.06024,-0.07977 -0.09023,-0.19128 -0.09023,-0.33427 0,-0.14327 0.03051,-0.25505 0.09182,-0.33591 0.06104,-0.08085 0.14517,-0.12128 0.25266,-0.12128 0.05387,0 0.10217,0.01031 0.14491,0.03066 0.04272,0.02035 0.08094,0.05399 0.11465,0.10066l0.00636 0 0.02017 -0.11531 0.15155 0 0 1.27008 -0.1834 0 0 -0.3728c0,-0.02334 0.00107,-0.04775 0.00293,-0.0738 0.00212,-0.02605 0.00398,-0.04586 0.00557,-0.05969l-0.01008 0c-0.05388,0.08736 -0.13986,0.13132 -0.25744,0.13132z"/>
   <path id="_209481832" class="fil0" d="M2.7866 12.3276l-0.02548 -0.11531 -0.0093 0c-0.02547,0.04097 -0.06156,0.07298 -0.10854,0.09632 -0.04697,0.02333 -0.10058,0.035 -0.16056,0.035 -0.1043,0 -0.18206,-0.02659 -0.23329,-0.0795 -0.05122,-0.05318 -0.07696,-0.13349 -0.07696,-0.24094l0 -0.57467 0.18419 0 0 0.54211c0,0.06729 0.01352,0.11776 0.0406,0.1514 0.0268,0.03365 0.06901,0.05047 0.12659,0.05047 0.07671,0 0.13323,-0.02334 0.16906,-0.07028 0.03609,-0.04694 0.05414,-0.12562 0.05414,-0.23578l0 -0.43792 0.18339 0 0 0.8791 -0.14384 0z"/>
   <path id="_209481832" class="fil0" d="M3.34615 12.3276l-0.18286 0 0 -0.8791 0.18286 0 0 0.8791zm-0.19374 -1.11217c0,-0.03338 0.00902,-0.05888 0.02681,-0.07706 0.01804,-0.01791 0.04352,-0.02686 0.0767,-0.02686 0.03211,0 0.05706,0.00895 0.0751,0.02686 0.01779,0.01818 0.02681,0.04368 0.02681,0.07706 0,0.03201 -0.00902,0.05697 -0.02681,0.07515 -0.01804,0.01845 -0.04299,0.02741 -0.0751,0.02741 -0.03318,0 -0.05866,-0.00896 -0.0767,-0.02741 -0.01779,-0.01818 -0.02681,-0.04314 -0.02681,-0.07515z"/>
   <path id="_209481832" class="fil0" d="M4.01586 12.3436c-0.10882,0 -0.19348,-0.04016 -0.25346,-0.1202l-0.01088 0c0.00717,0.07434 0.01088,0.11938 0.01088,0.13512l0 0.36005 -0.18286 0 0 -1.27008 0.14783 0c0.00398,0.01628 0.01274,0.05562 0.02574,0.11748l0.00929 0c0.05706,-0.08899 0.14252,-0.13349 0.25637,-0.13349 0.10749,0 0.19109,0.03988 0.25081,0.11938 0.05998,0.0795 0.08997,0.19102 0.08997,0.33455 0,0.14353 -0.03053,0.25559 -0.09157,0.33618 -0.06077,0.08058 -0.14491,0.12101 -0.25212,0.12101zm-0.04432 -0.75836c-0.07272,0 -0.12553,0.0217 -0.15898,0.06511 -0.03344,0.04342 -0.05016,0.11288 -0.05016,0.20811l0 0.02795c0,0.10717 0.01646,0.1845 0.04964,0.23253 0.03316,0.04802 0.0873,0.0719 0.16242,0.0719 0.06343,0 0.11199,-0.02659 0.14623,-0.0795 0.03423,-0.05291 0.05149,-0.12861 0.05149,-0.22656 0,-0.09849 -0.01699,-0.17311 -0.05097,-0.22384 -0.03397,-0.05047 -0.08386,-0.0757 -0.14967,-0.0757z"/>
   <path id="_209481832" class="fil0" d="M4.91938 12.3436c-0.13376,0 -0.23833,-0.03989 -0.3137,-0.11966 -0.07537,-0.07977 -0.11305,-0.18966 -0.11305,-0.32966 0,-0.14353 0.03502,-0.25641 0.10482,-0.33862 0.07007,-0.08194 0.16614,-0.12318 0.2885,-0.12318 0.11358,0 0.20328,0.03527 0.2691,0.10582 0.06582,0.07054 0.09873,0.16741 0.09873,0.29086l0 0.10093 -0.57299 0c0.00265,0.08547 0.02522,0.15086 0.06768,0.19672 0.04246,0.04585 0.10217,0.06891 0.17941,0.06891 0.05095,0 0.09819,-0.00488 0.14198,-0.01492 0.0438,-0.00977 0.09077,-0.02605 0.14119,-0.04884l0 0.15195c-0.04458,0.0217 -0.08971,0.03717 -0.13535,0.04612 -0.04565,0.00896 -0.09766,0.01357 -0.15632,0.01357zm-0.03343 -0.76949c-0.05786,0 -0.10458,0.01872 -0.1396,0.05644 -0.03478,0.03744 -0.05574,0.09225 -0.06238,0.16442l0.39014 0c-0.00107,-0.07244 -0.01805,-0.12752 -0.05123,-0.16497 -0.03316,-0.03717 -0.07881,-0.05589 -0.13693,-0.05589z"/>
   <path id="_209481832" class="fil0" d="M6.01133 12.0772c0,0.08602 -0.03053,0.15168 -0.09183,0.19753 -0.06105,0.04586 -0.14863,0.06892 -0.26275,0.06892 -0.11464,0 -0.20647,-0.01791 -0.27601,-0.05345l0 -0.16117c0.10112,0.04748 0.19507,0.07136 0.28212,0.07136 0.11252,0 0.16879,-0.03473 0.16879,-0.10419 0,-0.02225 -0.0061,-0.0407 -0.01858,-0.05563 -0.01247,-0.01465 -0.03291,-0.03011 -0.06157,-0.04612 -0.0284,-0.01574 -0.06795,-0.03392 -0.1189,-0.054 -0.09899,-0.03907 -0.16587,-0.07841 -0.20091,-0.11748 -0.03502,-0.03934 -0.05254,-0.09008 -0.05254,-0.15276 0,-0.07516 0.02972,-0.13376 0.08917,-0.17528 0.05918,-0.04151 0.13987,-0.0624 0.24204,-0.0624 0.10112,0 0.19666,0.02089 0.28689,0.06295l-0.05891 0.14054c-0.09288,-0.03907 -0.17092,-0.05887 -0.23408,-0.05887 -0.09661,0 -0.14465,0.02821 -0.14465,0.08438 0,0.0274 0.01249,0.05074 0.03769,0.07 0.02522,0.01899 0.07989,0.04531 0.16455,0.07869 0.07086,0.02794 0.12235,0.05372 0.15473,0.07705 0.03211,0.02334 0.05573,0.0502 0.07139,0.08059 0.01566,0.03066 0.02336,0.06702 0.02336,0.10934z"/>
   <path id="_209481832" class="fil0" d="M6.88486 12.3436c-0.10723,0 -0.19109,-0.03989 -0.25107,-0.11939 -0.06024,-0.0795 -0.09023,-0.19101 -0.09023,-0.33454 0,-0.14435 0.03051,-0.25641 0.09129,-0.33672 0.06104,-0.08032 0.14517,-0.12047 0.25319,-0.12047 0.1128,0 0.19905,0.0426 0.25796,0.12806l0.00956 0c-0.00902,-0.06321 -0.01328,-0.11287 -0.01328,-0.1495l0 -0.32044 0.1834 0 0 1.23699 -0.14305 0 -0.03185 -0.11531 -0.0085 0c-0.05864,0.08736 -0.14437,0.13132 -0.25742,0.13132zm0.04909 -0.15113c0.07511,0 0.12978,-0.02171 0.16401,-0.06485 0.03424,-0.04314 0.05176,-0.11314 0.05282,-0.21028l0 -0.02605c0,-0.11097 -0.01751,-0.18965 -0.05282,-0.23632 -0.03529,-0.0464 -0.09049,-0.06973 -0.1656,-0.06973 -0.06449,0 -0.11386,0.02659 -0.14862,0.07977 -0.03476,0.05318 -0.05202,0.12915 -0.05202,0.22764 0,0.09768 0.01672,0.17202 0.05042,0.22303 0.03371,0.05128 0.0844,0.07679 0.15181,0.07679z"/>
   <path id="_209481832" class="fil0" d="M7.9346 12.3436c-0.13376,0 -0.23833,-0.03989 -0.3137,-0.11966 -0.07537,-0.07977 -0.11305,-0.18966 -0.11305,-0.32966 0,-0.14353 0.03502,-0.25641 0.10482,-0.33862 0.07007,-0.08194 0.16614,-0.12318 0.2885,-0.12318 0.11358,0 0.20328,0.03527 0.2691,0.10582 0.06582,0.07054 0.09873,0.16741 0.09873,0.29086l0 0.10093 -0.57299 0c0.00265,0.08547 0.02522,0.15086 0.06768,0.19672 0.04246,0.04585 0.10217,0.06891 0.17941,0.06891 0.05095,0 0.09819,-0.00488 0.14198,-0.01492 0.0438,-0.00977 0.09077,-0.02605 0.14119,-0.04884l0 0.15195c-0.04458,0.0217 -0.08971,0.03717 -0.13535,0.04612 -0.04565,0.00896 -0.09766,0.01357 -0.15632,0.01357zm-0.03343 -0.76949c-0.05786,0 -0.10458,0.01872 -0.1396,0.05644 -0.03478,0.03744 -0.05574,0.09225 -0.06238,0.16442l0.39014 0c-0.00107,-0.07244 -0.01805,-0.12752 -0.05123,-0.16497 -0.03316,-0.03717 -0.07881,-0.05589 -0.13693,-0.05589z"/>
   <path id="_209481832" class="fil0" d="M9.82911 12.3276l-0.22798 0 -0.55892 -0.92604 -0.00611 0 0.00372 0.05155c0.00743,0.09876 0.01089,0.18884 0.01089,0.27024l0 0.60425 -0.1688 0 0 -1.1621 0.22559 0 0.55759 0.92116 0.00451 0c-0.00105,-0.01221 -0.00318,-0.05644 -0.0061,-0.13295 -0.00318,-0.07679 -0.00477,-0.13648 -0.00477,-0.17935l0 -0.60886 0.17038 0 0 1.1621z"/>
   <path id="_209481832" class="fil0" d="M10.8446 11.8864c0,0.14353 -0.03609,0.25559 -0.10801,0.33618 -0.07192,0.08058 -0.17224,0.12101 -0.30097,0.12101 -0.08041,0 -0.15126,-0.01872 -0.2131,-0.05562 -0.06158,-0.03718 -0.10908,-0.09036 -0.14225,-0.15982 -0.03318,-0.06946 -0.04963,-0.15004 -0.04963,-0.24175 0,-0.14245 0.03583,-0.25396 0.10721,-0.33373 0.07166,-0.08005 0.17251,-0.1202 0.30256,-0.1202 0.12447,0 0.22293,0.04097 0.29539,0.12291 0.07271,0.08194 0.1088,0.1921 0.1088,0.33102zm-0.6258 0c0,0.20295 0.07325,0.30443 0.22001,0.30443 0.14518,0 0.21763,-0.10148 0.21763,-0.30443 0,-0.20078 -0.07299,-0.30117 -0.21922,-0.30117 -0.0767,0 -0.13217,0.02577 -0.16667,0.07787 -0.03449,0.05182 -0.05175,0.12644 -0.05175,0.2233z"/>
   <path id="_209481832" class="fil0" d="M11.6046 12.0772c0,0.08602 -0.03053,0.15168 -0.09183,0.19753 -0.06105,0.04586 -0.14863,0.06892 -0.26275,0.06892 -0.11464,0 -0.20647,-0.01791 -0.27601,-0.05345l0 -0.16117c0.10112,0.04748 0.19507,0.07136 0.28212,0.07136 0.11252,0 0.16879,-0.03473 0.16879,-0.10419 0,-0.02225 -0.0061,-0.0407 -0.01858,-0.05563 -0.01247,-0.01465 -0.03291,-0.03011 -0.06157,-0.04612 -0.0284,-0.01574 -0.06795,-0.03392 -0.1189,-0.054 -0.09899,-0.03907 -0.16587,-0.07841 -0.20091,-0.11748 -0.03502,-0.03934 -0.05254,-0.09008 -0.05254,-0.15276 0,-0.07516 0.02972,-0.13376 0.08917,-0.17528 0.05918,-0.04151 0.13987,-0.0624 0.24204,-0.0624 0.10112,0 0.19666,0.02089 0.28689,0.06295l-0.05891 0.14054c-0.09288,-0.03907 -0.17092,-0.05887 -0.23408,-0.05887 -0.09661,0 -0.14465,0.02821 -0.14465,0.08438 0,0.0274 0.01249,0.05074 0.03769,0.07 0.02522,0.01899 0.07989,0.04531 0.16455,0.07869 0.07086,0.02794 0.12235,0.05372 0.15473,0.07705 0.03211,0.02334 0.05573,0.0502 0.07139,0.08059 0.01566,0.03066 0.02336,0.06702 0.02336,0.10934z"/>
   <path id="_209481832" class="fil0" d="M12.352 12.0772c0,0.08602 -0.03053,0.15168 -0.09183,0.19753 -0.06105,0.04586 -0.14863,0.06892 -0.26275,0.06892 -0.11464,0 -0.20647,-0.01791 -0.27601,-0.05345l0 -0.16117c0.10112,0.04748 0.19507,0.07136 0.28212,0.07136 0.11252,0 0.16879,-0.03473 0.16879,-0.10419 0,-0.02225 -0.0061,-0.0407 -0.01858,-0.05563 -0.01247,-0.01465 -0.03291,-0.03011 -0.06157,-0.04612 -0.0284,-0.01574 -0.06795,-0.03392 -0.1189,-0.054 -0.09899,-0.03907 -0.16587,-0.07841 -0.20091,-0.11748 -0.03502,-0.03934 -0.05254,-0.09008 -0.05254,-0.15276 0,-0.07516 0.02972,-0.13376 0.08917,-0.17528 0.05918,-0.04151 0.13987,-0.0624 0.24204,-0.0624 0.10112,0 0.19666,0.02089 0.28689,0.06295l-0.05891 0.14054c-0.09288,-0.03907 -0.17092,-0.05887 -0.23408,-0.05887 -0.09661,0 -0.14465,0.02821 -0.14465,0.08438 0,0.0274 0.01249,0.05074 0.03769,0.07 0.02522,0.01899 0.07989,0.04531 0.16455,0.07869 0.07086,0.02794 0.12235,0.05372 0.15473,0.07705 0.03211,0.02334 0.05573,0.0502 0.07139,0.08059 0.01566,0.03066 0.02336,0.06702 0.02336,0.10934z"/>
   <path id="_209481832" class="fil0" d="M13.0599 12.3276l-0.03663 -0.12237 -0.00637 0c-0.0414,0.05345 -0.08306,0.08981 -0.12499,0.10935 -0.04194,0.01926 -0.09608,0.02903 -0.16189,0.02903 -0.08441,0 -0.15049,-0.02334 -0.19773,-0.07 -0.0475,-0.04667 -0.07113,-0.11261 -0.07113,-0.19807 0,-0.09063 0.03292,-0.159 0.09873,-0.20513 0.06582,-0.04585 0.16614,-0.07109 0.30096,-0.07543l0.14835 -0.00461 0 -0.04694c0,-0.05616 -0.01273,-0.09822 -0.03848,-0.12617 -0.02574,-0.02767 -0.06529,-0.04151 -0.11943,-0.04151 -0.04405,0 -0.08625,0.00651 -0.12659,0.01981 -0.04033,0.01329 -0.07935,0.02876 -0.11677,0.04694l-0.05892 -0.13377c0.04671,-0.02469 0.09767,-0.04368 0.15314,-0.05671 0.05546,-0.01302 0.10775,-0.01953 0.15711,-0.01953 0.10934,0 0.19188,0.02442 0.24761,0.07326 0.05574,0.04856 0.0836,0.12535 0.0836,0.22954l0 0.59231 -0.13057 0zm-0.2723 -0.12725c0.06635,0 0.11969,-0.019 0.15977,-0.05671 0.04035,-0.03799 0.06025,-0.09117 0.06025,-0.15954l0 -0.07624 -0.11041 0.00488c-0.08599,0.00298 -0.14862,0.01791 -0.18764,0.04395 -0.03927,0.02632 -0.05865,0.06648 -0.05865,0.12047 0,0.03935 0.01115,0.06946 0.03397,0.09117 0.02282,0.02144 0.05707,0.03202 0.10271,0.03202z"/>
   <path id="_209481832" class="fil0" d="M14.5062 12.0121c0,0.10337 -0.03662,0.1845 -0.10961,0.24311 -0.07298,0.05887 -0.17384,0.08845 -0.30255,0.08845 -0.12845,0 -0.23355,-0.02062 -0.31556,-0.06132l0 -0.17962c0.05176,0.02496 0.10695,0.0445 0.16535,0.05888 0.05812,0.01411 0.11252,0.02143 0.16268,0.02143 0.07378,0 0.12792,-0.01438 0.16296,-0.04287 0.03503,-0.02876 0.05254,-0.06702 0.05254,-0.11531 0,-0.04341 -0.01618,-0.08032 -0.0483,-0.11043 -0.03211,-0.03039 -0.09846,-0.06621 -0.19905,-0.10745 -0.1035,-0.04287 -0.17675,-0.09198 -0.21922,-0.14706 -0.04246,-0.05508 -0.06368,-0.12128 -0.06368,-0.19861 0,-0.09714 0.03369,-0.17338 0.10111,-0.229 0.06741,-0.05562 0.15764,-0.08357 0.27123,-0.08357 0.10881,0 0.2171,0.02442 0.32512,0.07326l-0.05919 0.15493c-0.10112,-0.04342 -0.19135,-0.06512 -0.27044,-0.06512 -0.06024,0 -0.10589,0.01329 -0.13695,0.04015 -0.03104,0.02659 -0.0467,0.06214 -0.0467,0.10609 0,0.03012 0.00637,0.0559 0.01857,0.0776 0.01247,0.02144 0.03292,0.04152 0.06158,0.06078 0.02839,0.01899 0.07988,0.04423 0.15393,0.07543 0.08333,0.03554 0.14463,0.06865 0.18339,0.09931 0.03901,0.03066 0.0674,0.06539 0.08572,0.10419 0.01805,0.0388 0.02707,0.08438 0.02707,0.13675z"/>
   <path id="_209481832" class="fil0" d="M15.0546 12.3436c-0.13376,0 -0.23833,-0.03989 -0.3137,-0.11966 -0.07537,-0.07977 -0.11305,-0.18966 -0.11305,-0.32966 0,-0.14353 0.03502,-0.25641 0.10482,-0.33862 0.07007,-0.08194 0.16614,-0.12318 0.2885,-0.12318 0.11358,0 0.20328,0.03527 0.2691,0.10582 0.06582,0.07054 0.09873,0.16741 0.09873,0.29086l0 0.10093 -0.57299 0c0.00265,0.08547 0.02522,0.15086 0.06768,0.19672 0.04246,0.04585 0.10217,0.06891 0.17941,0.06891 0.05095,0 0.09819,-0.00488 0.14198,-0.01492 0.0438,-0.00977 0.09077,-0.02605 0.14119,-0.04884l0 0.15195c-0.04458,0.0217 -0.08971,0.03717 -0.13535,0.04612 -0.04565,0.00896 -0.09766,0.01357 -0.15632,0.01357zm-0.03343 -0.76949c-0.05786,0 -0.10458,0.01872 -0.1396,0.05644 -0.03478,0.03744 -0.05574,0.09225 -0.06238,0.16442l0.39014 0c-0.00107,-0.07244 -0.01805,-0.12752 -0.05123,-0.16497 -0.03316,-0.03717 -0.07881,-0.05589 -0.13693,-0.05589z"/>
   <path id="_209481832" class="fil0" d="M16.3254 12.3276l-0.18366 0 0 -0.54049c0,-0.06783 -0.01327,-0.11857 -0.04007,-0.15194 -0.02654,-0.03337 -0.069,-0.04992 -0.12713,-0.04992 -0.07722,0 -0.13348,0.02333 -0.16931,0.06973 -0.03583,0.04667 -0.05362,0.12481 -0.05362,0.2347l0 0.43792 -0.18286 0 0 -0.8791 0.14305 0 0.02575 0.11531 0.00928 0c0.02602,-0.04206 0.06264,-0.07434 0.11041,-0.09713 0.04778,-0.0228 0.10059,-0.03419 0.15871,-0.03419 0.20621,0 0.30945,0.10744 0.30945,0.32206l0 0.57305z"/>
   <path id="_209481832" class="fil0" d="M17.3086 12.3276l-0.18366 0 0 -0.54049c0,-0.06783 -0.01327,-0.11857 -0.04007,-0.15194 -0.02654,-0.03337 -0.069,-0.04992 -0.12713,-0.04992 -0.07669,0 -0.13296,0.02333 -0.16905,0.07027 -0.03583,0.04694 -0.05388,0.12535 -0.05388,0.23578l0 0.4363 -0.18286 0 0 -1.23699 0.18286 0 0 0.3142c0,0.0502 -0.00318,0.10392 -0.00929,0.16117l0.01142 0c0.02494,-0.04233 0.05971,-0.07516 0.10403,-0.09849 0.04432,-0.02334 0.09581,-0.035 0.155,-0.035 0.20833,0 0.31263,0.10744 0.31263,0.32206l0 0.57305z"/>
   <path id="_209481832" class="fil0" d="M18.2978 11.8864c0,0.14353 -0.03609,0.25559 -0.10801,0.33618 -0.07192,0.08058 -0.17224,0.12101 -0.30097,0.12101 -0.08041,0 -0.15126,-0.01872 -0.2131,-0.05562 -0.06158,-0.03718 -0.10908,-0.09036 -0.14225,-0.15982 -0.03318,-0.06946 -0.04963,-0.15004 -0.04963,-0.24175 0,-0.14245 0.03583,-0.25396 0.10721,-0.33373 0.07166,-0.08005 0.17251,-0.1202 0.30256,-0.1202 0.12447,0 0.22293,0.04097 0.29539,0.12291 0.07271,0.08194 0.1088,0.1921 0.1088,0.33102zm-0.6258 0c0,0.20295 0.07325,0.30443 0.22001,0.30443 0.14518,0 0.21763,-0.10148 0.21763,-0.30443 0,-0.20078 -0.07299,-0.30117 -0.21922,-0.30117 -0.0767,0 -0.13217,0.02577 -0.16667,0.07787 -0.03449,0.05182 -0.05175,0.12644 -0.05175,0.2233z"/>
   <path id="_209481832" class="fil0" d="M18.9163 11.4325c0.03662,0 0.06714,0.00271 0.09103,0.00787l-0.01805 0.17419c-0.02601,-0.00624 -0.05281,-0.0095 -0.08094,-0.0095 -0.07299,0 -0.13217,0.02442 -0.17755,0.07299 -0.04539,0.04884 -0.06795,0.11233 -0.06795,0.1902l0 0.45936 -0.18286 0 0 -0.8791 0.14305 0 0.02415 0.15492 0.0093 0c0.02866,-0.05236 0.06582,-0.09415 0.11173,-0.12481 0.04564,-0.03066 0.09527,-0.04612 0.14809,-0.04612z"/>
   <path id="_209481832" class="fil0" d="M19.6452 12.3276l-0.03663 -0.12237 -0.00637 0c-0.0414,0.05345 -0.08306,0.08981 -0.12499,0.10935 -0.04194,0.01926 -0.09608,0.02903 -0.16189,0.02903 -0.08441,0 -0.15049,-0.02334 -0.19773,-0.07 -0.0475,-0.04667 -0.07113,-0.11261 -0.07113,-0.19807 0,-0.09063 0.03292,-0.159 0.09873,-0.20513 0.06582,-0.04585 0.16614,-0.07109 0.30096,-0.07543l0.14835 -0.00461 0 -0.04694c0,-0.05616 -0.01273,-0.09822 -0.03848,-0.12617 -0.02574,-0.02767 -0.06529,-0.04151 -0.11943,-0.04151 -0.04405,0 -0.08625,0.00651 -0.12659,0.01981 -0.04033,0.01329 -0.07935,0.02876 -0.11677,0.04694l-0.05892 -0.13377c0.04671,-0.02469 0.09767,-0.04368 0.15314,-0.05671 0.05546,-0.01302 0.10775,-0.01953 0.15711,-0.01953 0.10934,0 0.19188,0.02442 0.24761,0.07326 0.05574,0.04856 0.0836,0.12535 0.0836,0.22954l0 0.59231 -0.13057 0zm-0.2723 -0.12725c0.06635,0 0.11969,-0.019 0.15977,-0.05671 0.04035,-0.03799 0.06025,-0.09117 0.06025,-0.15954l0 -0.07624 -0.11041 0.00488c-0.08599,0.00298 -0.14862,0.01791 -0.18764,0.04395 -0.03927,0.02632 -0.05865,0.06648 -0.05865,0.12047 0,0.03935 0.01115,0.06946 0.03397,0.09117 0.02282,0.02144 0.05707,0.03202 0.10271,0.03202z"/>
   <g>
    <path id="_209762464" class="fil1" d="M13.358 0.28138c2.62278,0 4.74977,2.12699 4.74977,4.74977 0,2.62278 -2.12699,4.74977 -4.74977,4.74977 -2.62278,0 -4.74976,-2.12699 -4.74976,-4.74977 0,-1.37483 0.5845,-2.6134 1.51844,-3.4808 0.02359,-0.00043 0.04721,-0.00072 0.0709,-0.00072 0.43847,0 0.85951,0.07467 1.25118,0.21187 -1.12256,0.65697 -1.8768,1.87534 -1.8768,3.26964 0,2.09063 1.69543,3.78605 3.78605,3.78605 2.09061,0 3.78604,-1.69542 3.78604,-3.78605 0,-2.07852 -1.67595,-3.76613 -3.74988,-3.78558 -0.3865,-0.32998 -0.82654,-0.59904 -1.30527,-0.79237 0.40403,-0.1118 0.82954,-0.17181 1.2691,-0.17181z"/>
    <path id="_210612352" class="fil2" d="M11.6736 2.73751c4.0183,0 7.24724,0.97349 7.24724,2.31085 0,1.33735 -1.98421,2.43987 -7.42439,2.4219 -2.67491,-0.00884 -5.1553,-1.10215 -7.05356,-2.35473 0.34064,-0.23609 0.70447,-0.46932 1.09248,-0.69487 1.89356,-1.10073 4.84765,-1.68315 6.13823,-1.68315zm-8.01333 1.83022c-1.53283,-1.1384 -2.56009,-2.2976 -2.808,-2.82582l-0.6502 0.4898c0.18723,0.54093 1.16755,1.72215 2.70268,2.90268 -1.45364,1.17784 -2.29647,2.39023 -2.72297,2.88434l0.6141 0.52199c0.45433,-0.55534 1.38924,-1.69278 2.87146,-2.85348 2.04815,1.40027 4.84448,2.65428 7.97651,2.64748 6.14534,-0.01335 8.17442,-1.55355 8.17442,-3.36825 0,-1.8147 -3.36132,-3.1737 -8.14466,-3.09342 -2.63918,0.0443 -4.54522,0.77888 -6.71731,1.91181 -0.47026,0.24528 -0.90133,0.50964 -1.29603,0.78287z"/>
    <path id="_210612040" class="fil3" d="M16.7772 3.40381c0.4667,0.14408 0.86576,0.30993 1.19399,0.49266 -0.10499,-0.4182 -0.27585,-0.84702 -0.48347,-1.21297 -0.46764,-0.17765 -1.01189,-0.34012 -1.59496,-0.46421 0.35207,0.32187 0.67374,0.75078 0.88444,1.18452zm1.12002 3.02958c-0.33419,0.18598 -0.73663,0.34061 -1.25437,0.48119 -0.2453,0.41013 -0.64007,0.85773 -1.01696,1.1482 0.64498,-0.11373 1.22098,-0.25273 1.69986,-0.42014 0.22496,-0.3477 0.44285,-0.807 0.57147,-1.20925z"/>
    <path id="_210612064" class="fil4" d="M10.1466 0.28138c1.43882,0 2.72838,0.64015 3.59942,1.65111 -0.4823,-0.03644 -0.99381,-0.0585 -1.51562,-0.06233 -0.59772,-0.39495 -1.3139,-0.62506 -2.0838,-0.62506 -2.09063,0 -3.78605,1.69543 -3.78605,3.78605 0,2.03998 1.61436,3.70336 3.63491,3.78278 0.35988,0.34197 0.77323,0.62818 1.22627,0.84469 -0.34548,0.07998 -0.70536,0.12229 -1.07513,0.12229 -2.62279,0 -4.74978,-2.12698 -4.74978,-4.74976 0,-2.62279 2.12699,-4.74977 4.74978,-4.74977zm4.24373 2.61518c0.32354,0.64182 0.50603,1.36692 0.50603,2.13459 0,0.84636 -0.22161,1.64099 -0.60982,2.32924 -0.37982,0.03432 -0.78787,0.06253 -1.22068,0.08085 0.54134,-0.65471 0.86678,-1.49438 0.86678,-2.41009 0,-0.8407 -0.27435,-1.61739 -0.73813,-2.24573 0.40799,0.02612 0.81618,0.06544 1.19582,0.11114zm-0.7706 5.37377c-0.08945,0.09587 -0.18275,0.18812 -0.27979,0.27632 -0.00539,1e-005 -0.01075,0.0001 -0.01615,0.0001 -0.4422,0 -0.86668,-0.07597 -1.26118,-0.21541 0.54448,-0.00821 1.07893,-0.0295 1.55712,-0.06101z"/>
   </g>
  </g>
 </g>
</svg>
