<?xml version="1.0" encoding="UTF-8"?>
<!DOCTYPE svg PUBLIC "-//W3C//DTD SVG 1.1//EN" "http://www.w3.org/Graphics/SVG/1.1/DTD/svg11.dtd">
<!-- Creator: CorelDRAW 2018 -->
<svg xmlns="http://www.w3.org/2000/svg" xml:space="preserve" width="297mm" height="186mm" version="1.1" style="shape-rendering:geometricPrecision; text-rendering:geometricPrecision; image-rendering:optimizeQuality; fill-rule:evenodd; clip-rule:evenodd"
viewBox="0 0 29700 18600"
 xmlns:xlink="http://www.w3.org/1999/xlink">
 <defs>
  <style type="text/css">
   <![CDATA[
    .fil1 {fill:black;fill-rule:nonzero}
    .fil3 {fill:url(#id0)}
    .fil0 {fill:url(#id1)}
    .fil2 {fill:url(#id2)}
   ]]>
  </style>
  <linearGradient id="id0" gradientUnits="userSpaceOnUse" x1="7984.4" y1="7109.27" x2="22152.81" y2="7109.27">
   <stop offset="0" style="stop-opacity:1; stop-color:#FFE61E"/>
   <stop offset="1" style="stop-opacity:1; stop-color:#FF5A3C"/>
  </linearGradient>
  <linearGradient id="id1" gradientUnits="userSpaceOnUse" xlink:href="#id0" x1="26942.58" y1="7109.24" x2="12791.18" y2="7109.24">
  </linearGradient>
  <linearGradient id="id2" gradientUnits="userSpaceOnUse" x1="-64.88" y1="7062.82" x2="28273.34" y2="7062.82">
   <stop offset="0" style="stop-opacity:1; stop-color:#00447D"/>
   <stop offset="0.45098" style="stop-opacity:1; stop-color:#92B8DE"/>
   <stop offset="1" style="stop-opacity:1; stop-color:#00447D"/>
  </linearGradient>
 </defs>
 <g id="Layer_x0020_1">
  <metadata id="CorelCorpID_0Corel-Layer"/>
  <path id="_209762464" class="fil0" d="M19858.37 25.07c3911.84,0 7084.21,3172.38 7084.21,7084.21 0,3911.84 -3172.37,7084.21 -7084.21,7084.21 -3911.84,0 -7084.19,-3172.37 -7084.19,-7084.21 0,-2050.53 871.77,-3897.84 2264.73,-5191.56 35.18,-0.64 70.41,-1.07 105.75,-1.07 653.97,0 1281.94,111.36 1866.11,316 -1674.28,979.86 -2799.22,2797.04 -2799.22,4876.62 0,3118.15 2528.7,5646.83 5646.83,5646.83 3118.12,0 5646.82,-2528.69 5646.82,-5646.83 0,-3100.07 -2499.66,-5617.12 -5592.89,-5646.13 -576.45,-492.16 -1232.77,-893.46 -1946.79,-1181.81 602.6,-166.75 1237.25,-256.26 1892.84,-256.26l0.01 0z"/>
  <path id="_209481832" class="fil1" d="M1452.32 17991.83l-959.11 0 0 -1733.26 959.11 0 0 239.54 -681.64 0 0 471.89 638.89 0 0 237.15 -638.89 0 0 543.95 681.64 0 0 240.73zm804.1 -199.12c114.4,0 196.73,-34.01 246.61,-101.59 49.87,-67.57 74.8,-169.53 74.8,-306.32l0 -43.72c0,-162.28 -25.73,-278.83 -77.19,-350.04 -51.47,-70.82 -134.18,-106.43 -248.58,-106.43 -97.36,0 -171.78,39.24 -222.84,118.56 -51.08,78.91 -76.41,192.23 -76.41,339.94 0,299.87 101.33,449.6 303.61,449.6zm-77.59 222.98c-158.31,0 -282.61,-59.5 -372.08,-178.47 -89.84,-118.99 -134.57,-285.3 -134.57,-498.57 0,-213.68 45.51,-380.4 136.95,-501.01 91.04,-120.57 216.52,-180.88 376.84,-180.88 80.34,0 152.38,15.38 216.13,45.73 63.71,30.35 120.72,80.53 171,150.13l9.49 0 30.07 -171.99 226.03 0 0 1894.31 -273.54 0 0 -556.03c0,-34.81 1.6,-71.22 4.38,-110.07 3.16,-38.84 5.93,-68.39 8.3,-89.02l-15.03 0c-80.37,130.29 -208.6,195.87 -383.98,195.87l0.01 0zm1912.46 -23.86l-38 -171.99 -13.87 0c-37.99,61.11 -91.82,108.85 -161.89,143.66 -70.05,34.81 -150.01,52.21 -239.47,52.21 -155.57,0 -271.54,-39.66 -347.95,-118.57 -76.4,-79.32 -114.79,-199.1 -114.79,-359.37l0 -857.1 274.71 0 0 808.54c0,100.37 20.17,175.64 60.56,225.81 39.96,50.19 102.92,75.28 188.81,75.28 114.41,0 198.71,-34.81 252.14,-104.83 53.83,-70.01 80.75,-187.36 80.75,-351.65l0 -653.15 273.52 0 0 1311.16 -214.53 0 0.01 0zm834.56 0l-272.74 0 0 -1311.16 272.74 0 0 1311.16zm-288.96 -1658.79c0,-49.79 13.45,-87.82 39.98,-114.93 26.92,-26.72 64.92,-40.06 114.4,-40.06 47.89,0 85.1,13.34 112.02,40.06 26.53,27.12 39.97,65.14 39.97,114.93 0,47.73 -13.44,84.96 -39.97,112.08 -26.92,27.53 -64.13,40.88 -112.02,40.88 -49.48,0 -87.48,-13.37 -114.4,-40.88 -26.53,-27.12 -39.98,-64.34 -39.98,-112.08zm1287.82 1682.65c-162.31,0 -288.58,-59.9 -378.03,-179.28l-16.24 0c10.7,110.87 16.24,178.06 16.24,201.52l0 537.01 -272.74 0 0 -1894.31 220.49 0c5.94,24.29 19.01,82.96 38.39,175.22l13.86 0c85.1,-132.72 212.57,-199.09 382.37,-199.09 160.32,0 285.01,59.48 374.08,178.05 89.45,118.58 134.19,284.91 134.19,498.98 0,214.08 -45.54,381.22 -136.57,501.42 -90.64,120.18 -216.13,180.48 -376.04,180.48zm-66.1 -1131.09c-108.46,0 -187.22,32.36 -237.11,97.12 -49.89,64.76 -74.82,168.35 -74.82,310.39l0 41.68c0,159.86 24.55,275.19 74.04,346.82 49.46,71.62 130.21,107.24 242.25,107.24 94.59,0 167.03,-39.66 218.09,-118.58 51.06,-78.91 76.8,-191.82 76.8,-337.9 0,-146.91 -25.35,-258.2 -76.02,-333.85 -50.68,-75.28 -125.08,-112.91 -223.24,-112.91l0.01 -0.01zm1413.69 1131.09c-199.49,0 -355.47,-59.5 -467.88,-178.47 -112.4,-118.99 -168.61,-282.89 -168.61,-491.7 0,-214.06 52.23,-382.43 156.34,-505.03 104.51,-122.22 247.8,-183.73 430.29,-183.73 169.41,0 303.19,52.61 401.36,157.82 98.16,105.21 147.25,249.69 147.25,433.82l0 150.54 -854.61 0c3.96,127.47 37.62,225.01 100.94,293.4 63.33,68.39 152.39,102.78 267.59,102.78 75.99,0 146.44,-7.28 211.75,-22.25 65.34,-14.57 135.38,-38.85 210.59,-72.85l0 226.63c-66.49,32.36 -133.8,55.44 -201.86,68.8 -68.1,13.36 -145.67,20.24 -233.16,20.24l0.01 0zm-49.86 -1147.69c-86.3,0 -155.97,27.92 -208.21,84.18 -51.87,55.84 -83.13,137.59 -93.03,245.22l581.88 0c-1.59,-108.04 -26.92,-190.2 -76.41,-246.05 -49.45,-55.44 -117.54,-83.36 -204.23,-83.36l0 0.01zm1678.49 750.35c0,128.3 -45.53,226.23 -136.96,294.61 -91.06,68.4 -221.69,102.8 -391.89,102.8 -170.98,0 -307.94,-26.72 -411.66,-79.72l0 -240.38c150.82,70.81 290.95,106.43 420.78,106.43 167.82,0 251.75,-51.79 251.75,-155.39 0,-33.19 -9.1,-60.7 -27.72,-82.97 -18.59,-21.86 -49.08,-44.91 -91.83,-68.79 -42.35,-23.48 -101.35,-50.59 -177.34,-80.54 -147.64,-58.28 -247.39,-116.95 -299.65,-175.22 -52.22,-58.68 -78.36,-134.36 -78.36,-227.85 0,-112.1 44.33,-199.5 133,-261.43 88.26,-61.9 208.61,-93.06 361,-93.06 150.82,0 293.31,31.16 427.89,93.89l-87.86 209.61c-138.54,-58.28 -254.93,-87.8 -349.13,-87.8 -144.1,0 -215.75,42.07 -215.75,125.85 0,40.86 18.63,75.68 56.21,104.4 37.62,28.33 119.17,67.59 245.43,117.36 105.69,41.67 182.49,80.12 230.78,114.92 47.89,34.81 83.11,74.87 106.47,120.2 23.36,45.74 34.84,99.95 34.84,163.08zm1302.86 397.34c-159.94,0 -285.02,-59.5 -374.47,-178.07 -89.85,-118.56 -134.57,-284.88 -134.57,-498.95 0,-215.3 45.5,-382.43 136.16,-502.22 91.03,-119.8 216.51,-179.68 377.62,-179.68 168.24,0 296.88,63.53 384.75,191l14.26 0c-13.45,-94.28 -19.8,-168.34 -19.8,-222.97l0 -477.93 273.54 0 0 1844.94 -213.36 0 -47.51 -171.98 -12.67 0c-87.47,130.3 -215.33,195.86 -383.94,195.86l-0.01 0zm73.21 -225.41c112.03,0 193.57,-32.38 244.62,-96.72 51.07,-64.34 77.19,-168.75 78.78,-313.63l0 -38.85c0,-165.51 -26.11,-282.86 -78.78,-352.47 -52.64,-69.2 -134.97,-104.01 -247,-104.01 -96.18,0 -169.82,39.67 -221.66,118.98 -51.85,79.32 -77.58,192.62 -77.58,339.53 0,145.68 24.93,256.56 75.19,332.64 50.28,76.48 125.87,114.53 226.42,114.53l0.01 0zm1492.46 225.41c-199.5,0 -355.47,-59.5 -467.88,-178.47 -112.42,-118.99 -168.62,-282.89 -168.62,-491.7 0,-214.06 52.23,-382.43 156.35,-505.03 104.49,-122.22 247.79,-183.73 430.28,-183.73 169.42,0 303.2,52.61 401.36,157.82 98.17,105.21 147.25,249.69 147.25,433.82l0 150.54 -854.61 0c3.96,127.47 37.62,225.01 100.95,293.4 63.32,68.39 152.37,102.78 267.58,102.78 75.99,0 146.44,-7.28 211.76,-22.25 65.32,-14.57 135.38,-38.85 210.59,-72.85l0 226.63c-66.5,32.36 -133.8,55.44 -201.88,68.8 -68.08,13.36 -145.65,20.24 -233.14,20.24l0.01 0zm-49.87 -1147.69c-86.29,0 -155.97,27.92 -208.21,84.18 -51.87,55.84 -83.13,137.59 -93.04,245.22l581.9 0c-1.61,-108.04 -26.92,-190.2 -76.41,-246.05 -49.46,-55.44 -117.54,-83.36 -204.24,-83.36l0 0.01zm2875.5 1123.83l-340.03 0 -833.62 -1381.18 -9.12 0 5.55 76.89c11.08,147.3 16.24,281.65 16.24,403.06l0 901.23 -251.76 0 0 -1733.26 336.46 0 831.63 1373.9 6.74 0c-1.57,-18.22 -4.75,-84.18 -9.1,-198.3 -4.75,-114.53 -7.12,-203.55 -7.12,-267.49l0 -908.11 254.12 0 0 1733.26 0.01 0zm1514.58 -658.06c0,214.08 -53.82,381.21 -161.09,501.42 -107.26,120.18 -256.89,180.48 -448.89,180.48 -119.94,0 -225.61,-27.92 -317.83,-82.97 -91.85,-55.44 -162.68,-134.76 -212.16,-238.36 -49.49,-103.6 -74.03,-223.78 -74.03,-360.57 0,-212.46 53.45,-378.78 159.91,-497.75 106.88,-119.39 257.29,-179.28 451.26,-179.28 185.65,0 332.5,61.11 440.57,183.32 108.44,122.21 162.27,286.51 162.27,493.7l-0.01 0.01zm-933.36 0c0,302.7 109.25,454.06 328.14,454.06 216.52,0 324.58,-151.36 324.58,-454.06 0,-299.46 -108.86,-449.18 -326.96,-449.18 -114.4,0 -197.12,38.43 -248.58,116.14 -51.45,77.29 -77.18,188.58 -77.18,333.04zm2066.89 284.58c0,128.3 -45.54,226.23 -136.97,294.61 -91.05,68.4 -221.67,102.8 -391.88,102.8 -170.99,0 -307.95,-26.72 -411.65,-79.72l0 -240.38c150.8,70.81 290.93,106.43 420.78,106.43 167.81,0 251.74,-51.79 251.74,-155.39 0,-33.19 -9.1,-60.7 -27.72,-82.97 -18.6,-21.86 -49.07,-44.91 -91.82,-68.79 -42.36,-23.48 -101.35,-50.59 -177.34,-80.54 -147.65,-58.28 -247.4,-116.95 -299.65,-175.22 -52.24,-58.68 -78.37,-134.36 -78.37,-227.85 0,-112.1 44.32,-199.5 133,-261.43 88.27,-61.9 208.62,-93.06 361,-93.06 150.81,0 293.32,31.16 427.89,93.89l-87.87 209.61c-138.52,-58.28 -254.93,-87.8 -349.12,-87.8 -144.09,0 -215.75,42.07 -215.75,125.85 0,40.86 18.64,75.68 56.22,104.4 37.61,28.33 119.15,67.59 245.42,117.36 105.7,41.67 182.49,80.12 230.77,114.92 47.89,34.81 83.13,74.87 106.48,120.2 23.37,45.74 34.84,99.95 34.84,163.08zm1114.73 0c0,128.3 -45.53,226.23 -136.96,294.61 -91.05,68.4 -221.69,102.8 -391.88,102.8 -170.99,0 -307.95,-26.72 -411.66,-79.72l0 -240.38c150.81,70.81 290.94,106.43 420.77,106.43 167.83,0 251.75,-51.79 251.75,-155.39 0,-33.19 -9.1,-60.7 -27.71,-82.97 -18.6,-21.86 -49.08,-44.91 -91.82,-68.79 -42.36,-23.48 -101.35,-50.59 -177.34,-80.54 -147.65,-58.28 -247.4,-116.95 -299.66,-175.22 -52.23,-58.68 -78.37,-134.36 -78.37,-227.85 0,-112.1 44.33,-199.5 133.01,-261.43 88.25,-61.9 208.62,-93.06 360.99,-93.06 150.82,0 293.32,31.16 427.9,93.89l-87.87 209.61c-138.52,-58.28 -254.93,-87.8 -349.13,-87.8 -144.09,0 -215.75,42.07 -215.75,125.85 0,40.86 18.64,75.68 56.23,104.4 37.6,28.33 119.15,67.59 245.42,117.36 105.69,41.67 182.48,80.12 230.77,114.92 47.89,34.81 83.13,74.87 106.48,120.2 23.35,45.74 34.83,99.95 34.83,163.08zm1055.83 373.48l-54.64 -182.52 -9.5 0c-61.74,79.72 -123.88,133.96 -186.43,163.1 -62.54,28.72 -143.29,43.29 -241.45,43.29 -125.9,0 -224.45,-34.81 -294.92,-104.4 -70.85,-69.61 -106.08,-167.97 -106.08,-295.42 0,-135.18 49.09,-237.15 147.24,-305.95 98.17,-68.39 247.8,-106.03 448.88,-112.5l221.27 -6.88 0 -70.01c0,-83.77 -18.99,-146.5 -57.39,-188.18 -38.39,-41.27 -97.38,-61.91 -178.12,-61.91 -65.71,0 -128.65,9.72 -188.82,29.55 -60.15,19.82 -118.34,42.9 -174.15,70.01l-87.88 -199.52c69.66,-36.81 145.67,-65.14 228.39,-84.57 82.73,-19.41 160.71,-29.12 234.33,-29.12 163.09,0 286.19,36.41 369.31,109.26 83.14,72.42 124.69,186.95 124.69,342.36l0 883.42 -194.74 0 0.01 -0.01zm-406.13 -189.79c98.96,0 178.51,-28.35 238.3,-84.59 60.18,-56.66 89.86,-135.97 89.86,-237.95l0 -113.72 -164.68 7.29c-128.25,4.44 -221.67,26.71 -279.86,65.55 -58.58,39.26 -87.48,99.15 -87.48,179.68 0,58.68 16.63,103.61 50.66,135.98 34.04,31.98 85.13,47.76 153.19,47.76l0.01 0zm2563.27 -280.78c0,154.17 -54.62,275.17 -163.48,362.6 -108.86,87.8 -259.28,131.92 -451.26,131.92 -191.58,0 -348.33,-30.75 -470.66,-91.45l0 -267.91c77.2,37.23 159.52,66.37 246.61,87.81 86.69,21.06 167.83,31.97 242.64,31.97 110.05,0 190.8,-21.44 243.06,-63.94 52.24,-42.9 78.36,-99.96 78.36,-171.99 0,-64.73 -24.13,-119.8 -72.04,-164.7 -47.89,-45.33 -146.85,-98.75 -296.88,-160.25 -154.37,-63.95 -263.62,-137.2 -326.97,-219.35 -63.32,-82.14 -94.96,-180.88 -94.96,-296.22 0,-144.88 50.24,-258.6 150.8,-341.56 100.53,-82.96 235.12,-124.63 404.54,-124.63 162.28,0 323.79,36.41 484.9,109.25l-88.28 231.08c-150.82,-64.75 -285.39,-97.12 -403.36,-97.12 -89.85,0 -157.93,19.83 -204.25,59.88 -46.29,39.66 -69.66,92.68 -69.66,158.23 0,44.92 9.51,83.37 27.71,115.75 18.59,31.98 49.1,61.92 91.84,90.65 42.35,28.32 119.15,65.96 229.6,112.5 124.28,53.01 215.71,102.38 273.51,148.12 58.19,45.73 100.53,97.53 127.85,155.4 26.92,57.87 40.38,125.84 40.38,203.95l0 0.01zm817.92 494.43c-199.5,0 -355.46,-59.5 -467.87,-178.47 -112.42,-118.99 -168.62,-282.89 -168.62,-491.7 0,-214.06 52.24,-382.43 156.35,-505.03 104.49,-122.22 247.79,-183.73 430.28,-183.73 169.41,0 303.2,52.61 401.36,157.82 98.17,105.21 147.25,249.69 147.25,433.82l0 150.54 -854.61 0c3.96,127.47 37.62,225.01 100.95,293.4 63.31,68.39 152.37,102.78 267.58,102.78 75.99,0 146.44,-7.28 211.76,-22.25 65.32,-14.57 135.38,-38.85 210.58,-72.85l0 226.63c-66.49,32.36 -133.79,55.44 -201.87,68.8 -68.08,13.36 -145.66,20.24 -233.14,20.24l0 0zm-49.86 -1147.69c-86.29,0 -155.98,27.92 -208.21,84.18 -51.88,55.84 -83.13,137.59 -93.04,245.22l581.9 0c-1.61,-108.04 -26.92,-190.2 -76.41,-246.05 -49.46,-55.44 -117.54,-83.36 -204.24,-83.36l0 0.01zm1945.24 1123.83l-273.93 0 0 -806.14c0,-101.17 -19.8,-176.85 -59.76,-226.61 -39.58,-49.77 -102.92,-74.46 -189.61,-74.46 -115.18,0 -199.09,34.81 -252.53,104 -53.44,69.61 -79.98,186.16 -79.98,350.06l0 653.15 -272.74 0 0 -1311.16 213.37 0 38.4 171.98 13.84 0c38.81,-62.73 93.42,-110.86 164.68,-144.86 71.25,-34.01 150.03,-50.99 236.71,-50.99 307.55,0 461.53,160.24 461.53,480.34l0 854.7 0.02 -0.01zm1466.43 0l-273.93 0 0 -806.14c0,-101.17 -19.8,-176.85 -59.76,-226.61 -39.58,-49.77 -102.92,-74.46 -189.61,-74.46 -114.39,0 -198.32,34.81 -252.15,104.81 -53.44,70.02 -80.35,186.95 -80.35,351.66l0 650.74 -272.74 0 0 -1844.95 272.74 0 0 468.62c0,74.88 -4.75,154.99 -13.86,240.39l17.03 0c37.21,-63.14 89.06,-112.1 155.16,-146.9 66.1,-34.82 142.9,-52.2 231.18,-52.2 310.73,0 466.29,160.24 466.29,480.34l0 854.7zm1475.37 -658.06c0,214.08 -53.82,381.21 -161.09,501.42 -107.27,120.18 -256.89,180.48 -448.89,180.48 -119.93,0 -225.6,-27.92 -317.83,-82.97 -91.86,-55.44 -162.69,-134.76 -212.16,-238.36 -49.49,-103.6 -74.03,-223.78 -74.03,-360.57 0,-212.46 53.45,-378.78 159.91,-497.75 106.88,-119.39 257.3,-179.28 451.26,-179.28 185.65,0 332.5,61.11 440.57,183.32 108.44,122.21 162.27,286.51 162.27,493.7l-0.01 0.01zm-933.37 0c0,302.7 109.26,454.06 328.14,454.06 216.53,0 324.59,-151.36 324.59,-454.06 0,-299.46 -108.86,-449.18 -326.96,-449.18 -114.4,0 -197.13,38.43 -248.58,116.14 -51.45,77.29 -77.19,188.58 -77.19,333.04zm1855.86 -676.97c54.63,0 100.14,4.03 135.77,11.74l-26.92 259.8c-38.79,-9.32 -78.76,-14.18 -120.72,-14.18 -108.86,0 -197.13,36.41 -264.81,108.86 -67.69,72.85 -101.35,167.54 -101.35,283.69l0 685.13 -272.74 0 0 -1311.16 213.36 0 36.02 231.06 13.87 0c42.74,-78.09 98.17,-140.42 166.65,-186.15 68.07,-45.72 142.09,-68.78 220.86,-68.78l0.01 -0.01zm1087.14 1335.03l-54.64 -182.52 -9.5 0c-61.75,79.72 -123.88,133.96 -186.42,163.1 -62.55,28.72 -143.31,43.29 -241.46,43.29 -125.89,0 -224.46,-34.81 -294.91,-104.4 -70.85,-69.61 -106.1,-167.97 -106.1,-295.42 0,-135.18 49.11,-237.15 147.26,-305.95 98.17,-68.39 247.79,-106.03 448.88,-112.5l221.26 -6.88 0 -70.01c0,-83.77 -18.98,-146.5 -57.39,-188.18 -38.38,-41.27 -97.38,-61.91 -178.13,-61.91 -65.69,0 -128.63,9.72 -188.8,29.55 -60.15,19.82 -118.35,42.9 -174.16,70.01l-87.88 -199.52c69.65,-36.81 145.67,-65.14 228.4,-84.57 82.72,-19.41 160.71,-29.12 234.33,-29.12 163.07,0 286.19,36.41 369.3,109.26 83.13,72.42 124.7,186.95 124.7,342.36l0 883.42 -194.75 0 0.01 -0.01zm-406.12 -189.79c98.95,0 178.51,-28.35 238.29,-84.59 60.18,-56.66 89.86,-135.97 89.86,-237.95l0 -113.72 -164.67 7.29c-128.26,4.44 -221.67,26.71 -279.88,65.55 -58.57,39.26 -87.48,99.15 -87.48,179.68 0,58.68 16.63,103.61 50.68,135.98 34.04,31.98 85.12,47.76 153.18,47.76l0.02 0z"/>
  <path id="_210612352" class="fil2" d="M17346.12 3688.35c5993.23,0 10809.14,1451.94 10809.14,3446.59 0,1994.64 -2959.41,3639.04 -11073.36,3612.23 -3989.59,-13.19 -7689.05,-1643.84 -10520.28,-3512.04 508.06,-352.12 1050.71,-699.98 1629.41,-1036.39 2824.22,-1641.71 7230.2,-2510.39 9155.08,-2510.39l0.01 0zm-11951.76 2729.75c-2286.19,-1697.9 -3818.34,-3426.84 -4188.09,-4214.67l-969.77 730.53c279.26,806.79 1741.38,2568.56 4031.01,4329.3 -2168.09,1756.73 -3425.15,3564.99 -4061.27,4301.95l915.92 778.54c677.63,-828.28 2072.03,-2524.76 4282.74,-4255.92 3054.78,2088.48 7225.47,3958.82 11896.84,3948.68 9165.68,-19.91 12192.02,-2317.1 12192.02,-5023.7 0,-2706.59 -5013.35,-4733.52 -12147.63,-4613.79 -3936.3,66.08 -6779.13,1161.7 -10018.77,2851.44 -701.39,365.83 -1344.33,760.13 -1933,1167.64z"/>
  <path id="_210612064" class="fil3" d="M17981.41 12050.63c572.74,195.76 1186.94,302.12 1825.94,302.12 1520.76,-1412.07 2345.46,-3275.32 2345.46,-5243.47 0,-1144.96 -211.13,-2215.93 -1174.17,-3892.13 -1614.59,-2270.8 -3764.04,-3192.08 -5910.02,-3192.08 -3911.85,0 -7084.22,3172.37 -7084.22,7084.21 0,3911.83 3172.37,7084.19 7084.22,7084.19 551.5,0 1088.26,-63.1 1603.54,-182.39 -675.7,-322.91 -1292.21,-749.79 -1828.96,-1259.84 -3013.63,-118.45 -5421.41,-2599.36 -5421.41,-5641.96 0,-3118.12 2528.68,-5646.83 5646.83,-5646.83 1148.29,0 2344.46,196.07 3826.92,1614.81 1551.79,1485.09 1819.9,2778.13 1819.9,4032.02 0,1960.34 -884.47,3595.03 -2734.03,4941.35z"/>
 </g>
</svg>
