<?xml version="1.0" encoding="UTF-8"?>
<!DOCTYPE svg PUBLIC "-//W3C//DTD SVG 1.1//EN" "http://www.w3.org/Graphics/SVG/1.1/DTD/svg11.dtd">
<!-- Creator: CorelDRAW 2018 -->
<svg xmlns="http://www.w3.org/2000/svg" xml:space="preserve" width="297mm" height="186mm" version="1.1" style="shape-rendering:geometricPrecision; text-rendering:geometricPrecision; image-rendering:optimizeQuality; fill-rule:evenodd; clip-rule:evenodd"
viewBox="0 0 29700 18600"
 xmlns:xlink="http://www.w3.org/1999/xlink">
 <defs>
  <style type="text/css">
   <![CDATA[
    .fil2 {fill:url(#id0)}
    .fil0 {fill:url(#id1)}
    .fil1 {fill:url(#id2)}
   ]]>
  </style>
  <linearGradient id="id0" gradientUnits="userSpaceOnUse" x1="7984.4" y1="7109.27" x2="22152.81" y2="7109.27">
   <stop offset="0" style="stop-opacity:1; stop-color:#FFE61E"/>
   <stop offset="1" style="stop-opacity:1; stop-color:#FF5A3C"/>
  </linearGradient>
  <linearGradient id="id1" gradientUnits="userSpaceOnUse" xlink:href="#id0" x1="26942.58" y1="7109.24" x2="12791.18" y2="7109.24">
  </linearGradient>
  <linearGradient id="id2" gradientUnits="userSpaceOnUse" x1="-64.88" y1="7062.82" x2="28273.34" y2="7062.82">
   <stop offset="0" style="stop-opacity:1; stop-color:#00447D"/>
   <stop offset="0.45098" style="stop-opacity:1; stop-color:#92B8DE"/>
   <stop offset="1" style="stop-opacity:1; stop-color:#00447D"/>
  </linearGradient>
 </defs>
 <g id="Layer_x0020_1">
  <metadata id="CorelCorpID_0Corel-Layer"/>
  <path id="_209762464" class="fil0" d="M19858.37 25.07c3911.84,0 7084.21,3172.38 7084.21,7084.21 0,3911.84 -3172.37,7084.21 -7084.21,7084.21 -3911.84,0 -7084.19,-3172.37 -7084.19,-7084.21 0,-2050.53 871.77,-3897.84 2264.73,-5191.56 35.18,-0.64 70.41,-1.07 105.75,-1.07 653.97,0 1281.94,111.36 1866.11,316 -1674.28,979.86 -2799.22,2797.04 -2799.22,4876.62 0,3118.15 2528.7,5646.83 5646.83,5646.83 3118.12,0 5646.82,-2528.69 5646.82,-5646.83 0,-3100.07 -2499.66,-5617.12 -5592.89,-5646.13 -576.45,-492.16 -1232.77,-893.46 -1946.79,-1181.81 602.6,-166.75 1237.25,-256.26 1892.84,-256.26l0.01 0z"/>
  <path id="_210612352" class="fil1" d="M17346.12 3688.35c5993.23,0 10809.14,1451.94 10809.14,3446.59 0,1994.64 -2959.41,3639.04 -11073.36,3612.23 -3989.59,-13.19 -7689.05,-1643.84 -10520.28,-3512.04 508.06,-352.12 1050.71,-699.98 1629.41,-1036.39 2824.22,-1641.71 7230.2,-2510.39 9155.08,-2510.39l0.01 0zm-11951.76 2729.75c-2286.19,-1697.9 -3818.34,-3426.84 -4188.09,-4214.67l-969.77 730.53c279.26,806.79 1741.38,2568.56 4031.01,4329.3 -2168.09,1756.73 -3425.15,3564.99 -4061.27,4301.95l915.92 778.54c677.63,-828.28 2072.03,-2524.76 4282.74,-4255.92 3054.78,2088.48 7225.47,3958.82 11896.84,3948.68 9165.68,-19.91 12192.02,-2317.1 12192.02,-5023.7 0,-2706.59 -5013.35,-4733.52 -12147.63,-4613.79 -3936.3,66.08 -6779.13,1161.7 -10018.77,2851.44 -701.39,365.83 -1344.33,760.13 -1933,1167.64z"/>
  <path id="_210612064" class="fil2" d="M17981.41 12050.63c572.74,195.76 1186.94,302.12 1825.94,302.12 1520.76,-1412.07 2345.46,-3275.32 2345.46,-5243.47 0,-1144.96 -211.13,-2215.93 -1174.17,-3892.13 -1614.59,-2270.8 -3764.04,-3192.08 -5910.02,-3192.08 -3911.85,0 -7084.22,3172.37 -7084.22,7084.21 0,3911.83 3172.37,7084.19 7084.22,7084.19 551.5,0 1088.26,-63.1 1603.54,-182.39 -675.7,-322.91 -1292.21,-749.79 -1828.96,-1259.84 -3013.63,-118.45 -5421.41,-2599.36 -5421.41,-5641.96 0,-3118.12 2528.68,-5646.83 5646.83,-5646.83 1148.29,0 2344.46,196.07 3826.92,1614.81 1551.79,1485.09 1819.9,2778.13 1819.9,4032.02 0,1960.34 -884.47,3595.03 -2734.03,4941.35z"/>
 </g>
</svg>
