<?xml version="1.0" encoding="UTF-8"?>
<!DOCTYPE svg PUBLIC "-//W3C//DTD SVG 1.1//EN" "http://www.w3.org/Graphics/SVG/1.1/DTD/svg11.dtd">
<svg xmlns="http://www.w3.org/2000/svg" xml:space="preserve" width="793.554mm" height="793.554mm" version="1.1" style="shape-rendering:geometricPrecision; text-rendering:geometricPrecision; image-rendering:optimizeQuality; fill-rule:evenodd; clip-rule:evenodd"
viewBox="0 0 79355.4 79355.4"
 xmlns:xlink="http://www.w3.org/1999/xlink"
 xmlns:xodm="http://www.corel.com/coreldraw/odm/2003">
 <defs>
  <style type="text/css">
   <![CDATA[
    .fil1 {fill:none}
    .fil0 {fill:#073870}
   ]]>
  </style>
   <clipPath id="id0">
    <path d="M39677.7 0c21913.39,0 39677.7,17764.31 39677.7,39677.7 0,21913.39 -17764.31,39677.7 -39677.7,39677.7 -21913.39,0 -39677.7,-17764.31 -39677.7,-39677.7 0,-21913.39 17764.31,-39677.7 39677.7,-39677.7z"/>
   </clipPath>
    <clipPath id="id1">
     <path d="M74532.56 58651.2c-1898.56,-3231.08 -6167.94,-6375.21 -15776.77,-9820.01 -8835.94,-3167.72 -6646.67,-4153.69 -6653.31,-8315.38 -58.26,-7.17 -110.07,-13.54 -161.86,-19.91 -142,192.84 -164.99,433.18 -207.39,671.12 -71.23,-8.76 -136.76,-10.24 -202.29,-11.73 -81.64,450 -40.3,487.96 -59.3,695.93 -94.63,21.21 -189.23,42.43 -277.39,64.46 -59.64,110.96 -112.82,222.71 -165.99,334.48 28.39,36.34 63.25,73.48 97.31,117.11 -17.62,89.85 -36.04,186.16 -54.45,282.48 -703.14,373.56 -52.27,959.64 -386.84,1168.24 -80.17,-42.72 -161.16,-78.96 -235.66,-114.42 1.7,39.65 9.07,86.55 16.45,133.47 37.24,17.73 74.49,35.45 110.96,59.64 -80.46,226.71 -340.71,365.57 -515.08,554.45 -59.17,-53.29 -59.17,-53.29 -208.08,-71.6 -79.88,115.02 -79.88,115.02 -85.12,318.11 71.91,-50.3 143.81,-100.6 214.92,-144.44 13.05,54.19 26.1,108.37 44.85,169.82 -137.24,154 -155.76,197.72 -365.33,191.67 -25.48,207.17 12.09,382.66 -235.41,417.94 -89.8,409.56 -259.37,986.76 -669.2,1166.39 13.85,47.71 27.7,95.41 41.54,143.12 -66.33,4.98 -132.66,9.97 -192.52,15.75 -40.23,113.36 -74.78,233.98 -109.33,354.59 -192.42,68.34 -275.48,209.29 -419.18,362.49 -51.79,-6.37 -103.6,-12.74 -155.39,-19.11 7.86,-117.34 22.19,-233.86 35.73,-343.93 -211.15,6.9 -335.55,109.89 -557.26,95.77 -0.67,59.07 5.11,118.93 10.09,185.26 37.25,17.73 73.7,41.92 110.15,66.12 -5.57,45.31 -11.15,90.65 -16.72,135.96 -109.15,32.57 -218.31,65.18 -327.47,97.73 -143.39,310.97 -413.02,205.53 -713.43,83.14 -13.06,-54.18 -19.63,-107.56 -26.21,-160.96 -63.14,-20.9 -119.82,-41.02 -177.29,-54.66 -8.76,71.22 -17.52,142.44 -27.07,220.12 50.99,12.84 101.2,32.16 151.39,51.48 -178.95,332.88 -190.1,423.52 -564.9,318.27 -2.5,-33.16 -4.99,-66.33 -1.81,-92.22 -111.64,-0.59 -224.09,5.3 -330.06,11.98 -10.45,31.57 -20.91,63.16 -24.89,95.52 -250.58,113.77 -1105.23,383.27 -1321.47,271.25 -0.1,-52.61 -0.21,-105.19 5.37,-150.52 -397.1,76.05 -791.34,-31.59 -1191.94,-87.43 -14.42,63.96 -28.86,127.9 -37.62,199.11 -437.84,-73.56 -690.76,-314.97 -1118.06,-367.52 -5.57,45.32 -11.94,97.12 -18.31,148.91 127.1,35.35 254.2,70.7 380.48,112.51 -312.61,244.16 -497.21,-232.02 -702.65,209.34 -182.39,-173.6 -509.28,-187.51 -553.42,-416.39 -101.19,-32.16 -202.4,-64.3 -304.38,-90 -56.47,85.05 -107.27,177.4 -158.05,269.72 -359.47,-123.06 -545.83,-264.29 -950.52,-340.34 31.38,-94.72 31.38,-94.72 118.62,-162.86 161.05,26.38 322.11,52.76 482.36,85.61 -5.78,-59.85 -5.09,-118.91 -5.18,-171.51 -188.88,-174.38 -294.05,-174.17 -559.48,-206.81 -26.59,55.88 -53.18,111.75 -80.56,174.11 -103.59,-12.74 -200.7,-24.68 -297.82,-36.63 5.58,-45.32 11.15,-90.64 16.72,-135.96 33.98,-8.96 67.93,-17.92 108.38,-26.11 3.88,-84.97 14.22,-169.12 23.78,-246.79 -68.03,-34.66 -136.86,-62.85 -199.21,-90.24 -22.79,-81.65 -45.63,-163.33 -62.79,-237.74 62.26,-25.19 130.18,-43.15 198.1,-61.06 16.83,-83.37 32.86,-160.27 48.89,-237.16 -198.53,-149.28 -413.32,47.75 -668.22,36.11 -113.96,-355.74 -117.58,-540.2 -505.32,-647.05 -30.62,-338.92 -6.05,-592.21 -456.42,-457.01 -32.67,-161.75 -18.35,-278.29 -173.83,-349.98 91.33,-147.39 118.12,-245.38 299.66,-245.74 18.53,-43.73 37.06,-87.46 62.06,-130.39 -203.2,-57.84 -203.2,-57.84 -370.93,-190.21 -22.4,128.69 -45.6,263.86 -68.79,399.01 -457.82,-16.31 -378.27,-77.09 -334.2,-435.42 -339.85,-15.49 -423,72.85 -572.08,376.55 -63.92,-14.44 -127.87,-28.88 -191.83,-43.32 -17.24,-126.97 -34.49,-253.97 -51.72,-380.96 -128,-81.46 -128,-81.46 -376.4,-92.29 -0.11,-52.59 -0.22,-105.16 5.36,-150.5 -87.45,-37.03 -169.23,-66.81 -251,-96.59 -15.55,-87.34 -31.89,-168.21 -48.24,-249.09 -63.14,-20.92 -126.29,-41.83 -190.24,-56.25 -2.5,-33.17 -4.99,-66.33 -1.01,-98.71 -31.57,-10.45 -63.15,-20.9 -89.03,-24.08 -61.99,-244.23 92.98,-435.48 -16.82,-718.44 -94.71,-31.35 -183.74,-55.45 -272.79,-79.58 10.34,-84.12 20.69,-168.29 30.25,-245.98 65.53,1.49 137.55,3.77 208.75,12.53 -4.97,-66.34 -10.76,-126.19 -16.54,-186.05 -119.03,-47.49 -238.05,-94.99 -351.4,-135.25 -60,-473.96 -411.03,-826.02 74.8,-1035.73 -81.89,-82.35 -163.77,-164.71 -246.43,-240.61 2.28,-72.01 11.04,-143.22 19.8,-214.44 123.69,-43.93 247.39,-87.87 370.28,-125.32 7.17,-58.28 13.54,-110.08 19.91,-161.86 -68.02,-34.65 -130.35,-62.03 -192.73,-89.43 28.97,-75.3 57.95,-150.59 86.14,-219.42 -36.47,-24.21 -73.71,-41.93 -104.49,-58.86 6.37,-51.79 18.4,-96.31 30.46,-140.85 41.24,-14.63 81.67,-22.81 128.59,-30.18 11.46,67.14 22.92,134.26 40.05,208.66 99.61,45.11 204.89,97.49 310.18,149.88 -0.22,-105.19 -0.44,-210.36 -0.63,-315.55 87.35,-15.54 173.89,-24.61 260.45,-33.68 47.19,-276.79 21.95,-339.05 -77.25,-600.98 41.24,-14.65 81.67,-22.82 122.1,-30.99 6.37,-51.77 12.74,-103.59 18.31,-148.9 -107.66,-32.96 -216.13,-59.45 -324.59,-85.93 -63.68,-283.84 -231.42,-416.21 -446.28,-646.37 9.65,-25.09 19.31,-50.2 28.97,-75.29 356.88,37.32 435.2,362.4 677.65,635.38 92.91,-60.87 92.91,-60.87 104.06,-151.49 -36.45,-24.2 -73.69,-41.94 -110.95,-59.67 13.02,-372.99 55.84,-400.6 113.96,-873.2 -378.1,-131.93 -832.49,-391.54 -932.85,-804.77 -23.39,29.97 -46.79,59.96 -64.51,97.21 -46.11,0.9 -92.24,1.81 -139.17,9.18 -40.51,-44.43 -81.03,-88.84 -122.4,-126.79 12.04,-44.51 24.09,-89.03 41.83,-126.3 -31.59,-10.45 -63.15,-20.91 -89.06,-24.1 74.19,-122.29 74.19,-122.29 92.5,-271.2 -100.39,-38.64 -195.12,-70 -289.84,-101.37 -134.84,134.57 -133.61,338.45 -163.22,525.39 -52.56,0.11 -105.15,0.22 -152.05,7.6 -36.2,-293.61 -50.47,-551.67 -182.86,-811.13 -86.55,9.08 -173.09,18.15 -253.97,34.49 -17.73,37.25 -36.25,80.97 -48.3,125.5 81.78,29.78 163.56,59.55 251,96.59 -68.88,346.42 -250.26,271.52 -613.5,286.02 56.58,-229.45 469.42,-477.44 13.27,-642.43 -19.21,102.78 -38.42,205.59 -51.16,309.16 -365.84,-71.28 -968.19,124.09 -1042.74,-338.56 -135.96,-16.7 -265.44,-32.62 -394.93,-48.55 -35.76,-83.26 -65.04,-165.73 -94.34,-248.19 -109.26,-20.01 -219.31,-33.54 -322.91,-46.28 -89.36,-181.87 -85.48,-266.82 -72.96,-475.59 -31.56,-10.45 -63.14,-20.91 -89.03,-24.09 -13.16,-106.77 -26.31,-213.53 -32.99,-319.52 -58.28,-7.17 -110.07,-13.54 -161.85,-19.9 -21.71,69.62 -43.42,139.25 -58.65,209.66 -42.05,21.11 -692.02,-946.04 -867.03,-1072.7 57.64,-308.39 -302.08,-963.81 -438.56,-1243.48 -121.4,-28.07 -242.84,-56.15 -358.57,-76.96 -78.79,-160.84 -127.71,-350.88 -295.35,-430.63 6.27,-104.4 12.53,-208.77 25.27,-312.37 -38.86,-4.77 -77.67,-9.55 -110.07,-13.53 -9.67,25.11 -20.11,56.69 -24.1,89.05 -105.16,0.2 -210.34,0.43 -309.04,1.42 -201.55,-445.39 -121.62,-935.02 -51.33,-1399.57 -445.44,-225.64 -437.27,-185.21 -198.67,-629.06 -119.82,-41.03 -240.44,-75.57 -354.59,-109.33 30.48,-140.82 30.48,-140.82 153.06,-336.05 909.34,-19.62 1471.58,-49.06 2159.58,502.17 92.13,-54.4 92.13,-54.4 295.28,-423.74 71.21,8.76 141.62,24 218.53,40.03 3.29,26.7 13.04,54.18 22.01,88.15 51.79,6.37 103.58,12.73 161.86,19.9 7.16,-58.26 13.54,-110.07 19.9,-161.86 -37.25,-17.73 -68.03,-34.66 -99.61,-45.1 -26.1,-108.37 -26.1,-108.37 54.56,-229.88 33.16,-2.5 65.54,1.48 97.91,5.46 4.19,72.8 8.38,145.62 11.78,224.9 554.96,-94.77 1019.66,-62.56 1651.95,-72.87 -4.97,-66.34 -10.76,-126.19 -16.54,-186.05 -911.4,-605 89.82,-1211.34 176.6,-1917.02 158.56,-6.8 316.34,-7.11 480.58,-6.62 248.26,-521.79 2675.63,2170.52 2596.88,-916.18 11.25,-38.05 28.18,-68.82 45.12,-99.59 244.21,-61.99 1402.95,829.72 1425.76,911.39 92.22,-1.8 190.93,-2.81 288.83,2.67 24.89,-95.52 49.79,-191.04 74.68,-286.56 -613.17,-358.01 -1262.8,-740.21 -1886.43,-1066.64 1097.31,108.67 2098.82,461.85 3043.18,959.17 73.13,316.15 919.47,1444.33 1168.95,1556.73 -117.18,471.93 210.45,853.95 145.96,1378.36 53.48,46.01 106.97,92.01 160.47,138.02 -181.42,726.91 424.13,2536.38 -485.7,2720.25 -192.19,2175.87 -3829.12,5304.9 -3440.75,7831.29 -40.43,8.17 -80.86,16.34 -122.1,30.99 -46.48,217.72 37.88,333.26 145.87,523.97 92.13,-54.38 92.13,-54.38 715.12,-43.49 6.37,-51.79 12.74,-103.58 18.32,-148.91 -72.92,-48.39 -139.36,-95.99 -205.8,-143.6 17.73,-37.25 34.66,-68.03 51.59,-98.8 252.49,31.05 314.16,117.49 503.81,285.4 -50.8,92.33 -95.11,185.46 -139.42,278.59 298.13,194.39 595.72,125.85 892.05,228.01 -46.51,217.72 -95.8,244.52 -288.13,365.46 -73.69,-41.93 -148.2,-77.37 -222.71,-112.84 -19.32,50.21 -32.15,101.2 -45,152.21 -65.53,-1.5 -125.38,4.27 -185.26,10.07 -81.98,-134.95 -135.68,-286.14 -294.34,-331.93 18.25,225.68 36.49,451.38 53.94,683.54 64.76,7.96 135.96,16.72 207.17,25.49 20.11,-56.68 40.26,-113.35 66.03,-162.76 45.32,5.57 89.81,17.61 140.83,30.46 20.32,48.51 40.64,97.01 67.45,146.31 25.79,-49.41 51.59,-98.81 77.37,-148.22 59.86,-5.78 126.2,-10.77 191.73,-9.28 155.9,282.05 2646.58,69.17 2935.43,71.84 26,55.77 51.2,118.01 76.4,180.27 600.61,139.58 1075.34,447.69 1714.37,381.69 -239.39,-351.45 -709.6,-429 -1114.29,-505.06 -4.18,-72.81 -8.37,-145.61 -6.9,-211.14 593.93,-379.07 4051.51,-1274.21 4380.22,-1255.49 9.75,27.49 25.21,62.24 40.64,97.01 209.73,-315.95 542.25,-721.95 963.06,-670.2 130.6,167.22 163.07,223.79 358.2,293.78 8.76,-71.21 23.99,-141.64 38.43,-205.58 34.75,-15.43 75.2,-23.6 115.63,-31.78 6.17,-156.97 11.53,-307.47 16.89,-457.96 338.52,-240.98 835.64,-61.53 1216.01,-1.61 -3.98,32.37 -1.48,65.53 1.02,98.7 103.58,12.74 213.65,26.27 323.7,39.81 -18.04,-120.51 58.53,-262.26 75.16,-450.79 -236.47,-107.95 -632.29,-202.63 -769.46,-423.23 -309.16,-51.17 -454.89,-95.38 -724.61,-253.41 -354.03,580.79 -605.99,812.69 -1304.2,825.41 -143.72,153.19 -800.73,525.87 -975.52,504.39 -10.45,31.55 -20.91,63.13 -24.89,95.49 -327.48,97.74 -327.48,97.74 -495.82,77.04 -372.32,729.7 -2394.36,231.3 -3136.65,442.32 -81.2,-141.43 -103.11,-176.97 -260.19,-235.72 5.57,-45.33 11.14,-90.63 16.72,-135.96 194.91,-35.19 415.83,-14.58 580.28,91.07 29.08,-22.7 58.16,-45.42 87.24,-68.12 -9.97,-132.67 -90.83,-116.35 -90.35,-280.57 340.51,-43.56 382.12,-275.03 413.86,-586.6 149.61,-40.76 265.94,-131.58 485.95,-157.11 25.19,62.26 56.88,125.3 87.77,194.81 40.43,-8.17 80.88,-16.34 126.99,-17.23 132.03,-325.52 363.78,-553.32 541.14,-873.25 33.16,-2.49 66.33,-4.99 98.69,-1.01 533.5,-650.74 1007.19,-868.5 1749.28,-1184.71 12.64,-156.18 24.47,-305.89 36.31,-455.57 -466.34,-162.51 -868.42,-152.82 -1349.01,-146.19 -68.93,-80.77 -68.93,-80.77 -119.63,-363.05 -301.21,-115.89 -331.02,-461.32 -676.86,-641.85 -2.5,-33.16 -4.98,-66.32 -1,-98.7 -281.1,-172.58 -937.27,-180.98 -1010,-551.38 26.69,-3.29 59.85,-5.79 92.23,-1.81 -7.38,-46.9 -14.76,-93.83 -16.45,-133.46 -36.45,-24.2 -73.7,-41.94 -110.96,-59.65 -91.48,-431.86 -246.06,-457.44 -396.38,-784.81 33.16,-2.49 66.32,-4.99 98.7,-1 -27.7,-95.42 -55.39,-190.83 -76.62,-285.46 -31.58,-10.46 -63.15,-20.9 -89.05,-24.09 39.12,-264.64 92.2,-428.99 -23.17,-666.62 -193.43,-30.36 -309.85,7.89 -492.82,-54.04 10.35,-84.16 20.7,-168.33 30.26,-246.01 98.69,-1.01 122.79,-90.06 239.22,-128.31 5.46,-97.9 10.93,-195.82 15.61,-287.24 -83.37,-16.83 -166.74,-33.65 -250.89,-44 7.96,-64.75 15.92,-129.49 23.89,-194.23 26.68,-3.29 59.85,-5.78 92.22,-1.8 3.98,-32.36 14.43,-63.95 24.09,-89.06 164.93,-58.56 313.26,71.39 461.45,148.77 4.78,-38.86 8.76,-71.22 12.74,-103.58 -382.59,-362.51 -230.74,-902.46 -319.14,-1412.8 -69.62,-21.71 -140.05,-36.94 -203.99,-51.38 -73.11,-153.58 -73.11,-153.58 -47.53,-308.16 68.72,-24.41 143.11,-41.54 217.52,-58.68 8.75,-71.22 17.51,-142.44 25.47,-207.17 -85.06,-56.47 -163.64,-112.14 -242.25,-167.81 47.56,-493.62 -0.76,-795.3 -41.36,-1266.91 -100.39,-38.64 -201.6,-70.79 -302.78,-102.95 -42.65,-294.43 -85.31,-588.83 -121.49,-882.45 -435.78,-250.75 -400.53,-1232.22 -881.12,-1652.79 36.78,-619.81 392.92,-950.61 193.57,-1520.61 -68.84,-28.18 -131.19,-55.56 -194.32,-76.47 -48.09,230.67 -90.5,468.62 -132.91,706.57 -32.37,-3.98 -65.54,-1.49 -98.7,1 -3.08,78.5 -6.16,156.98 -2.77,236.26 -157.77,0.3 -426.01,-223.27 -453.81,-371.26 -93.14,-44.32 -179.79,-87.85 -266.45,-131.36 -2.5,-33.16 -4.99,-66.33 -1.01,-98.7 -156.37,-117.82 -183.97,-160.64 -225.62,-356.35 -31.58,-10.45 -63.14,-20.91 -95.52,-24.89 -14.63,-41.24 -22.82,-81.67 -30.99,-122.1 -1106.31,-526.56 -2663.49,-196.95 -4023.49,-415.96 -24.2,36.46 -48.4,72.91 -66.91,116.66 -359.84,93.74 -560.83,338.48 -923.85,458.14 -17.13,-74.4 -28.62,-141.53 -40.07,-208.67 -71.21,-8.75 -142.42,-17.51 -213.65,-26.27 -33.85,61.56 -67.71,123.12 -95.89,191.94 -263.72,7 -263.72,7 -408.45,61.5 -6.37,51.78 -13.53,110.05 -14.24,169.13 -218.41,12.56 -179.68,-35.25 -336.85,-146.6 -60.45,117.44 -120.9,234.87 -181.34,352.31 -98.71,1 -198.2,8.49 -291.24,16.75 11.94,-97.1 23.09,-187.75 40.71,-277.58 -90.63,-11.14 -174.79,-21.49 -258.96,-31.84 -25.68,101.98 -51.37,203.99 -70.58,306.77 -446.71,-54.94 -776.1,-102.02 -994.26,442.91 -533.55,223.56 -1070.25,-328.78 -1443.62,-124.96 55.98,79.18 55.98,79.18 43.35,235.34 -237.05,3.74 -237.05,3.74 -340.75,-61.61 -11.46,-67.14 -22.92,-134.25 -35.17,-194.91 -51,-12.85 -101.99,-25.69 -147.32,-31.27 -12.25,-60.65 -24.51,-121.3 -30.29,-181.15 -754.71,-329.42 -730.83,-1752.6 -429.6,-2438.48 -358.68,-129.54 -560.18,-147.75 -785.28,-241.16 33.86,-61.55 67.71,-123.11 100.78,-178.19 -104.8,-216.62 -144.65,-320.1 -128.94,-554.77 -769.94,94.92 -288.99,-370.86 -804.14,-782.37 29.46,-239.54 94.78,-343.24 131.3,-693.64 -127.09,-35.34 -254.98,-64.22 -376.4,-92.29 -2.49,-33.16 -4.99,-66.32 -1.01,-98.7 -494,-187.92 -1004.09,-1783.7 -939.63,-2192.31 -126.19,10.77 -253.18,28.01 -373.69,46.04 -57.21,-283.05 -44.36,-334.04 91.87,-586.75 -49.4,-25.79 -93.13,-44.32 -136.86,-62.84 -10.46,31.58 -20.91,63.17 -24.89,95.53 -745.53,-190.28 -695.41,-1025.33 -585.7,-1596.75 -67.23,-41.12 -67.23,-41.12 -292.13,-29.35 -38.63,100.41 -77.27,200.8 -109.42,302.01 -25.91,-3.18 -51.81,-6.37 -77.71,-9.55 -35.16,-194.93 -12.29,-487.84 -205.02,-577.27 -29.17,-388.19 -207.25,-532.73 -115.93,-927.77 -269.73,-158.04 -292.86,-397.47 -626.32,-464.77 102.69,-266.89 475.65,-5.64 615.78,-358.02 -68.03,-34.66 -129.58,-68.51 -191.94,-95.9 -2.49,-33.16 -4.99,-66.34 -1.8,-92.24 -210.25,53.02 -210.25,53.02 -542.01,25.37 188.8,-252.82 121.43,-773.72 117.62,-1063.34 -86.66,-43.53 -166.83,-86.26 -247.82,-122.51 116.11,-196.02 284.13,-333.09 499.98,-431.39 8.74,-71.22 16.7,-135.97 24.66,-200.71 -85.87,-49.99 -172.52,-93.5 -259.18,-137.03 126.86,-497.01 599.74,-708.31 778.57,-1093.77 -31.57,-10.46 -63.15,-20.92 -95.51,-24.9 -13.36,-211.95 -13.36,-211.95 76.43,-621.51 359.96,-41.17 731.6,-284.64 1094.67,-404.29 87.03,-173.31 1382.78,-769.74 1360.87,-805.29 -458.87,-63.01 -458.87,-63.01 -999.3,-50.6 -3.98,32.36 -8.76,71.2 -13.54,110.05 32.36,3.98 63.94,14.44 95.51,24.89 -3.19,25.91 -6.37,51.8 -10.35,84.17 -152.08,7.58 -304.97,21.63 -451.38,36.49 -59.17,-53.27 -59.17,-53.27 -31.99,-220.81 175.7,67.6 339.63,-89.66 397.59,-240.27 488.31,-176.53 1284.06,-768.74 1764.85,-670.17 3.98,-32.37 14.44,-63.96 24.88,-95.52 223.1,-104.01 264.71,-335.5 396.95,-555.82 46.13,-0.9 98.72,-1.01 150.51,5.36 10.45,-31.57 20.91,-63.13 37.83,-93.92 60.67,-12.25 121.32,-24.5 181.15,-30.29 -3.16,25.9 -6.34,51.79 -10.33,84.16 -113.05,22.82 -138.59,38.93 -170.4,156.49 128.69,22.4 257.38,44.8 385.26,73.66 29.88,-29.18 -36.18,-293.61 -12.19,-435.24 731.56,89.96 437.4,-563.98 1409.61,-293.26 13.54,-110.07 27.07,-220.12 39.81,-323.71 -119.71,11.56 -119.71,11.56 -798.79,-131.09 -24.43,-68.72 -48.84,-137.45 -67.56,-198.9 -22.61,23.5 -45.21,47.01 -68.61,76.99 -323.02,-98.87 -646.03,-197.74 -963.37,-289.34 84.5,-153.66 271.15,-145.89 435.74,-176.43 -3.98,32.37 -1.49,65.54 1,98.7 32.37,3.98 71.23,8.76 110.07,13.53 288.49,-582.28 962.97,-722.79 1569.72,-740.16 40.64,-122.75 107.36,-114.05 233.56,-135.59 28.18,-68.83 62.03,-130.39 95.89,-191.96 1231.84,-183.67 2895.69,-780.83 4115.53,-492.79 -264.08,651 -2439.33,810.66 -3095.5,802.27 -41.92,73.71 -77.37,148.21 -113.61,229.2 190.24,56.25 380.48,112.51 576.42,176.03 98.96,-270.43 1474.91,-396.95 1784.99,-299.67 12.25,60.65 23.71,127.78 35.17,194.92 93.03,-8.28 186.05,-16.55 278.27,-18.35 62.75,-189.45 307.86,-205.32 458.03,-357.71 56.68,20.11 113.35,40.23 169.23,66.82 -3.18,25.87 -0.69,59.08 1.8,92.23 79.29,-3.41 158.57,-6.79 237.05,-3.72 17.73,-37.25 35.46,-74.5 59.66,-110.94 543.02,73.34 1457.57,225.24 1934.54,34.17 929.17,501.3 2192.17,159.66 2884,-151.38 -182.27,-120.99 -241.34,-121.68 -456.58,-135.01 6.37,-51.79 18.42,-96.32 30.47,-140.84 67.14,-11.46 139.94,-15.65 212.73,-19.84 28.98,-75.31 57.96,-150.6 86.15,-219.43 7874.61,393.21 8646.34,6864.18 10472.4,7669.32 -84.12,416.83 365.54,1142.48 465.99,1608.3 32.36,3.98 63.93,14.43 95.51,24.9 1135.04,2418.33 711.51,6921.52 1546.12,9765.55 28.3,-16.24 63.06,-31.67 97.01,-40.64 28.77,-180.48 63.22,-353.7 97.67,-526.9 58.26,7.16 123.01,15.12 187.75,23.08 14.96,199.01 29.9,398 51.35,597.8 304.38,90.01 319.33,289.01 683.59,373.23 118.87,-432.26 118.87,-432.26 156.19,-789.13 -103.68,-65.34 -207.38,-130.66 -311.86,-189.52 83.81,-574.6 83.81,-574.6 135.39,-673.41 114.94,27.29 236.35,55.37 356.98,89.91 271.14,-761.86 1754.25,-3149.13 95.39,-3287.42 49.62,130.97 49.62,130.97 27.44,364.84 37.25,17.72 74.5,35.45 110.95,59.65 -127.32,661.25 -850.19,874.67 -1134.49,1529.76 -164.18,-375.07 -141.35,-1095.18 -88.8,-1522.47 99.51,-7.48 199,-14.96 304.98,-21.66 28.87,-127.88 64.22,-254.98 98.77,-375.59 -174.6,83.68 -342.7,168.16 -510.83,252.63 -556,-2244.45 -145.38,-4983.71 -348.6,-7265.5 -206.91,-2323.38 -7497.05,-7581.02 -9706.35,-8554.34 -2770.65,-1220.62 -6223.52,-686.8 -8991.28,-1703.81 -5442.89,-1999.98 -17609.7,8010.11 -17756.93,13621.93 -88.42,3370.71 2329.51,9479.27 1820.4,12612.11 -6471.17,-105.34 5687.42,11467.62 7290.88,9972.57 356.47,-332.37 224.64,-530.76 534.71,-446.85 1478.22,3530.06 5070.2,9208.7 4309.96,13049.71 -10684.85,5055.92 -17020.74,4076.26 -21190.77,13621.32 7260.02,9327.51 18592.66,15328.71 31328.09,15328.71 15040.61,0 28125.93,-8369.16 34854.86,-20704.2zm-37489.26 14600l-1392.49 25.44 957.9 -13777.45 434.59 13752.01zm37.15 -16128.6c-231.68,-146.79 -519.66,-530.53 -764.4,-731.49 -990.18,463.13 -4803.77,-2621.53 -5130.84,-3542.39 -647.41,-79.62 -1232.55,-3016.98 -1160.1,-3606.13 980.42,4603.38 2731.38,4528.37 6278.06,6772.33 21.81,-17.03 43.62,-34.07 71.9,-50.3 -191.56,-312.74 -191.56,-312.74 -160.88,-348.4 112.44,-5.88 224.88,-11.77 343.82,-16.85 -9.55,77.67 -19.11,155.36 -22.98,240.33 746.79,19.54 1307.61,-318.95 2003.11,-470.02 3.98,-32.37 14.44,-63.93 24.08,-89.04 1211.12,-442.54 4091.64,-1527.54 4212.41,-3043.98 99.51,-7.48 199,-14.96 298.51,-22.44 178.37,-221.22 155.81,-572.32 276.6,-859.77 129.49,15.93 258.96,31.85 387.65,54.25 7.06,-110.87 13.32,-215.24 19.58,-319.63 67.94,-17.93 135.86,-35.87 203.78,-53.8 23.3,-82.58 52.29,-157.87 81.27,-233.16 104.37,6.24 208.76,12.51 312.34,25.25 26.58,-55.87 53.17,-111.75 85.44,-160.36 -42.14,-31.46 -84.27,-62.95 -126.39,-94.42 253.24,-402.6 461,-488.77 881.4,-647.37 22.5,-76.11 51.47,-151.4 80.45,-226.7 148.01,-27.81 179.58,-17.36 215.44,118.5 60.65,-12.25 120.51,-18.05 180.38,-23.82 -10.77,-126.18 -21.54,-252.38 -32.32,-378.58 119.73,-11.56 245.93,-22.33 371.32,-26.62 29.77,-81.79 58.74,-157.08 87.72,-232.39 -59.06,-0.68 -111.65,-0.57 -164.23,-0.46 -15.44,-34.78 -24.42,-68.75 -34.19,-96.23 368.03,-53.31 1614.96,-787.2 1712.45,-992.09 1133.92,-189.13 1811.18,-2596.64 2850.45,-3191.75 605.81,1477.13 -1746.52,4352.23 -2513.61,5369.1 -32.33,-3.98 -65.52,-1.48 -98.7,1 -179.15,227.71 -358.31,455.41 -538.27,689.58 -220.12,-27.07 -653.53,504.55 -746.93,729.64 -32.37,-3.98 -65.54,-1.48 -92.22,1.81 -9.66,25.09 -20.12,56.67 -24.1,89.05 -32.38,-3.98 -65.54,-1.5 -98.71,1 -1590.98,1447.33 -3658.81,3138.35 -5723.87,3791.33 -9.66,25.09 -20.11,56.67 -24.09,89.03 -1047.56,502.09 -2393.18,1236.98 -3521.33,1485.99zm9796.42 -7996.05c1.49,-65.53 2.18,-124.61 2.87,-183.66 240.72,-193.85 240.72,-193.85 297.39,-173.73 -218.59,334.57 -218.59,334.57 -300.26,357.39zm-5378.62 -1206.95c-12.25,-60.65 -25.31,-114.82 -38.36,-169 76.89,16.03 152.98,38.52 235.55,61.82 -3.18,25.9 -7.16,58.26 -11.14,90.64 -66.34,4.97 -126.2,10.76 -186.05,16.54zm2985.03 202.82c52.27,-157.88 127.17,-339.26 334.33,-313.78 21.13,42.02 -75.89,82.67 -120.69,340.05 -71.2,-8.76 -142.42,-17.51 -213.64,-26.27zm-3663.65 -509.71c-85.05,-56.47 -170.12,-112.93 -248.72,-168.6 200.7,24.68 345.53,22.77 508.39,141.37 -86.56,9.08 -173.12,18.15 -259.67,27.23zm-880.2 -377.7c20.91,-63.15 41.03,-119.84 61.14,-176.51 109.27,20.01 218.52,40.02 334.27,60.83 -17.72,37.24 -35.45,74.51 -47.5,119.03 -118.13,-1.39 -236.25,-2.77 -347.91,-3.35zm-465.64 -221.58c-9.87,-80.06 -20.53,-153.68 -31.21,-227.28 223.43,53.76 223.43,53.76 291.55,141.01 -88.95,28.5 -177.88,56.99 -260.34,86.27zm7051.26 538.56c109.4,-182.26 201.75,-492.94 442.35,-497.63 -3.98,32.39 -8.76,71.21 -13.53,110.06 -235.35,43.35 -101.46,237.26 -105.13,427.39 -110.06,-13.53 -220.12,-27.07 -323.69,-39.82zm629.04 -198.66c-4.99,-66.32 -4.3,-125.38 -3.61,-184.46 51.81,6.37 102.8,19.22 160.27,32.86 0.1,52.59 -0.59,111.65 5.2,171.51 -58.27,-7.17 -110.06,-13.54 -161.86,-19.91zm713.5 -457.72c20.89,-63.16 41.03,-119.82 61.14,-176.49 46.11,-0.91 91.42,4.67 143.21,11.04 -13.64,57.46 -28.07,121.4 -42.51,185.36 -58.26,-7.17 -110.05,-13.54 -161.84,-19.91zm-10026.23 -1785.08c3.08,-78.48 6.16,-156.97 9.22,-235.46 107.68,32.96 221.04,73.18 334.38,113.41 -17.73,37.25 -36.25,80.99 -48.3,125.51 -97.93,-5.47 -196.61,-4.46 -295.3,-3.46zm4022.33 -162.53c-238.56,-357.95 -635.39,-551.32 -1036.88,-653.29 35.03,-284.85 134.31,-397.5 107.8,-716.22 67.91,-17.94 135.83,-35.87 209.44,-46.54 -12.26,-60.66 -18.05,-120.51 -23.83,-180.37 -154.57,-25.58 -302.69,-50.37 -450.79,-75.16 12.74,-103.58 24.68,-200.69 43.1,-297.01 1320.96,-469.18 4826.79,1187.45 5841.1,-576.34 68.85,28.17 137.64,56.35 212.95,85.33 14.65,41.23 28.5,88.95 42.34,136.65 141.64,23.99 282.47,54.45 423.32,84.91 -110.3,683.09 -304.63,606.6 -504.28,1107.81 -763.59,14.94 -3490.47,945.68 -4509.94,707.2 -22.38,128.68 -22.38,128.68 27.24,259.65 -123.51,149.11 -189.04,147.62 -381.57,163.38zm-5112.79 -3421.87c-12.27,-60.67 -25.35,-114.85 -31.91,-168.23 108.38,-26.1 222.41,-44.94 336.45,-63.78 -3.18,25.91 -0.69,59.07 1.81,92.23 45.31,5.57 96.3,18.42 147.31,31.26 -17.72,37.25 -36.25,80.98 -54.78,124.71 -136.75,-10.24 -267.83,-13.22 -398.88,-16.19zm14294.78 1757.98c26.65,-430.49 26.65,-430.49 85.62,-482.39 51.1,65.44 51.1,65.44 24.44,495.92 -38.84,-4.77 -77.69,-9.55 -110.06,-13.53zm-13535.12 -2591.22c-22.01,-88.14 -22.01,-88.14 69.21,-188.65 63.94,14.44 127.89,28.87 198.31,44.1 -20.12,56.69 -40.23,113.36 -53.87,170.83 -71.23,-8.76 -142.44,-17.52 -213.65,-26.28zm655.33 -412.31c-2.6,-85.74 0.47,-164.24 3.55,-242.72 57.49,13.62 121.42,28.07 185.36,42.51 -8.75,71.21 -17.51,142.44 -27.07,220.11 -58.26,-7.16 -110.05,-13.53 -161.84,-19.9zm-502.46 -830.72c1.49,-65.53 2.18,-124.59 2.88,-183.66 45.31,5.57 97.1,11.94 148.89,18.31 -5.58,45.33 -11.95,97.15 -18.32,148.91 -46.11,0.9 -93.01,8.27 -133.45,16.44zm9388.98 714.34c108.15,-131.27 113.04,-117.53 285.35,-129.22 -6.38,51.81 -12.75,103.6 -19.91,161.86 -90.63,-11.14 -181.27,-22.29 -265.44,-32.64zm-11555.39 -1802.26c-96.73,-228.79 -501.21,-199.65 -707.59,-231.6 3.98,-32.37 7.96,-64.75 11.94,-97.11 343.93,35.72 512.15,3.84 699.11,33.4 36.76,181.96 36.76,181.96 -3.46,295.31zm-2471.75 -849.46c-36.47,-24.19 -66.45,-47.59 -96.43,-71 12.04,-44.53 30.57,-88.25 48.29,-125.5 90.64,11.14 90.64,11.14 209.07,170.3 -53.38,6.58 -106.76,13.16 -160.93,26.2zm2229.22 -277.89c-16.24,-28.29 -26.8,-49.3 -37.35,-70.31 148.68,-86.88 274.19,-38.57 448.19,-10.6 1.69,39.63 9.07,86.55 16.44,133.47 -142.43,-17.53 -284.85,-35.05 -427.28,-52.56zm16898.71 1532.73c30.85,-357.66 30.85,-357.66 66.51,-327 -26.49,108.48 -46.5,217.74 -66.51,327zm-20263.53 -2708.88c5.47,-97.92 10.94,-195.82 16.41,-293.74 64.75,7.97 129.49,15.93 200.7,24.68 -7.96,64.74 -15.93,129.49 -24.68,200.7 -67.93,17.94 -130.17,43.14 -192.43,68.36zm18070.85 1834.61c-130.59,-167.23 -193.05,-247.2 -233.9,-449.38 -162.38,-74.89 -847.58,-1596.08 -1101.14,-1627.27 -191.88,-470.49 -1512.65,-2289.06 -1683.46,-2342.93 -51.52,-275.8 -51.52,-275.8 -21.95,-462.79 79.27,-3.35 158.56,-6.75 243.51,-2.86 -3.18,25.87 -0.69,59.06 1.8,92.23 402.3,95.48 590.95,164.68 639.49,571.54 527.1,202.84 741.28,492.05 846.79,1076.8 119.84,41.02 239.66,82.05 365.16,130.34 -51.47,151.4 -51.47,151.4 -25.26,312.34 62.35,27.39 124.7,54.78 192.73,89.43 -3.95,32.38 -8.75,71.21 -13.53,110.06 -198.1,61.07 -198.1,61.07 -176.99,103.11 76.9,16.03 152.96,38.51 235.56,61.82 7.01,263.75 26.74,423.9 128.35,666.41 25.9,3.19 57.48,13.64 89.05,24.1 25.2,62.24 56.88,125.29 87.76,194.81 70.43,15.23 140.05,36.94 209.67,58.64 29.82,345.41 181.53,554.67 232.37,889.51 32.35,3.97 63.92,14.43 95.5,24.89 36.4,398.79 36.4,398.79 1.74,466.83 -39.63,1.7 -79.29,3.4 -113.25,12.37zm-10236.91 -3171.4c13.54,-110.06 27.07,-220.11 39.81,-323.71 143.91,-48.02 143.91,-48.02 181.75,-141.95 272.82,79.56 230.1,159.75 184.51,423.58 -139.14,9.18 -272.62,25.62 -406.07,42.08zm-8821.88 -3989.75c-54.29,-39.52 -108.57,-79.06 -162.85,-118.61 1.49,-65.54 9.45,-130.28 17.41,-195.02 45.3,5.57 97.1,11.94 148.89,18.31 43.16,130.18 43.16,130.18 -3.45,295.32zm-381.11 -428.04c22.49,-76.1 45.01,-152.2 67.51,-228.3 71.21,8.76 148.1,24.79 225.01,40.82 -20.12,56.67 -40.24,113.36 -60.35,170.02 -79.29,3.4 -158.56,6.79 -232.17,17.46zm-587.7 -565.18c-79.9,-312.14 -159.29,-361.33 -150.36,-754.55 330.66,-123.65 622.43,-679.24 964.18,-518.92 -2.03,604.38 -279.42,668.85 -787.47,685.23 82.99,233.65 95.35,346.89 77.24,600.98 -38.84,-4.78 -71.22,-8.76 -103.59,-12.74zm3116.46 -438.24c-27.6,-42.82 -48.71,-84.86 -69.84,-126.88 72.02,2.28 144.03,4.56 215.23,13.32 -3.18,25.89 -7.17,58.26 -11.15,90.65 -46.9,7.36 -93.81,14.74 -134.24,22.91zm-1424.29 -2205.91c91.91,-159.57 221.08,-301.41 442.1,-228.22 -124.88,267.23 -166.22,229.3 -442.1,228.22zm525.35 -263.99c-9.76,-27.49 -19.52,-54.98 -22.8,-81.68 1363.69,-1416.13 3752.58,-1549.52 5543.84,-1151.79 9.06,86.55 18.14,173.09 33.68,260.45 312.44,77.85 312.44,77.85 427.5,157.72 -7.96,64.75 -15.92,129.48 -24.68,200.7 -249.69,159.88 -1038.66,-318.33 -1288.07,-427.86 -1616.38,-444.03 -3158.05,877.48 -4669.47,1042.46zm7283.36 895.71c-68.83,-28.19 -137.64,-56.36 -207.27,-78.07 7.4,-327.69 7.4,-327.69 53.34,-433.76 237.15,48.87 242.13,115.22 382.49,309.91 -79.97,62.47 -154.26,132.18 -228.56,201.92zm-4732.78 -687.19c11.14,-90.61 22.29,-181.28 33.44,-271.91 271.92,33.46 280.79,14.82 250.53,260.83 -98.7,1 -190.93,2.8 -283.97,11.08zm-2878.44 -1122.92c3.87,-84.96 6.95,-163.44 10.03,-241.94 45.32,5.58 97.11,11.95 148.91,18.32 -7.96,64.75 -16.72,135.96 -25.48,207.17 -46.13,0.9 -93.03,8.28 -133.46,16.45zm12385.69 -941.3c73.4,-115.84 146.79,-231.68 220.17,-347.53 -11.13,90.63 -22.28,181.28 -27.73,279.18 -67.94,17.93 -130.18,43.14 -192.44,68.35zm2447.7 136.71c-313.57,-229.15 -549.55,-501.33 -803.35,-788.85 85.02,-370.72 209.99,-585.38 -204.46,-688.92 -23.4,29.99 -47.59,66.44 -65.32,103.69 -84.15,-10.35 -168.32,-20.72 -252.49,-31.06 6.37,-51.78 12.74,-103.57 18.31,-148.9 162.45,-91.73 278.87,-130 320.59,-308.88 -309.05,1.43 -825.35,351.98 -946.14,639.41 -278.98,77.43 -432.56,150.54 -719.11,75.87 143.88,-475.2 1796.98,-1198.56 2242.58,-1294.91 -2.49,-33.17 1.49,-65.55 5.47,-97.91 -83.38,-16.83 -166.73,-33.65 -250.91,-44 -12.04,44.52 -24.89,95.53 -31.26,147.32 -887.12,212.91 -2717.71,776.43 -3186.95,1599.37 -32.37,-3.98 -64.74,-7.96 -97.11,-11.94 16.62,-188.54 81.94,-292.22 229.34,-1437.36 135.86,-35.86 271.7,-71.73 407.56,-107.59 205.68,-432.34 967.3,-463.98 1179.97,-1044.43 262.14,5.96 523.48,18.38 791.33,31.6 10.44,-31.58 20.9,-63.15 37.8,-93.93 100.42,38.63 200.04,83.75 299.63,128.87 7.54,-192.04 22.77,-232.78 179.75,-339.36 9.77,27.49 25.2,62.24 40.65,96.99 193.42,30.36 386.05,67.2 578.69,104.03 39.53,-54.28 79.06,-108.56 117.8,-156.37 -31.57,-10.46 -63.14,-20.91 -95.51,-24.89 -2.49,-33.18 -4.99,-66.34 -1.01,-98.72 -31.57,-10.44 -63.14,-20.9 -95.52,-24.88 11.15,-90.64 22.3,-181.28 33.44,-271.91 105.98,-6.69 218.42,-12.57 330.08,-12 25.2,62.26 50.41,124.51 82.08,187.55 -34.75,15.43 -69.51,30.88 -98.59,53.58 161.16,78.99 160.36,85.48 191.45,260.15 214.55,72.4 292.25,81.95 391.31,-135.89 330.18,40.61 904.68,71.83 1102.35,-199.61 -136.84,-62.83 -136.84,-62.83 -815.82,-152.88 -7.38,-46.93 -15.55,-87.37 -17.25,-127.01 436.75,-77.73 929.57,-23.69 1366.62,56.35 -3.98,32.36 -1.49,65.53 1.01,98.69 25.9,3.19 57.48,13.64 89.04,24.1 -3.18,25.91 -0.69,59.07 1.8,92.24 125.51,48.29 251.01,96.57 375.71,151.36 -6.26,104.37 -6.05,209.55 -5.84,314.73 109.37,72.59 109.37,72.59 692.82,137.77 -1.69,-39.63 2.29,-72.01 6.27,-104.37 -154.58,-25.58 -302.69,-50.37 -450.79,-75.16 14.32,-116.54 28.66,-233.07 49.46,-348.8 54.18,-13.06 108.37,-26.11 161.75,-32.68 -17.93,-67.94 -35.86,-135.87 -53.79,-203.78 263.73,-7.01 263.73,-7.01 907.95,98.52 6.37,-51.81 19.22,-102.8 31.26,-147.32 32.38,3.98 64.74,7.95 103.58,12.74 64.69,382.56 384.89,290.49 313.02,767.98 -76.89,-16.02 -154.57,-25.58 -225.79,-34.34 -136.23,252.71 -166,334.48 59.31,533.08 -18.2,201.48 -36.41,402.98 -48.15,605.25 -68.82,-28.17 -137.66,-56.36 -207.27,-78.07 -2.49,-33.16 -4.99,-66.33 -1.01,-98.69 -342.02,109.09 -656.64,155.83 -1023.08,196.2 -40.32,60.77 -74.98,128.8 -109.63,196.82 -103.58,-12.74 -207.97,-19 -312.36,-25.26 0.9,46.12 1.01,98.7 1.11,151.29 377.62,296.15 636.8,433.2 704.92,520.44 -367.11,99.44 -367.11,99.44 -668.09,88.68 -37.85,93.96 -69.22,188.68 -100.57,283.41 -103.6,-12.74 -207.18,-25.48 -310.77,-38.22 -23.61,-75.2 -47.22,-150.4 -70.83,-225.58 -156.18,-12.64 -156.18,-12.64 -325.09,78.31 -181.7,-232.65 -210.19,-321.59 -510.4,-338.79 -406.77,902.9 73.57,1592.89 -1341.55,1556.87zm-2931.7 -636.55c4.78,-38.86 8.76,-71.22 12.74,-103.6 108.36,-26.1 223.2,-51.41 337.23,-70.24 -8.75,71.21 -17.51,142.42 -26.27,213.65 -110.05,-13.54 -220.11,-27.07 -323.7,-39.81zm861.05 105.92c-36.44,-24.22 -72.9,-48.44 -103.69,-65.38 39.34,-174.26 83.32,-195.04 242.2,-259.37 12.74,-103.57 31.95,-206.38 51.17,-309.16 151.19,-53.7 302.38,-107.4 453.56,-161.11 -74.88,181.38 -176.24,471.23 -378.43,512.09 -59.54,163.55 -122.58,195.23 -264.81,282.93zm4124.39 290.31c21.07,-385.16 21.07,-385.16 101.63,-559.27 76.89,16.03 153.79,32.06 236.36,55.35 -37.52,251.69 -44.37,467.73 -337.99,503.92zm3968.99 271.26c7.17,-58.31 13.53,-110.1 19.9,-161.88 -38.85,-4.78 -77.69,-9.56 -110.06,-13.54 35.24,-179.68 76.95,-358.58 118.67,-537.46 53.37,-6.58 113.25,-12.36 172.31,-11.67 -36.73,245.22 -66.99,491.23 -97.24,737.25 -38.84,-4.77 -71.21,-8.75 -103.58,-12.7zm-4057.6 -886.79c-81.09,-88.84 -155.7,-176.87 -231.1,-258.43 215.24,13.32 215.24,13.32 331.08,86.71 -0.7,59.07 5.09,118.92 10.07,185.26 -38.84,-4.78 -77.68,-9.56 -110.05,-13.54zm-1929.48 -342.44c5.45,-97.91 10.92,-195.82 16.39,-293.73 207.17,25.48 212.95,85.34 169.65,277.17 -66.33,4.99 -126.19,10.78 -186.04,16.56zm-229 -1237.42c140.41,-179.87 469.8,-132.79 673.67,-134.02 -17.72,37.26 -36.24,80.99 -48.29,125.5 -210.35,0.41 -420.7,0.84 -625.38,8.52zm-21578.58 -4894.78c-3.49,-131.88 -6.99,-263.74 -4.8,-388.35 92.23,-1.8 159.25,-65.85 194.9,-35.17 -20.81,115.73 -35.14,232.27 -49.47,348.79 -48.5,20.34 -97.79,47.14 -140.63,74.73zm-2635.36 -6626.66c-15.64,-139.94 -15.64,-139.94 97.98,-369.13 32.37,3.98 71.23,8.76 110.06,13.54 -97.6,152.29 -97.6,152.29 -118.3,320.63 -33.96,8.97 -61.45,18.72 -89.74,34.96zm1252.4 -831.79c-28.39,-36.34 -56.77,-72.69 -78.69,-108.24 160.75,-131.4 160.75,-131.4 283.64,-168.85 36.45,24.2 72.92,48.39 115.05,79.86 -0.69,59.06 5.09,118.93 10.08,185.26 -111.66,-0.59 -224.1,5.3 -330.08,11.97zm5737.37 -4328.57c-112.55,-46.7 -225.11,-93.4 -331.19,-139.31 -7.38,-46.9 -15.55,-87.34 -23.73,-127.79 182.09,15.82 370.63,32.44 558.38,55.53 5.78,59.85 11.56,119.73 17.34,179.58 -73.6,10.66 -147.21,21.33 -220.8,31.99zm680.84 -192.29c36.24,-80.97 71.71,-155.48 113.63,-229.19 254.08,18.11 508.16,36.21 762.23,54.32 -158.23,164.55 -649.37,150.15 -875.86,174.87zm720.65 -516c-7.37,-46.91 -8.27,-93.02 -9.96,-132.65 140.74,-22.14 281.47,-44.26 422.19,-66.39 -3.98,32.37 -1.48,65.53 0.21,105.17 -189.13,95.05 -189.13,95.05 -412.44,93.87zm8483.87 4.97c4.78,-38.84 9.55,-77.68 13.53,-110.05 144.81,-1.9 289.63,-3.82 440.14,1.54 -6.37,51.8 -12.74,103.59 -19.91,161.85 -148.91,-18.31 -291.34,-35.83 -433.76,-53.34zm-683.12 -537.48c209.35,-99.13 209.35,-99.13 432.66,-97.94 -17.73,37.25 -36.25,80.98 -48.3,125.5 -119.72,11.53 -240.23,29.6 -354.28,48.43 -9.75,-27.48 -19.52,-54.97 -30.08,-75.99zm1376.71 241.6c-59.98,-46.8 -119.95,-93.6 -174.23,-133.14 10.46,-31.57 20.12,-56.67 29.78,-81.79 122.98,15.13 122.98,15.13 301.19,115.92 -56.56,32.48 -106.65,65.74 -156.74,99.01zm-4608.39 -790.19c-12.26,-60.65 -25.32,-114.82 -38.36,-169.01 90.64,11.15 181.27,22.29 271.9,33.44 -3.98,32.37 -8.76,71.21 -13.54,110.06 -72.79,4.18 -146.39,14.85 -220,25.51zm922.97 -1306.03c-27.59,-42.84 -49.54,-78.39 -71.41,-113.95 342.21,-3.91 980.75,94.33 1109.41,-310.46 244.42,43.21 316.41,45.49 449.54,245.88 -75.11,76.19 -144.54,159.67 -213.95,243.14 -424,-25.86 -848.79,-45.24 -1273.59,-64.61zm1566.74 192.68c-9.87,-80.09 -20.55,-153.69 -24.74,-226.5 152.89,-14.07 152.89,-14.07 265.45,32.65 -28.18,68.82 -56.37,137.64 -78.87,213.75 -58.27,-7.17 -110.05,-13.54 -161.84,-19.9z"/>
    </clipPath>
    <clipPath id="id2">
     <path d="M39677.7 0c21913.39,0 39677.7,17764.31 39677.7,39677.7 0,21913.39 -17764.31,39677.7 -39677.7,39677.7 -21913.39,0 -39677.7,-17764.31 -39677.7,-39677.7 0,-21913.39 17764.31,-39677.7 39677.7,-39677.7z"/>
    </clipPath>
 </defs>
 <g id="Camada_x0020_1">
  <metadata id="CorelCorpID_0Corel-Layer"/>
  <g>
  </g>
  <g style="clip-path:url(#id0)">
   <g>
    <path class="fil0" d="M76946.38 74654.76c-3272.52,-10657.7 5513.06,-17325.73 -18190.59,-25823.57 -8835.94,-3167.72 -6646.67,-4153.69 -6653.31,-8315.38 -58.26,-7.17 -110.07,-13.54 -161.86,-19.91 -142,192.84 -164.99,433.18 -207.39,671.12 -71.23,-8.76 -136.76,-10.24 -202.29,-11.73 -81.64,450 -40.3,487.96 -59.3,695.93 -94.63,21.21 -189.23,42.43 -277.39,64.46 -59.64,110.96 -112.82,222.71 -165.99,334.48 28.39,36.34 63.25,73.48 97.31,117.11 -17.62,89.85 -36.04,186.16 -54.45,282.48 -703.14,373.56 -52.27,959.64 -386.84,1168.24 -80.17,-42.72 -161.16,-78.96 -235.66,-114.42 1.7,39.65 9.07,86.55 16.45,133.47 37.24,17.73 74.49,35.45 110.96,59.64 -80.46,226.71 -340.71,365.57 -515.08,554.45 -59.17,-53.29 -59.17,-53.29 -208.08,-71.6 -79.88,115.02 -79.88,115.02 -85.12,318.11 71.91,-50.3 143.81,-100.6 214.92,-144.44 13.05,54.19 26.1,108.37 44.85,169.82 -137.24,154 -155.76,197.72 -365.33,191.67 -25.48,207.17 12.09,382.66 -235.41,417.94 -89.8,409.56 -259.37,986.76 -669.2,1166.39 13.85,47.71 27.7,95.41 41.54,143.12 -66.33,4.98 -132.66,9.97 -192.52,15.75 -40.23,113.36 -74.78,233.98 -109.33,354.59 -192.42,68.34 -275.48,209.29 -419.18,362.49 -51.79,-6.37 -103.6,-12.74 -155.39,-19.11 7.86,-117.34 22.19,-233.86 35.73,-343.93 -211.15,6.9 -335.55,109.89 -557.26,95.77 -0.67,59.07 5.11,118.93 10.09,185.26 37.25,17.73 73.7,41.92 110.15,66.12 -5.57,45.31 -11.15,90.65 -16.72,135.96 -109.15,32.57 -218.31,65.18 -327.47,97.73 -143.39,310.97 -413.02,205.53 -713.43,83.14 -13.06,-54.18 -19.63,-107.56 -26.21,-160.96 -63.14,-20.9 -119.82,-41.02 -177.29,-54.66 -8.76,71.22 -17.52,142.44 -27.07,220.12 50.99,12.84 101.2,32.16 151.39,51.48 -178.95,332.88 -190.1,423.52 -564.9,318.27 -2.5,-33.16 -4.99,-66.33 -1.81,-92.22 -111.64,-0.59 -224.09,5.3 -330.06,11.98 -10.45,31.57 -20.91,63.16 -24.89,95.52 -250.58,113.77 -1105.23,383.27 -1321.47,271.25 -0.1,-52.61 -0.21,-105.19 5.37,-150.52 -397.1,76.05 -791.34,-31.59 -1191.94,-87.43 -14.42,63.96 -28.86,127.9 -37.62,199.11 -437.84,-73.56 -690.76,-314.97 -1118.06,-367.52 -5.57,45.32 -11.94,97.12 -18.31,148.91 127.1,35.35 254.2,70.7 380.48,112.51 -312.61,244.16 -497.21,-232.02 -702.65,209.34 -182.39,-173.6 -509.28,-187.51 -553.42,-416.39 -101.19,-32.16 -202.4,-64.3 -304.38,-90 -56.47,85.05 -107.27,177.4 -158.05,269.72 -359.47,-123.06 -545.83,-264.29 -950.52,-340.34 31.38,-94.72 31.38,-94.72 118.62,-162.86 161.05,26.38 322.11,52.76 482.36,85.61 -5.78,-59.85 -5.09,-118.91 -5.18,-171.51 -188.88,-174.38 -294.05,-174.17 -559.48,-206.81 -26.59,55.88 -53.18,111.75 -80.56,174.11 -103.59,-12.74 -200.7,-24.68 -297.82,-36.63 5.58,-45.32 11.15,-90.64 16.72,-135.96 33.98,-8.96 67.93,-17.92 108.38,-26.11 3.88,-84.97 14.22,-169.12 23.78,-246.79 -68.03,-34.66 -136.86,-62.85 -199.21,-90.24 -22.79,-81.65 -45.63,-163.33 -62.79,-237.74 62.26,-25.19 130.18,-43.15 198.1,-61.06 16.83,-83.37 32.86,-160.27 48.89,-237.16 -198.53,-149.28 -413.32,47.75 -668.22,36.11 -113.96,-355.74 -117.58,-540.2 -505.32,-647.05 -30.62,-338.92 -6.05,-592.21 -456.42,-457.01 -32.67,-161.75 -18.35,-278.29 -173.83,-349.98 91.33,-147.39 118.12,-245.38 299.66,-245.74 18.53,-43.73 37.06,-87.46 62.06,-130.39 -203.2,-57.84 -203.2,-57.84 -370.93,-190.21 -22.4,128.69 -45.6,263.86 -68.79,399.01 -457.82,-16.31 -378.27,-77.09 -334.2,-435.42 -339.85,-15.49 -423,72.85 -572.08,376.55 -63.92,-14.44 -127.87,-28.88 -191.83,-43.32 -17.24,-126.97 -34.49,-253.97 -51.72,-380.96 -128,-81.46 -128,-81.46 -376.4,-92.29 -0.11,-52.59 -0.22,-105.16 5.36,-150.5 -87.45,-37.03 -169.23,-66.81 -251,-96.59 -15.55,-87.34 -31.89,-168.21 -48.24,-249.09 -63.14,-20.92 -126.29,-41.83 -190.24,-56.25 -2.5,-33.17 -4.99,-66.33 -1.01,-98.71 -31.57,-10.45 -63.15,-20.9 -89.03,-24.08 -61.99,-244.23 92.98,-435.48 -16.82,-718.44 -94.71,-31.35 -183.74,-55.45 -272.79,-79.58 10.34,-84.12 20.69,-168.29 30.25,-245.98 65.53,1.49 137.55,3.77 208.75,12.53 -4.97,-66.34 -10.76,-126.19 -16.54,-186.05 -119.03,-47.49 -238.05,-94.99 -351.4,-135.25 -60,-473.96 -411.03,-826.02 74.8,-1035.73 -81.89,-82.35 -163.77,-164.71 -246.43,-240.61 2.28,-72.01 11.04,-143.22 19.8,-214.44 123.69,-43.93 247.39,-87.87 370.28,-125.32 7.17,-58.28 13.54,-110.08 19.91,-161.86 -68.02,-34.65 -130.35,-62.03 -192.73,-89.43 28.97,-75.3 57.95,-150.59 86.14,-219.42 -36.47,-24.21 -73.71,-41.93 -104.49,-58.86 6.37,-51.79 18.4,-96.31 30.46,-140.85 41.24,-14.63 81.67,-22.81 128.59,-30.18 11.46,67.14 22.92,134.26 40.05,208.66 99.61,45.11 204.89,97.49 310.18,149.88 -0.22,-105.19 -0.44,-210.36 -0.63,-315.55 87.35,-15.54 173.89,-24.61 260.45,-33.68 47.19,-276.79 21.95,-339.05 -77.25,-600.98 41.24,-14.65 81.67,-22.82 122.1,-30.99 6.37,-51.77 12.74,-103.59 18.31,-148.9 -107.66,-32.96 -216.13,-59.45 -324.59,-85.93 -63.68,-283.84 -231.42,-416.21 -446.28,-646.37 9.65,-25.09 19.31,-50.2 28.97,-75.29 356.88,37.32 435.2,362.4 677.65,635.38 92.91,-60.87 92.91,-60.87 104.06,-151.49 -36.45,-24.2 -73.69,-41.94 -110.95,-59.67 13.02,-372.99 55.84,-400.6 113.96,-873.2 -378.1,-131.93 -832.49,-391.54 -932.85,-804.77 -23.39,29.97 -46.79,59.96 -64.51,97.21 -46.11,0.9 -92.24,1.81 -139.17,9.18 -40.51,-44.43 -81.03,-88.84 -122.4,-126.79 12.04,-44.51 24.09,-89.03 41.83,-126.3 -31.59,-10.45 -63.15,-20.91 -89.06,-24.1 74.19,-122.29 74.19,-122.29 92.5,-271.2 -100.39,-38.64 -195.12,-70 -289.84,-101.37 -134.84,134.57 -133.61,338.45 -163.22,525.39 -52.56,0.11 -105.15,0.22 -152.05,7.6 -36.2,-293.61 -50.47,-551.67 -182.86,-811.13 -86.55,9.08 -173.09,18.15 -253.97,34.49 -17.73,37.25 -36.25,80.97 -48.3,125.5 81.78,29.78 163.56,59.55 251,96.59 -68.88,346.42 -250.26,271.52 -613.5,286.02 56.58,-229.45 469.42,-477.44 13.27,-642.43 -19.21,102.78 -38.42,205.59 -51.16,309.16 -365.84,-71.28 -968.19,124.09 -1042.74,-338.56 -135.96,-16.7 -265.44,-32.62 -394.93,-48.55 -35.76,-83.26 -65.04,-165.73 -94.34,-248.19 -109.26,-20.01 -219.31,-33.54 -322.91,-46.28 -89.36,-181.87 -85.48,-266.82 -72.96,-475.59 -31.56,-10.45 -63.14,-20.91 -89.03,-24.09 -13.16,-106.77 -26.31,-213.53 -32.99,-319.52 -58.28,-7.17 -110.07,-13.54 -161.85,-19.9 -21.71,69.62 -43.42,139.25 -58.65,209.66 -42.05,21.11 -692.02,-946.04 -867.03,-1072.7 57.64,-308.39 -302.08,-963.81 -438.56,-1243.48 -121.4,-28.07 -242.84,-56.15 -358.57,-76.96 -78.79,-160.84 -127.71,-350.88 -295.35,-430.63 6.27,-104.4 12.53,-208.77 25.27,-312.37 -38.86,-4.77 -77.67,-9.55 -110.07,-13.53 -9.67,25.11 -20.11,56.69 -24.1,89.05 -105.16,0.2 -210.34,0.43 -309.04,1.42 -201.55,-445.39 -121.62,-935.02 -51.33,-1399.57 -445.44,-225.64 -437.27,-185.21 -198.67,-629.06 -119.82,-41.03 -240.44,-75.57 -354.59,-109.33 30.48,-140.82 30.48,-140.82 153.06,-336.05 909.34,-19.62 1471.58,-49.06 2159.58,502.17 92.13,-54.4 92.13,-54.4 295.28,-423.74 71.21,8.76 141.62,24 218.53,40.03 3.29,26.7 13.04,54.18 22.01,88.15 51.79,6.37 103.58,12.73 161.86,19.9 7.16,-58.26 13.54,-110.07 19.9,-161.86 -37.25,-17.73 -68.03,-34.66 -99.61,-45.1 -26.1,-108.37 -26.1,-108.37 54.56,-229.88 33.16,-2.5 65.54,1.48 97.91,5.46 4.19,72.8 8.38,145.62 11.78,224.9 554.96,-94.77 1019.66,-62.56 1651.95,-72.87 -4.97,-66.34 -10.76,-126.19 -16.54,-186.05 -911.4,-605 89.82,-1211.34 176.6,-1917.02 158.56,-6.8 316.34,-7.11 480.58,-6.62 248.26,-521.79 2675.63,2170.52 2596.88,-916.18 11.25,-38.05 28.18,-68.82 45.12,-99.59 244.21,-61.99 1402.95,829.72 1425.76,911.39 92.22,-1.8 190.93,-2.81 288.83,2.67 24.89,-95.52 49.79,-191.04 74.68,-286.56 -613.17,-358.01 -1262.8,-740.21 -1886.43,-1066.64 1097.31,108.67 2098.82,461.85 3043.18,959.17 73.13,316.15 919.47,1444.33 1168.95,1556.73 -117.18,471.93 210.45,853.95 145.96,1378.36 53.48,46.01 106.97,92.01 160.47,138.02 -181.42,726.91 424.13,2536.38 -485.7,2720.25 -192.19,2175.87 -3829.12,5304.9 -3440.75,7831.29 -40.43,8.17 -80.86,16.34 -122.1,30.99 -46.48,217.72 37.88,333.26 145.87,523.97 92.13,-54.38 92.13,-54.38 715.12,-43.49 6.37,-51.79 12.74,-103.58 18.32,-148.91 -72.92,-48.39 -139.36,-95.99 -205.8,-143.6 17.73,-37.25 34.66,-68.03 51.59,-98.8 252.49,31.05 314.16,117.49 503.81,285.4 -50.8,92.33 -95.11,185.46 -139.42,278.59 298.13,194.39 595.72,125.85 892.05,228.01 -46.51,217.72 -95.8,244.52 -288.13,365.46 -73.69,-41.93 -148.2,-77.37 -222.71,-112.84 -19.32,50.21 -32.15,101.2 -45,152.21 -65.53,-1.5 -125.38,4.27 -185.26,10.07 -81.98,-134.95 -135.68,-286.14 -294.34,-331.93 18.25,225.68 36.49,451.38 53.94,683.54 64.76,7.96 135.96,16.72 207.17,25.49 20.11,-56.68 40.26,-113.35 66.03,-162.76 45.32,5.57 89.81,17.61 140.83,30.46 20.32,48.51 40.64,97.01 67.45,146.31 25.79,-49.41 51.59,-98.81 77.37,-148.22 59.86,-5.78 126.2,-10.77 191.73,-9.28 155.9,282.05 2646.58,69.17 2935.43,71.84 26,55.77 51.2,118.01 76.4,180.27 600.61,139.58 1075.34,447.69 1714.37,381.69 -239.39,-351.45 -709.6,-429 -1114.29,-505.06 -4.18,-72.81 -8.37,-145.61 -6.9,-211.14 593.93,-379.07 4051.51,-1274.21 4380.22,-1255.49 9.75,27.49 25.21,62.24 40.64,97.01 209.73,-315.95 542.25,-721.95 963.06,-670.2 130.6,167.22 163.07,223.79 358.2,293.78 8.76,-71.21 23.99,-141.64 38.43,-205.58 34.75,-15.43 75.2,-23.6 115.63,-31.78 6.17,-156.97 11.53,-307.47 16.89,-457.96 338.52,-240.98 835.64,-61.53 1216.01,-1.61 -3.98,32.37 -1.48,65.53 1.02,98.7 103.58,12.74 213.65,26.27 323.7,39.81 -18.04,-120.51 58.53,-262.26 75.16,-450.79 -236.47,-107.95 -632.29,-202.63 -769.46,-423.23 -309.16,-51.17 -454.89,-95.38 -724.61,-253.41 -354.03,580.79 -605.99,812.69 -1304.2,825.41 -143.72,153.19 -800.73,525.87 -975.52,504.39 -10.45,31.55 -20.91,63.13 -24.89,95.49 -327.48,97.74 -327.48,97.74 -495.82,77.04 -372.32,729.7 -2394.36,231.3 -3136.65,442.32 -81.2,-141.43 -103.11,-176.97 -260.19,-235.72 5.57,-45.33 11.14,-90.63 16.72,-135.96 194.91,-35.19 415.83,-14.58 580.28,91.07 29.08,-22.7 58.16,-45.42 87.24,-68.12 -9.97,-132.67 -90.83,-116.35 -90.35,-280.57 340.51,-43.56 382.12,-275.03 413.86,-586.6 149.61,-40.76 265.94,-131.58 485.95,-157.11 25.19,62.26 56.88,125.3 87.77,194.81 40.43,-8.17 80.88,-16.34 126.99,-17.23 132.03,-325.52 363.78,-553.32 541.14,-873.25 33.16,-2.49 66.33,-4.99 98.69,-1.01 533.5,-650.74 1007.19,-868.5 1749.28,-1184.71 12.64,-156.18 24.47,-305.89 36.31,-455.57 -466.34,-162.51 -868.42,-152.82 -1349.01,-146.19 -68.93,-80.77 -68.93,-80.77 -119.63,-363.05 -301.21,-115.89 -331.02,-461.32 -676.86,-641.85 -2.5,-33.16 -4.98,-66.32 -1,-98.7 -281.1,-172.58 -937.27,-180.98 -1010,-551.38 26.69,-3.29 59.85,-5.79 92.23,-1.81 -7.38,-46.9 -14.76,-93.83 -16.45,-133.46 -36.45,-24.2 -73.7,-41.94 -110.96,-59.65 -91.48,-431.86 -246.06,-457.44 -396.38,-784.81 33.16,-2.49 66.32,-4.99 98.7,-1 -27.7,-95.42 -55.39,-190.83 -76.62,-285.46 -31.58,-10.46 -63.15,-20.9 -89.05,-24.09 39.12,-264.64 92.2,-428.99 -23.17,-666.62 -193.43,-30.36 -309.85,7.89 -492.82,-54.04 10.35,-84.16 20.7,-168.33 30.26,-246.01 98.69,-1.01 122.79,-90.06 239.22,-128.31 5.46,-97.9 10.93,-195.82 15.61,-287.24 -83.37,-16.83 -166.74,-33.65 -250.89,-44 7.96,-64.75 15.92,-129.49 23.89,-194.23 26.68,-3.29 59.85,-5.78 92.22,-1.8 3.98,-32.36 14.43,-63.95 24.09,-89.06 164.93,-58.56 313.26,71.39 461.45,148.77 4.78,-38.86 8.76,-71.22 12.74,-103.58 -382.59,-362.51 -230.74,-902.46 -319.14,-1412.8 -69.62,-21.71 -140.05,-36.94 -203.99,-51.38 -73.11,-153.58 -73.11,-153.58 -47.53,-308.16 68.72,-24.41 143.11,-41.54 217.52,-58.68 8.75,-71.22 17.51,-142.44 25.47,-207.17 -85.06,-56.47 -163.64,-112.14 -242.25,-167.81 47.56,-493.62 -0.76,-795.3 -41.36,-1266.91 -100.39,-38.64 -201.6,-70.79 -302.78,-102.95 -42.65,-294.43 -85.31,-588.83 -121.49,-882.45 -435.78,-250.75 -400.53,-1232.22 -881.12,-1652.79 36.78,-619.81 392.92,-950.61 193.57,-1520.61 -68.84,-28.18 -131.19,-55.56 -194.32,-76.47 -48.09,230.67 -90.5,468.62 -132.91,706.57 -32.37,-3.98 -65.54,-1.49 -98.7,1 -3.08,78.5 -6.16,156.98 -2.77,236.26 -157.77,0.3 -426.01,-223.27 -453.81,-371.26 -93.14,-44.32 -179.79,-87.85 -266.45,-131.36 -2.5,-33.16 -4.99,-66.33 -1.01,-98.7 -156.37,-117.82 -183.97,-160.64 -225.62,-356.35 -31.58,-10.45 -63.14,-20.91 -95.52,-24.89 -14.63,-41.24 -22.82,-81.67 -30.99,-122.1 -1106.31,-526.56 -2663.49,-196.95 -4023.49,-415.96 -24.2,36.46 -48.4,72.91 -66.91,116.66 -359.84,93.74 -560.83,338.48 -923.85,458.14 -17.13,-74.4 -28.62,-141.53 -40.07,-208.67 -71.21,-8.75 -142.42,-17.51 -213.65,-26.27 -33.85,61.56 -67.71,123.12 -95.89,191.94 -263.72,7 -263.72,7 -408.45,61.5 -6.37,51.78 -13.53,110.05 -14.24,169.13 -218.41,12.56 -179.68,-35.25 -336.85,-146.6 -60.45,117.44 -120.9,234.87 -181.34,352.31 -98.71,1 -198.2,8.49 -291.24,16.75 11.94,-97.1 23.09,-187.75 40.71,-277.58 -90.63,-11.14 -174.79,-21.49 -258.96,-31.84 -25.68,101.98 -51.37,203.99 -70.58,306.77 -446.71,-54.94 -776.1,-102.02 -994.26,442.91 -533.55,223.56 -1070.25,-328.78 -1443.62,-124.96 55.98,79.18 55.98,79.18 43.35,235.34 -237.05,3.74 -237.05,3.74 -340.75,-61.61 -11.46,-67.14 -22.92,-134.25 -35.17,-194.91 -51,-12.85 -101.99,-25.69 -147.32,-31.27 -12.25,-60.65 -24.51,-121.3 -30.29,-181.15 -754.71,-329.42 -730.83,-1752.6 -429.6,-2438.48 -358.68,-129.54 -560.18,-147.75 -785.28,-241.16 33.86,-61.55 67.71,-123.11 100.78,-178.19 -104.8,-216.62 -144.65,-320.1 -128.94,-554.77 -769.94,94.92 -288.99,-370.86 -804.14,-782.37 29.46,-239.54 94.78,-343.24 131.3,-693.64 -127.09,-35.34 -254.98,-64.22 -376.4,-92.29 -2.49,-33.16 -4.99,-66.32 -1.01,-98.7 -494,-187.92 -1004.09,-1783.7 -939.63,-2192.31 -126.19,10.77 -253.18,28.01 -373.69,46.04 -57.21,-283.05 -44.36,-334.04 91.87,-586.75 -49.4,-25.79 -93.13,-44.32 -136.86,-62.84 -10.46,31.58 -20.91,63.17 -24.89,95.53 -745.53,-190.28 -695.41,-1025.33 -585.7,-1596.75 -67.23,-41.12 -67.23,-41.12 -292.13,-29.35 -38.63,100.41 -77.27,200.8 -109.42,302.01 -25.91,-3.18 -51.81,-6.37 -77.71,-9.55 -35.16,-194.93 -12.29,-487.84 -205.02,-577.27 -29.17,-388.19 -207.25,-532.73 -115.93,-927.77 -269.73,-158.04 -292.86,-397.47 -626.32,-464.77 102.69,-266.89 475.65,-5.64 615.78,-358.02 -68.03,-34.66 -129.58,-68.51 -191.94,-95.9 -2.49,-33.16 -4.99,-66.34 -1.8,-92.24 -210.25,53.02 -210.25,53.02 -542.01,25.37 188.8,-252.82 121.43,-773.72 117.62,-1063.34 -86.66,-43.53 -166.83,-86.26 -247.82,-122.51 116.11,-196.02 284.13,-333.09 499.98,-431.39 8.74,-71.22 16.7,-135.97 24.66,-200.71 -85.87,-49.99 -172.52,-93.5 -259.18,-137.03 126.86,-497.01 599.74,-708.31 778.57,-1093.77 -31.57,-10.46 -63.15,-20.92 -95.51,-24.9 -13.36,-211.95 -13.36,-211.95 76.43,-621.51 359.96,-41.17 731.6,-284.64 1094.67,-404.29 87.03,-173.31 1382.78,-769.74 1360.87,-805.29 -458.87,-63.01 -458.87,-63.01 -999.3,-50.6 -3.98,32.36 -8.76,71.2 -13.54,110.05 32.36,3.98 63.94,14.44 95.51,24.89 -3.19,25.91 -6.37,51.8 -10.35,84.17 -152.08,7.58 -304.97,21.63 -451.38,36.49 -59.17,-53.27 -59.17,-53.27 -31.99,-220.81 175.7,67.6 339.63,-89.66 397.59,-240.27 488.31,-176.53 1284.06,-768.74 1764.85,-670.17 3.98,-32.37 14.44,-63.96 24.88,-95.52 223.1,-104.01 264.71,-335.5 396.95,-555.82 46.13,-0.9 98.72,-1.01 150.51,5.36 10.45,-31.57 20.91,-63.13 37.83,-93.92 60.67,-12.25 121.32,-24.5 181.15,-30.29 -3.16,25.9 -6.34,51.79 -10.33,84.16 -113.05,22.82 -138.59,38.93 -170.4,156.49 128.69,22.4 257.38,44.8 385.26,73.66 29.88,-29.18 -36.18,-293.61 -12.19,-435.24 731.56,89.96 437.4,-563.98 1409.61,-293.26 13.54,-110.07 27.07,-220.12 39.81,-323.71 -119.71,11.56 -119.71,11.56 -798.79,-131.09 -24.43,-68.72 -48.84,-137.45 -67.56,-198.9 -22.61,23.5 -45.21,47.01 -68.61,76.99 -323.02,-98.87 -646.03,-197.74 -963.37,-289.34 84.5,-153.66 271.15,-145.89 435.74,-176.43 -3.98,32.37 -1.49,65.54 1,98.7 32.37,3.98 71.23,8.76 110.07,13.53 288.49,-582.28 962.97,-722.79 1569.72,-740.16 40.64,-122.75 107.36,-114.05 233.56,-135.59 28.18,-68.83 62.03,-130.39 95.89,-191.96 1231.84,-183.67 2895.69,-780.83 4115.53,-492.79 -264.08,651 -2439.33,810.66 -3095.5,802.27 -41.92,73.71 -77.37,148.21 -113.61,229.2 190.24,56.25 380.48,112.51 576.42,176.03 98.96,-270.43 1474.91,-396.95 1784.99,-299.67 12.25,60.65 23.71,127.78 35.17,194.92 93.03,-8.28 186.05,-16.55 278.27,-18.35 62.75,-189.45 307.86,-205.32 458.03,-357.71 56.68,20.11 113.35,40.23 169.23,66.82 -3.18,25.87 -0.69,59.08 1.8,92.23 79.29,-3.41 158.57,-6.79 237.05,-3.72 17.73,-37.25 35.46,-74.5 59.66,-110.94 543.02,73.34 1457.57,225.24 1934.54,34.17 929.17,501.3 2192.17,159.66 2884,-151.38 -182.27,-120.99 -241.34,-121.68 -456.58,-135.01 6.37,-51.79 18.42,-96.32 30.47,-140.84 67.14,-11.46 139.94,-15.65 212.73,-19.84 28.98,-75.31 57.96,-150.6 86.15,-219.43 7874.61,393.21 8646.34,6864.18 10472.4,7669.32 -84.12,416.83 365.54,1142.48 465.99,1608.3 32.36,3.98 63.93,14.43 95.51,24.9 1135.04,2418.33 711.51,6921.52 1546.12,9765.55 28.3,-16.24 63.06,-31.67 97.01,-40.64 28.77,-180.48 63.22,-353.7 97.67,-526.9 58.26,7.16 123.01,15.12 187.75,23.08 14.96,199.01 29.9,398 51.35,597.8 304.38,90.01 319.33,289.01 683.59,373.23 118.87,-432.26 118.87,-432.26 156.19,-789.13 -103.68,-65.34 -207.38,-130.66 -311.86,-189.52 83.81,-574.6 83.81,-574.6 135.39,-673.41 114.94,27.29 236.35,55.37 356.98,89.91 271.14,-761.86 1754.25,-3149.13 95.39,-3287.42 49.62,130.97 49.62,130.97 27.44,364.84 37.25,17.72 74.5,35.45 110.95,59.65 -127.32,661.25 -850.19,874.67 -1134.49,1529.76 -164.18,-375.07 -141.35,-1095.18 -88.8,-1522.47 99.51,-7.48 199,-14.96 304.98,-21.66 28.87,-127.88 64.22,-254.98 98.77,-375.59 -174.6,83.68 -342.7,168.16 -510.83,252.63 -556,-2244.45 -145.38,-4983.71 -348.6,-7265.5 -206.91,-2323.38 -7497.05,-7581.02 -9706.35,-8554.34 -2770.65,-1220.62 -6223.52,-686.8 -8991.28,-1703.81 -5442.89,-1999.98 -17609.7,8010.11 -17756.93,13621.93 -88.42,3370.71 2329.51,9479.27 1820.4,12612.11 -6471.17,-105.34 5687.42,11467.62 7290.88,9972.57 356.47,-332.37 224.64,-530.76 534.71,-446.85 1478.22,3530.06 5070.2,9208.7 4309.96,13049.71 -13646.9,6457.52 -20199.81,3067.25 -24206.16,24337.98l34002.7 5907.61 37609.46 -5996.2zm-39903.08 -1403.56l-1392.49 25.44 957.9 -13777.45 434.59 13752.01zm37.15 -16128.6c-231.68,-146.79 -519.66,-530.53 -764.4,-731.49 -990.18,463.13 -4803.77,-2621.53 -5130.84,-3542.39 -647.41,-79.62 -1232.55,-3016.98 -1160.1,-3606.13 980.42,4603.38 2731.38,4528.37 6278.06,6772.33 21.81,-17.03 43.62,-34.07 71.9,-50.3 -191.56,-312.74 -191.56,-312.74 -160.88,-348.4 112.44,-5.88 224.88,-11.77 343.82,-16.85 -9.55,77.67 -19.11,155.36 -22.98,240.33 746.79,19.54 1307.61,-318.95 2003.11,-470.02 3.98,-32.37 14.44,-63.93 24.08,-89.04 1211.12,-442.54 4091.64,-1527.54 4212.41,-3043.98 99.51,-7.48 199,-14.96 298.51,-22.44 178.37,-221.22 155.81,-572.32 276.6,-859.77 129.49,15.93 258.96,31.85 387.65,54.25 7.06,-110.87 13.32,-215.24 19.58,-319.63 67.94,-17.93 135.86,-35.87 203.78,-53.8 23.3,-82.58 52.29,-157.87 81.27,-233.16 104.37,6.24 208.76,12.51 312.34,25.25 26.58,-55.87 53.17,-111.75 85.44,-160.36 -42.14,-31.46 -84.27,-62.95 -126.39,-94.42 253.24,-402.6 461,-488.77 881.4,-647.37 22.5,-76.11 51.47,-151.4 80.45,-226.7 148.01,-27.81 179.58,-17.36 215.44,118.5 60.65,-12.25 120.51,-18.05 180.38,-23.82 -10.77,-126.18 -21.54,-252.38 -32.32,-378.58 119.73,-11.56 245.93,-22.33 371.32,-26.62 29.77,-81.79 58.74,-157.08 87.72,-232.39 -59.06,-0.68 -111.65,-0.57 -164.23,-0.46 -15.44,-34.78 -24.42,-68.75 -34.19,-96.23 368.03,-53.31 1614.96,-787.2 1712.45,-992.09 1133.92,-189.13 1811.18,-2596.64 2850.45,-3191.75 605.81,1477.13 -1746.52,4352.23 -2513.61,5369.1 -32.33,-3.98 -65.52,-1.48 -98.7,1 -179.15,227.71 -358.31,455.41 -538.27,689.58 -220.12,-27.07 -653.53,504.55 -746.93,729.64 -32.37,-3.98 -65.54,-1.48 -92.22,1.81 -9.66,25.09 -20.12,56.67 -24.1,89.05 -32.38,-3.98 -65.54,-1.5 -98.71,1 -1590.98,1447.33 -3658.81,3138.35 -5723.87,3791.33 -9.66,25.09 -20.11,56.67 -24.09,89.03 -1047.56,502.09 -2393.18,1236.98 -3521.33,1485.99zm9796.42 -7996.05c1.49,-65.53 2.18,-124.61 2.87,-183.66 240.72,-193.85 240.72,-193.85 297.39,-173.73 -218.59,334.57 -218.59,334.57 -300.26,357.39zm-5378.62 -1206.95c-12.25,-60.65 -25.31,-114.82 -38.36,-169 76.89,16.03 152.98,38.52 235.55,61.82 -3.18,25.9 -7.16,58.26 -11.14,90.64 -66.34,4.97 -126.2,10.76 -186.05,16.54zm2985.03 202.82c52.27,-157.88 127.17,-339.26 334.33,-313.78 21.13,42.02 -75.89,82.67 -120.69,340.05 -71.2,-8.76 -142.42,-17.51 -213.64,-26.27zm-3663.65 -509.71c-85.05,-56.47 -170.12,-112.93 -248.72,-168.6 200.7,24.68 345.53,22.77 508.39,141.37 -86.56,9.08 -173.12,18.15 -259.67,27.23zm-880.2 -377.7c20.91,-63.15 41.03,-119.84 61.14,-176.51 109.27,20.01 218.52,40.02 334.27,60.83 -17.72,37.24 -35.45,74.51 -47.5,119.03 -118.13,-1.39 -236.25,-2.77 -347.91,-3.35zm-465.64 -221.58c-9.87,-80.06 -20.53,-153.68 -31.21,-227.28 223.43,53.76 223.43,53.76 291.55,141.01 -88.95,28.5 -177.88,56.99 -260.34,86.27zm7051.26 538.56c109.4,-182.26 201.75,-492.94 442.35,-497.63 -3.98,32.39 -8.76,71.21 -13.53,110.06 -235.35,43.35 -101.46,237.26 -105.13,427.39 -110.06,-13.53 -220.12,-27.07 -323.69,-39.82zm629.04 -198.66c-4.99,-66.32 -4.3,-125.38 -3.61,-184.46 51.81,6.37 102.8,19.22 160.27,32.86 0.1,52.59 -0.59,111.65 5.2,171.51 -58.27,-7.17 -110.06,-13.54 -161.86,-19.91zm713.5 -457.72c20.89,-63.16 41.03,-119.82 61.14,-176.49 46.11,-0.91 91.42,4.67 143.21,11.04 -13.64,57.46 -28.07,121.4 -42.51,185.36 -58.26,-7.17 -110.05,-13.54 -161.84,-19.91zm-10026.23 -1785.08c3.08,-78.48 6.16,-156.97 9.22,-235.46 107.68,32.96 221.04,73.18 334.38,113.41 -17.73,37.25 -36.25,80.99 -48.3,125.51 -97.93,-5.47 -196.61,-4.46 -295.3,-3.46zm4022.33 -162.53c-238.56,-357.95 -635.39,-551.32 -1036.88,-653.29 35.03,-284.85 134.31,-397.5 107.8,-716.22 67.91,-17.94 135.83,-35.87 209.44,-46.54 -12.26,-60.66 -18.05,-120.51 -23.83,-180.37 -154.57,-25.58 -302.69,-50.37 -450.79,-75.16 12.74,-103.58 24.68,-200.69 43.1,-297.01 1320.96,-469.18 4826.79,1187.45 5841.1,-576.34 68.85,28.17 137.64,56.35 212.95,85.33 14.65,41.23 28.5,88.95 42.34,136.65 141.64,23.99 282.47,54.45 423.32,84.91 -110.3,683.09 -304.63,606.6 -504.28,1107.81 -763.59,14.94 -3490.47,945.68 -4509.94,707.2 -22.38,128.68 -22.38,128.68 27.24,259.65 -123.51,149.11 -189.04,147.62 -381.57,163.38zm-5112.79 -3421.87c-12.27,-60.67 -25.35,-114.85 -31.91,-168.23 108.38,-26.1 222.41,-44.94 336.45,-63.78 -3.18,25.91 -0.69,59.07 1.81,92.23 45.31,5.57 96.3,18.42 147.31,31.26 -17.72,37.25 -36.25,80.98 -54.78,124.71 -136.75,-10.24 -267.83,-13.22 -398.88,-16.19zm14294.78 1757.98c26.65,-430.49 26.65,-430.49 85.62,-482.39 51.1,65.44 51.1,65.44 24.44,495.92 -38.84,-4.77 -77.69,-9.55 -110.06,-13.53zm-13535.12 -2591.22c-22.01,-88.14 -22.01,-88.14 69.21,-188.65 63.94,14.44 127.89,28.87 198.31,44.1 -20.12,56.69 -40.23,113.36 -53.87,170.83 -71.23,-8.76 -142.44,-17.52 -213.65,-26.28zm655.33 -412.31c-2.6,-85.74 0.47,-164.24 3.55,-242.72 57.49,13.62 121.42,28.07 185.36,42.51 -8.75,71.21 -17.51,142.44 -27.07,220.11 -58.26,-7.16 -110.05,-13.53 -161.84,-19.9zm-502.46 -830.72c1.49,-65.53 2.18,-124.59 2.88,-183.66 45.31,5.57 97.1,11.94 148.89,18.31 -5.58,45.33 -11.95,97.15 -18.32,148.91 -46.11,0.9 -93.01,8.27 -133.45,16.44zm9388.98 714.34c108.15,-131.27 113.04,-117.53 285.35,-129.22 -6.38,51.81 -12.75,103.6 -19.91,161.86 -90.63,-11.14 -181.27,-22.29 -265.44,-32.64zm-11555.39 -1802.26c-96.73,-228.79 -501.21,-199.65 -707.59,-231.6 3.98,-32.37 7.96,-64.75 11.94,-97.11 343.93,35.72 512.15,3.84 699.11,33.4 36.76,181.96 36.76,181.96 -3.46,295.31zm-2471.75 -849.46c-36.47,-24.19 -66.45,-47.59 -96.43,-71 12.04,-44.53 30.57,-88.25 48.29,-125.5 90.64,11.14 90.64,11.14 209.07,170.3 -53.38,6.58 -106.76,13.16 -160.93,26.2zm2229.22 -277.89c-16.24,-28.29 -26.8,-49.3 -37.35,-70.31 148.68,-86.88 274.19,-38.57 448.19,-10.6 1.69,39.63 9.07,86.55 16.44,133.47 -142.43,-17.53 -284.85,-35.05 -427.28,-52.56zm16898.71 1532.73c30.85,-357.66 30.85,-357.66 66.51,-327 -26.49,108.48 -46.5,217.74 -66.51,327zm-20263.53 -2708.88c5.47,-97.92 10.94,-195.82 16.41,-293.74 64.75,7.97 129.49,15.93 200.7,24.68 -7.96,64.74 -15.93,129.49 -24.68,200.7 -67.93,17.94 -130.17,43.14 -192.43,68.36zm18070.85 1834.61c-130.59,-167.23 -193.05,-247.2 -233.9,-449.38 -162.38,-74.89 -847.58,-1596.08 -1101.14,-1627.27 -191.88,-470.49 -1512.65,-2289.06 -1683.46,-2342.93 -51.52,-275.8 -51.52,-275.8 -21.95,-462.79 79.27,-3.35 158.56,-6.75 243.51,-2.86 -3.18,25.87 -0.69,59.06 1.8,92.23 402.3,95.48 590.95,164.68 639.49,571.54 527.1,202.84 741.28,492.05 846.79,1076.8 119.84,41.02 239.66,82.05 365.16,130.34 -51.47,151.4 -51.47,151.4 -25.26,312.34 62.35,27.39 124.7,54.78 192.73,89.43 -3.95,32.38 -8.75,71.21 -13.53,110.06 -198.1,61.07 -198.1,61.07 -176.99,103.11 76.9,16.03 152.96,38.51 235.56,61.82 7.01,263.75 26.74,423.9 128.35,666.41 25.9,3.19 57.48,13.64 89.05,24.1 25.2,62.24 56.88,125.29 87.76,194.81 70.43,15.23 140.05,36.94 209.67,58.64 29.82,345.41 181.53,554.67 232.37,889.51 32.35,3.97 63.92,14.43 95.5,24.89 36.4,398.79 36.4,398.79 1.74,466.83 -39.63,1.7 -79.29,3.4 -113.25,12.37zm-10236.91 -3171.4c13.54,-110.06 27.07,-220.11 39.81,-323.71 143.91,-48.02 143.91,-48.02 181.75,-141.95 272.82,79.56 230.1,159.75 184.51,423.58 -139.14,9.18 -272.62,25.62 -406.07,42.08zm-8821.88 -3989.75c-54.29,-39.52 -108.57,-79.06 -162.85,-118.61 1.49,-65.54 9.45,-130.28 17.41,-195.02 45.3,5.57 97.1,11.94 148.89,18.31 43.16,130.18 43.16,130.18 -3.45,295.32zm-381.11 -428.04c22.49,-76.1 45.01,-152.2 67.51,-228.3 71.21,8.76 148.1,24.79 225.01,40.82 -20.12,56.67 -40.24,113.36 -60.35,170.02 -79.29,3.4 -158.56,6.79 -232.17,17.46zm-587.7 -565.18c-79.9,-312.14 -159.29,-361.33 -150.36,-754.55 330.66,-123.65 622.43,-679.24 964.18,-518.92 -2.03,604.38 -279.42,668.85 -787.47,685.23 82.99,233.65 95.35,346.89 77.24,600.98 -38.84,-4.78 -71.22,-8.76 -103.59,-12.74zm3116.46 -438.24c-27.6,-42.82 -48.71,-84.86 -69.84,-126.88 72.02,2.28 144.03,4.56 215.23,13.32 -3.18,25.89 -7.17,58.26 -11.15,90.65 -46.9,7.36 -93.81,14.74 -134.24,22.91zm-1424.29 -2205.91c91.91,-159.57 221.08,-301.41 442.1,-228.22 -124.88,267.23 -166.22,229.3 -442.1,228.22zm525.35 -263.99c-9.76,-27.49 -19.52,-54.98 -22.8,-81.68 1363.69,-1416.13 3752.58,-1549.52 5543.84,-1151.79 9.06,86.55 18.14,173.09 33.68,260.45 312.44,77.85 312.44,77.85 427.5,157.72 -7.96,64.75 -15.92,129.48 -24.68,200.7 -249.69,159.88 -1038.66,-318.33 -1288.07,-427.86 -1616.38,-444.03 -3158.05,877.48 -4669.47,1042.46zm7283.36 895.71c-68.83,-28.19 -137.64,-56.36 -207.27,-78.07 7.4,-327.69 7.4,-327.69 53.34,-433.76 237.15,48.87 242.13,115.22 382.49,309.91 -79.97,62.47 -154.26,132.18 -228.56,201.92zm-4732.78 -687.19c11.14,-90.61 22.29,-181.28 33.44,-271.91 271.92,33.46 280.79,14.82 250.53,260.83 -98.7,1 -190.93,2.8 -283.97,11.08zm-2878.44 -1122.92c3.87,-84.96 6.95,-163.44 10.03,-241.94 45.32,5.58 97.11,11.95 148.91,18.32 -7.96,64.75 -16.72,135.96 -25.48,207.17 -46.13,0.9 -93.03,8.28 -133.46,16.45zm12385.69 -941.3c73.4,-115.84 146.79,-231.68 220.17,-347.53 -11.13,90.63 -22.28,181.28 -27.73,279.18 -67.94,17.93 -130.18,43.14 -192.44,68.35zm2447.7 136.71c-313.57,-229.15 -549.55,-501.33 -803.35,-788.85 85.02,-370.72 209.99,-585.38 -204.46,-688.92 -23.4,29.99 -47.59,66.44 -65.32,103.69 -84.15,-10.35 -168.32,-20.72 -252.49,-31.06 6.37,-51.78 12.74,-103.57 18.31,-148.9 162.45,-91.73 278.87,-130 320.59,-308.88 -309.05,1.43 -825.35,351.98 -946.14,639.41 -278.98,77.43 -432.56,150.54 -719.11,75.87 143.88,-475.2 1796.98,-1198.56 2242.58,-1294.91 -2.49,-33.17 1.49,-65.55 5.47,-97.91 -83.38,-16.83 -166.73,-33.65 -250.91,-44 -12.04,44.52 -24.89,95.53 -31.26,147.32 -887.12,212.91 -2717.71,776.43 -3186.95,1599.37 -32.37,-3.98 -64.74,-7.96 -97.11,-11.94 16.62,-188.54 81.94,-292.22 229.34,-1437.36 135.86,-35.86 271.7,-71.73 407.56,-107.59 205.68,-432.34 967.3,-463.98 1179.97,-1044.43 262.14,5.96 523.48,18.38 791.33,31.6 10.44,-31.58 20.9,-63.15 37.8,-93.93 100.42,38.63 200.04,83.75 299.63,128.87 7.54,-192.04 22.77,-232.78 179.75,-339.36 9.77,27.49 25.2,62.24 40.65,96.99 193.42,30.36 386.05,67.2 578.69,104.03 39.53,-54.28 79.06,-108.56 117.8,-156.37 -31.57,-10.46 -63.14,-20.91 -95.51,-24.89 -2.49,-33.18 -4.99,-66.34 -1.01,-98.72 -31.57,-10.44 -63.14,-20.9 -95.52,-24.88 11.15,-90.64 22.3,-181.28 33.44,-271.91 105.98,-6.69 218.42,-12.57 330.08,-12 25.2,62.26 50.41,124.51 82.08,187.55 -34.75,15.43 -69.51,30.88 -98.59,53.58 161.16,78.99 160.36,85.48 191.45,260.15 214.55,72.4 292.25,81.95 391.31,-135.89 330.18,40.61 904.68,71.83 1102.35,-199.61 -136.84,-62.83 -136.84,-62.83 -815.82,-152.88 -7.38,-46.93 -15.55,-87.37 -17.25,-127.01 436.75,-77.73 929.57,-23.69 1366.62,56.35 -3.98,32.36 -1.49,65.53 1.01,98.69 25.9,3.19 57.48,13.64 89.04,24.1 -3.18,25.91 -0.69,59.07 1.8,92.24 125.51,48.29 251.01,96.57 375.71,151.36 -6.26,104.37 -6.05,209.55 -5.84,314.73 109.37,72.59 109.37,72.59 692.82,137.77 -1.69,-39.63 2.29,-72.01 6.27,-104.37 -154.58,-25.58 -302.69,-50.37 -450.79,-75.16 14.32,-116.54 28.66,-233.07 49.46,-348.8 54.18,-13.06 108.37,-26.11 161.75,-32.68 -17.93,-67.94 -35.86,-135.87 -53.79,-203.78 263.73,-7.01 263.73,-7.01 907.95,98.52 6.37,-51.81 19.22,-102.8 31.26,-147.32 32.38,3.98 64.74,7.95 103.58,12.74 64.69,382.56 384.89,290.49 313.02,767.98 -76.89,-16.02 -154.57,-25.58 -225.79,-34.34 -136.23,252.71 -166,334.48 59.31,533.08 -18.2,201.48 -36.41,402.98 -48.15,605.25 -68.82,-28.17 -137.66,-56.36 -207.27,-78.07 -2.49,-33.16 -4.99,-66.33 -1.01,-98.69 -342.02,109.09 -656.64,155.83 -1023.08,196.2 -40.32,60.77 -74.98,128.8 -109.63,196.82 -103.58,-12.74 -207.97,-19 -312.36,-25.26 0.9,46.12 1.01,98.7 1.11,151.29 377.62,296.15 636.8,433.2 704.92,520.44 -367.11,99.44 -367.11,99.44 -668.09,88.68 -37.85,93.96 -69.22,188.68 -100.57,283.41 -103.6,-12.74 -207.18,-25.48 -310.77,-38.22 -23.61,-75.2 -47.22,-150.4 -70.83,-225.58 -156.18,-12.64 -156.18,-12.64 -325.09,78.31 -181.7,-232.65 -210.19,-321.59 -510.4,-338.79 -406.77,902.9 73.57,1592.89 -1341.55,1556.87zm-2931.7 -636.55c4.78,-38.86 8.76,-71.22 12.74,-103.6 108.36,-26.1 223.2,-51.41 337.23,-70.24 -8.75,71.21 -17.51,142.42 -26.27,213.65 -110.05,-13.54 -220.11,-27.07 -323.7,-39.81zm861.05 105.92c-36.44,-24.22 -72.9,-48.44 -103.69,-65.38 39.34,-174.26 83.32,-195.04 242.2,-259.37 12.74,-103.57 31.95,-206.38 51.17,-309.16 151.19,-53.7 302.38,-107.4 453.56,-161.11 -74.88,181.38 -176.24,471.23 -378.43,512.09 -59.54,163.55 -122.58,195.23 -264.81,282.93zm4124.39 290.31c21.07,-385.16 21.07,-385.16 101.63,-559.27 76.89,16.03 153.79,32.06 236.36,55.35 -37.52,251.69 -44.37,467.73 -337.99,503.92zm3968.99 271.26c7.17,-58.31 13.53,-110.1 19.9,-161.88 -38.85,-4.78 -77.69,-9.56 -110.06,-13.54 35.24,-179.68 76.95,-358.58 118.67,-537.46 53.37,-6.58 113.25,-12.36 172.31,-11.67 -36.73,245.22 -66.99,491.23 -97.24,737.25 -38.84,-4.77 -71.21,-8.75 -103.58,-12.7zm-4057.6 -886.79c-81.09,-88.84 -155.7,-176.87 -231.1,-258.43 215.24,13.32 215.24,13.32 331.08,86.71 -0.7,59.07 5.09,118.92 10.07,185.26 -38.84,-4.78 -77.68,-9.56 -110.05,-13.54zm-1929.48 -342.44c5.45,-97.91 10.92,-195.82 16.39,-293.73 207.17,25.48 212.95,85.34 169.65,277.17 -66.33,4.99 -126.19,10.78 -186.04,16.56zm-229 -1237.42c140.41,-179.87 469.8,-132.79 673.67,-134.02 -17.72,37.26 -36.24,80.99 -48.29,125.5 -210.35,0.41 -420.7,0.84 -625.38,8.52zm-21578.58 -4894.78c-3.49,-131.88 -6.99,-263.74 -4.8,-388.35 92.23,-1.8 159.25,-65.85 194.9,-35.17 -20.81,115.73 -35.14,232.27 -49.47,348.79 -48.5,20.34 -97.79,47.14 -140.63,74.73zm-2635.36 -6626.66c-15.64,-139.94 -15.64,-139.94 97.98,-369.13 32.37,3.98 71.23,8.76 110.06,13.54 -97.6,152.29 -97.6,152.29 -118.3,320.63 -33.96,8.97 -61.45,18.72 -89.74,34.96zm1252.4 -831.79c-28.39,-36.34 -56.77,-72.69 -78.69,-108.24 160.75,-131.4 160.75,-131.4 283.64,-168.85 36.45,24.2 72.92,48.39 115.05,79.86 -0.69,59.06 5.09,118.93 10.08,185.26 -111.66,-0.59 -224.1,5.3 -330.08,11.97zm5737.37 -4328.57c-112.55,-46.7 -225.11,-93.4 -331.19,-139.31 -7.38,-46.9 -15.55,-87.34 -23.73,-127.79 182.09,15.82 370.63,32.44 558.38,55.53 5.78,59.85 11.56,119.73 17.34,179.58 -73.6,10.66 -147.21,21.33 -220.8,31.99zm680.84 -192.29c36.24,-80.97 71.71,-155.48 113.63,-229.19 254.08,18.11 508.16,36.21 762.23,54.32 -158.23,164.55 -649.37,150.15 -875.86,174.87zm720.65 -516c-7.37,-46.91 -8.27,-93.02 -9.96,-132.65 140.74,-22.14 281.47,-44.26 422.19,-66.39 -3.98,32.37 -1.48,65.53 0.21,105.17 -189.13,95.05 -189.13,95.05 -412.44,93.87zm8483.87 4.97c4.78,-38.84 9.55,-77.68 13.53,-110.05 144.81,-1.9 289.63,-3.82 440.14,1.54 -6.37,51.8 -12.74,103.59 -19.91,161.85 -148.91,-18.31 -291.34,-35.83 -433.76,-53.34zm-683.12 -537.48c209.35,-99.13 209.35,-99.13 432.66,-97.94 -17.73,37.25 -36.25,80.98 -48.3,125.5 -119.72,11.53 -240.23,29.6 -354.28,48.43 -9.75,-27.48 -19.52,-54.97 -30.08,-75.99zm1376.71 241.6c-59.98,-46.8 -119.95,-93.6 -174.23,-133.14 10.46,-31.57 20.12,-56.67 29.78,-81.79 122.98,15.13 122.98,15.13 301.19,115.92 -56.56,32.48 -106.65,65.74 -156.74,99.01zm-4608.39 -790.19c-12.26,-60.65 -25.32,-114.82 -38.36,-169.01 90.64,11.15 181.27,22.29 271.9,33.44 -3.98,32.37 -8.76,71.21 -13.54,110.06 -72.79,4.18 -146.39,14.85 -220,25.51zm922.97 -1306.03c-27.59,-42.84 -49.54,-78.39 -71.41,-113.95 342.21,-3.91 980.75,94.33 1109.41,-310.46 244.42,43.21 316.41,45.49 449.54,245.88 -75.11,76.19 -144.54,159.67 -213.95,243.14 -424,-25.86 -848.79,-45.24 -1273.59,-64.61zm1566.74 192.68c-9.87,-80.09 -20.55,-153.69 -24.74,-226.5 152.89,-14.07 152.89,-14.07 265.45,32.65 -28.18,68.82 -56.37,137.64 -78.87,213.75 -58.27,-7.17 -110.05,-13.54 -161.84,-19.9z"/>
   </g>
   <g style="clip-path:url(#id1)">
   </g>
   <g style="clip-path:url(#id2)">
    <path id="_1" class="fil1" d="M76946.38 74654.76c-3272.52,-10657.7 5513.06,-17325.73 -18190.59,-25823.57 -8835.94,-3167.72 -6646.67,-4153.69 -6653.31,-8315.38 -58.26,-7.17 -110.07,-13.54 -161.86,-19.91 -142,192.84 -164.99,433.18 -207.39,671.12 -71.23,-8.76 -136.76,-10.24 -202.29,-11.73 -81.64,450 -40.3,487.96 -59.3,695.93 -94.63,21.21 -189.23,42.43 -277.39,64.46 -59.64,110.96 -112.82,222.71 -165.99,334.48 28.39,36.34 63.25,73.48 97.31,117.11 -17.62,89.85 -36.04,186.16 -54.45,282.48 -703.14,373.56 -52.27,959.64 -386.84,1168.24 -80.17,-42.72 -161.16,-78.96 -235.66,-114.42 1.7,39.65 9.07,86.55 16.45,133.47 37.24,17.73 74.49,35.45 110.96,59.64 -80.46,226.71 -340.71,365.57 -515.08,554.45 -59.17,-53.29 -59.17,-53.29 -208.08,-71.6 -79.88,115.02 -79.88,115.02 -85.12,318.11 71.91,-50.3 143.81,-100.6 214.92,-144.44 13.05,54.19 26.1,108.37 44.85,169.82 -137.24,154 -155.76,197.72 -365.33,191.67 -25.48,207.17 12.09,382.66 -235.41,417.94 -89.8,409.56 -259.37,986.76 -669.2,1166.39 13.85,47.71 27.7,95.41 41.54,143.12 -66.33,4.98 -132.66,9.97 -192.52,15.75 -40.23,113.36 -74.78,233.98 -109.33,354.59 -192.42,68.34 -275.48,209.29 -419.18,362.49 -51.79,-6.37 -103.6,-12.74 -155.39,-19.11 7.86,-117.34 22.19,-233.86 35.73,-343.93 -211.15,6.9 -335.55,109.89 -557.26,95.77 -0.67,59.07 5.11,118.93 10.09,185.26 37.25,17.73 73.7,41.92 110.15,66.12 -5.57,45.31 -11.15,90.65 -16.72,135.96 -109.15,32.57 -218.31,65.18 -327.47,97.73 -143.39,310.97 -413.02,205.53 -713.43,83.14 -13.06,-54.18 -19.63,-107.56 -26.21,-160.96 -63.14,-20.9 -119.82,-41.02 -177.29,-54.66 -8.76,71.22 -17.52,142.44 -27.07,220.12 50.99,12.84 101.2,32.16 151.39,51.48 -178.95,332.88 -190.1,423.52 -564.9,318.27 -2.5,-33.16 -4.99,-66.33 -1.81,-92.22 -111.64,-0.59 -224.09,5.3 -330.06,11.98 -10.45,31.57 -20.91,63.16 -24.89,95.52 -250.58,113.77 -1105.23,383.27 -1321.47,271.25 -0.1,-52.61 -0.21,-105.19 5.37,-150.52 -397.1,76.05 -791.34,-31.59 -1191.94,-87.43 -14.42,63.96 -28.86,127.9 -37.62,199.11 -437.84,-73.56 -690.76,-314.97 -1118.06,-367.52 -5.57,45.32 -11.94,97.12 -18.31,148.91 127.1,35.35 254.2,70.7 380.48,112.51 -312.61,244.16 -497.21,-232.02 -702.65,209.34 -182.39,-173.6 -509.28,-187.51 -553.42,-416.39 -101.19,-32.16 -202.4,-64.3 -304.38,-90 -56.47,85.05 -107.27,177.4 -158.05,269.72 -359.47,-123.06 -545.83,-264.29 -950.52,-340.34 31.38,-94.72 31.38,-94.72 118.62,-162.86 161.05,26.38 322.11,52.76 482.36,85.61 -5.78,-59.85 -5.09,-118.91 -5.18,-171.51 -188.88,-174.38 -294.05,-174.17 -559.48,-206.81 -26.59,55.88 -53.18,111.75 -80.56,174.11 -103.59,-12.74 -200.7,-24.68 -297.82,-36.63 5.58,-45.32 11.15,-90.64 16.72,-135.96 33.98,-8.96 67.93,-17.92 108.38,-26.11 3.88,-84.97 14.22,-169.12 23.78,-246.79 -68.03,-34.66 -136.86,-62.85 -199.21,-90.24 -22.79,-81.65 -45.63,-163.33 -62.79,-237.74 62.26,-25.19 130.18,-43.15 198.1,-61.06 16.83,-83.37 32.86,-160.27 48.89,-237.16 -198.53,-149.28 -413.32,47.75 -668.22,36.11 -113.96,-355.74 -117.58,-540.2 -505.32,-647.05 -30.62,-338.92 -6.05,-592.21 -456.42,-457.01 -32.67,-161.75 -18.35,-278.29 -173.83,-349.98 91.33,-147.39 118.12,-245.38 299.66,-245.74 18.53,-43.73 37.06,-87.46 62.06,-130.39 -203.2,-57.84 -203.2,-57.84 -370.93,-190.21 -22.4,128.69 -45.6,263.86 -68.79,399.01 -457.82,-16.31 -378.27,-77.09 -334.2,-435.42 -339.85,-15.49 -423,72.85 -572.08,376.55 -63.92,-14.44 -127.87,-28.88 -191.83,-43.32 -17.24,-126.97 -34.49,-253.97 -51.72,-380.96 -128,-81.46 -128,-81.46 -376.4,-92.29 -0.11,-52.59 -0.22,-105.16 5.36,-150.5 -87.45,-37.03 -169.23,-66.81 -251,-96.59 -15.55,-87.34 -31.89,-168.21 -48.24,-249.09 -63.14,-20.92 -126.29,-41.83 -190.24,-56.25 -2.5,-33.17 -4.99,-66.33 -1.01,-98.71 -31.57,-10.45 -63.15,-20.9 -89.03,-24.08 -61.99,-244.23 92.98,-435.48 -16.82,-718.44 -94.71,-31.35 -183.74,-55.45 -272.79,-79.58 10.34,-84.12 20.69,-168.29 30.25,-245.98 65.53,1.49 137.55,3.77 208.75,12.53 -4.97,-66.34 -10.76,-126.19 -16.54,-186.05 -119.03,-47.49 -238.05,-94.99 -351.4,-135.25 -60,-473.96 -411.03,-826.02 74.8,-1035.73 -81.89,-82.35 -163.77,-164.71 -246.43,-240.61 2.28,-72.01 11.04,-143.22 19.8,-214.44 123.69,-43.93 247.39,-87.87 370.28,-125.32 7.17,-58.28 13.54,-110.08 19.91,-161.86 -68.02,-34.65 -130.35,-62.03 -192.73,-89.43 28.97,-75.3 57.95,-150.59 86.14,-219.42 -36.47,-24.21 -73.71,-41.93 -104.49,-58.86 6.37,-51.79 18.4,-96.31 30.46,-140.85 41.24,-14.63 81.67,-22.81 128.59,-30.18 11.46,67.14 22.92,134.26 40.05,208.66 99.61,45.11 204.89,97.49 310.18,149.88 -0.22,-105.19 -0.44,-210.36 -0.63,-315.55 87.35,-15.54 173.89,-24.61 260.45,-33.68 47.19,-276.79 21.95,-339.05 -77.25,-600.98 41.24,-14.65 81.67,-22.82 122.1,-30.99 6.37,-51.77 12.74,-103.59 18.31,-148.9 -107.66,-32.96 -216.13,-59.45 -324.59,-85.93 -63.68,-283.84 -231.42,-416.21 -446.28,-646.37 9.65,-25.09 19.31,-50.2 28.97,-75.29 356.88,37.32 435.2,362.4 677.65,635.38 92.91,-60.87 92.91,-60.87 104.06,-151.49 -36.45,-24.2 -73.69,-41.94 -110.95,-59.67 13.02,-372.99 55.84,-400.6 113.96,-873.2 -378.1,-131.93 -832.49,-391.54 -932.85,-804.77 -23.39,29.97 -46.79,59.96 -64.51,97.21 -46.11,0.9 -92.24,1.81 -139.17,9.18 -40.51,-44.43 -81.03,-88.84 -122.4,-126.79 12.04,-44.51 24.09,-89.03 41.83,-126.3 -31.59,-10.45 -63.15,-20.91 -89.06,-24.1 74.19,-122.29 74.19,-122.29 92.5,-271.2 -100.39,-38.64 -195.12,-70 -289.84,-101.37 -134.84,134.57 -133.61,338.45 -163.22,525.39 -52.56,0.11 -105.15,0.22 -152.05,7.6 -36.2,-293.61 -50.47,-551.67 -182.86,-811.13 -86.55,9.08 -173.09,18.15 -253.97,34.49 -17.73,37.25 -36.25,80.97 -48.3,125.5 81.78,29.78 163.56,59.55 251,96.59 -68.88,346.42 -250.26,271.52 -613.5,286.02 56.58,-229.45 469.42,-477.44 13.27,-642.43 -19.21,102.78 -38.42,205.59 -51.16,309.16 -365.84,-71.28 -968.19,124.09 -1042.74,-338.56 -135.96,-16.7 -265.44,-32.62 -394.93,-48.55 -35.76,-83.26 -65.04,-165.73 -94.34,-248.19 -109.26,-20.01 -219.31,-33.54 -322.91,-46.28 -89.36,-181.87 -85.48,-266.82 -72.96,-475.59 -31.56,-10.45 -63.14,-20.91 -89.03,-24.09 -13.16,-106.77 -26.31,-213.53 -32.99,-319.52 -58.28,-7.17 -110.07,-13.54 -161.85,-19.9 -21.71,69.62 -43.42,139.25 -58.65,209.66 -42.05,21.11 -692.02,-946.04 -867.03,-1072.7 57.64,-308.39 -302.08,-963.81 -438.56,-1243.48 -121.4,-28.07 -242.84,-56.15 -358.57,-76.96 -78.79,-160.84 -127.71,-350.88 -295.35,-430.63 6.27,-104.4 12.53,-208.77 25.27,-312.37 -38.86,-4.77 -77.67,-9.55 -110.07,-13.53 -9.67,25.11 -20.11,56.69 -24.1,89.05 -105.16,0.2 -210.34,0.43 -309.04,1.42 -201.55,-445.39 -121.62,-935.02 -51.33,-1399.57 -445.44,-225.64 -437.27,-185.21 -198.67,-629.06 -119.82,-41.03 -240.44,-75.57 -354.59,-109.33 30.48,-140.82 30.48,-140.82 153.06,-336.05 909.34,-19.62 1471.58,-49.06 2159.58,502.17 92.13,-54.4 92.13,-54.4 295.28,-423.74 71.21,8.76 141.62,24 218.53,40.03 3.29,26.7 13.04,54.18 22.01,88.15 51.79,6.37 103.58,12.73 161.86,19.9 7.16,-58.26 13.54,-110.07 19.9,-161.86 -37.25,-17.73 -68.03,-34.66 -99.61,-45.1 -26.1,-108.37 -26.1,-108.37 54.56,-229.88 33.16,-2.5 65.54,1.48 97.91,5.46 4.19,72.8 8.38,145.62 11.78,224.9 554.96,-94.77 1019.66,-62.56 1651.95,-72.87 -4.97,-66.34 -10.76,-126.19 -16.54,-186.05 -911.4,-605 89.82,-1211.34 176.6,-1917.02 158.56,-6.8 316.34,-7.11 480.58,-6.62 248.26,-521.79 2675.63,2170.52 2596.88,-916.18 11.25,-38.05 28.18,-68.82 45.12,-99.59 244.21,-61.99 1402.95,829.72 1425.76,911.39 92.22,-1.8 190.93,-2.81 288.83,2.67 24.89,-95.52 49.79,-191.04 74.68,-286.56 -613.17,-358.01 -1262.8,-740.21 -1886.43,-1066.64 1097.31,108.67 2098.82,461.85 3043.18,959.17 73.13,316.15 919.47,1444.33 1168.95,1556.73 -117.18,471.93 210.45,853.95 145.96,1378.36 53.48,46.01 106.97,92.01 160.47,138.02 -181.42,726.91 424.13,2536.38 -485.7,2720.25 -192.19,2175.87 -3829.12,5304.9 -3440.75,7831.29 -40.43,8.17 -80.86,16.34 -122.1,30.99 -46.48,217.72 37.88,333.26 145.87,523.97 92.13,-54.38 92.13,-54.38 715.12,-43.49 6.37,-51.79 12.74,-103.58 18.32,-148.91 -72.92,-48.39 -139.36,-95.99 -205.8,-143.6 17.73,-37.25 34.66,-68.03 51.59,-98.8 252.49,31.05 314.16,117.49 503.81,285.4 -50.8,92.33 -95.11,185.46 -139.42,278.59 298.13,194.39 595.72,125.85 892.05,228.01 -46.51,217.72 -95.8,244.52 -288.13,365.46 -73.69,-41.93 -148.2,-77.37 -222.71,-112.84 -19.32,50.21 -32.15,101.2 -45,152.21 -65.53,-1.5 -125.38,4.27 -185.26,10.07 -81.98,-134.95 -135.68,-286.14 -294.34,-331.93 18.25,225.68 36.49,451.38 53.94,683.54 64.76,7.96 135.96,16.72 207.17,25.49 20.11,-56.68 40.26,-113.35 66.03,-162.76 45.32,5.57 89.81,17.61 140.83,30.46 20.32,48.51 40.64,97.01 67.45,146.31 25.79,-49.41 51.59,-98.81 77.37,-148.22 59.86,-5.78 126.2,-10.77 191.73,-9.28 155.9,282.05 2646.58,69.17 2935.43,71.84 26,55.77 51.2,118.01 76.4,180.27 600.61,139.58 1075.34,447.69 1714.37,381.69 -239.39,-351.45 -709.6,-429 -1114.29,-505.06 -4.18,-72.81 -8.37,-145.61 -6.9,-211.14 593.93,-379.07 4051.51,-1274.21 4380.22,-1255.49 9.75,27.49 25.21,62.24 40.64,97.01 209.73,-315.95 542.25,-721.95 963.06,-670.2 130.6,167.22 163.07,223.79 358.2,293.78 8.76,-71.21 23.99,-141.64 38.43,-205.58 34.75,-15.43 75.2,-23.6 115.63,-31.78 6.17,-156.97 11.53,-307.47 16.89,-457.96 338.52,-240.98 835.64,-61.53 1216.01,-1.61 -3.98,32.37 -1.48,65.53 1.02,98.7 103.58,12.74 213.65,26.27 323.7,39.81 -18.04,-120.51 58.53,-262.26 75.16,-450.79 -236.47,-107.95 -632.29,-202.63 -769.46,-423.23 -309.16,-51.17 -454.89,-95.38 -724.61,-253.41 -354.03,580.79 -605.99,812.69 -1304.2,825.41 -143.72,153.19 -800.73,525.87 -975.52,504.39 -10.45,31.55 -20.91,63.13 -24.89,95.49 -327.48,97.74 -327.48,97.74 -495.82,77.04 -372.32,729.7 -2394.36,231.3 -3136.65,442.32 -81.2,-141.43 -103.11,-176.97 -260.19,-235.72 5.57,-45.33 11.14,-90.63 16.72,-135.96 194.91,-35.19 415.83,-14.58 580.28,91.07 29.08,-22.7 58.16,-45.42 87.24,-68.12 -9.97,-132.67 -90.83,-116.35 -90.35,-280.57 340.51,-43.56 382.12,-275.03 413.86,-586.6 149.61,-40.76 265.94,-131.58 485.95,-157.11 25.19,62.26 56.88,125.3 87.77,194.81 40.43,-8.17 80.88,-16.34 126.99,-17.23 132.03,-325.52 363.78,-553.32 541.14,-873.25 33.16,-2.49 66.33,-4.99 98.69,-1.01 533.5,-650.74 1007.19,-868.5 1749.28,-1184.71 12.64,-156.18 24.47,-305.89 36.31,-455.57 -466.34,-162.51 -868.42,-152.82 -1349.01,-146.19 -68.93,-80.77 -68.93,-80.77 -119.63,-363.05 -301.21,-115.89 -331.02,-461.32 -676.86,-641.85 -2.5,-33.16 -4.98,-66.32 -1,-98.7 -281.1,-172.58 -937.27,-180.98 -1010,-551.38 26.69,-3.29 59.85,-5.79 92.23,-1.81 -7.38,-46.9 -14.76,-93.83 -16.45,-133.46 -36.45,-24.2 -73.7,-41.94 -110.96,-59.65 -91.48,-431.86 -246.06,-457.44 -396.38,-784.81 33.16,-2.49 66.32,-4.99 98.7,-1 -27.7,-95.42 -55.39,-190.83 -76.62,-285.46 -31.58,-10.46 -63.15,-20.9 -89.05,-24.09 39.12,-264.64 92.2,-428.99 -23.17,-666.62 -193.43,-30.36 -309.85,7.89 -492.82,-54.04 10.35,-84.16 20.7,-168.33 30.26,-246.01 98.69,-1.01 122.79,-90.06 239.22,-128.31 5.46,-97.9 10.93,-195.82 15.61,-287.24 -83.37,-16.83 -166.74,-33.65 -250.89,-44 7.96,-64.75 15.92,-129.49 23.89,-194.23 26.68,-3.29 59.85,-5.78 92.22,-1.8 3.98,-32.36 14.43,-63.95 24.09,-89.06 164.93,-58.56 313.26,71.39 461.45,148.77 4.78,-38.86 8.76,-71.22 12.74,-103.58 -382.59,-362.51 -230.74,-902.46 -319.14,-1412.8 -69.62,-21.71 -140.05,-36.94 -203.99,-51.38 -73.11,-153.58 -73.11,-153.58 -47.53,-308.16 68.72,-24.41 143.11,-41.54 217.52,-58.68 8.75,-71.22 17.51,-142.44 25.47,-207.17 -85.06,-56.47 -163.64,-112.14 -242.25,-167.81 47.56,-493.62 -0.76,-795.3 -41.36,-1266.91 -100.39,-38.64 -201.6,-70.79 -302.78,-102.95 -42.65,-294.43 -85.31,-588.83 -121.49,-882.45 -435.78,-250.75 -400.53,-1232.22 -881.12,-1652.79 36.78,-619.81 392.92,-950.61 193.57,-1520.61 -68.84,-28.18 -131.19,-55.56 -194.32,-76.47 -48.09,230.67 -90.5,468.62 -132.91,706.57 -32.37,-3.98 -65.54,-1.49 -98.7,1 -3.08,78.5 -6.16,156.98 -2.77,236.26 -157.77,0.3 -426.01,-223.27 -453.81,-371.26 -93.14,-44.32 -179.79,-87.85 -266.45,-131.36 -2.5,-33.16 -4.99,-66.33 -1.01,-98.7 -156.37,-117.82 -183.97,-160.64 -225.62,-356.35 -31.58,-10.45 -63.14,-20.91 -95.52,-24.89 -14.63,-41.24 -22.82,-81.67 -30.99,-122.1 -1106.31,-526.56 -2663.49,-196.95 -4023.49,-415.96 -24.2,36.46 -48.4,72.91 -66.91,116.66 -359.84,93.74 -560.83,338.48 -923.85,458.14 -17.13,-74.4 -28.62,-141.53 -40.07,-208.67 -71.21,-8.75 -142.42,-17.51 -213.65,-26.27 -33.85,61.56 -67.71,123.12 -95.89,191.94 -263.72,7 -263.72,7 -408.45,61.5 -6.37,51.78 -13.53,110.05 -14.24,169.13 -218.41,12.56 -179.68,-35.25 -336.85,-146.6 -60.45,117.44 -120.9,234.87 -181.34,352.31 -98.71,1 -198.2,8.49 -291.24,16.75 11.94,-97.1 23.09,-187.75 40.71,-277.58 -90.63,-11.14 -174.79,-21.49 -258.96,-31.84 -25.68,101.98 -51.37,203.99 -70.58,306.77 -446.71,-54.94 -776.1,-102.02 -994.26,442.91 -533.55,223.56 -1070.25,-328.78 -1443.62,-124.96 55.98,79.18 55.98,79.18 43.35,235.34 -237.05,3.74 -237.05,3.74 -340.75,-61.61 -11.46,-67.14 -22.92,-134.25 -35.17,-194.91 -51,-12.85 -101.99,-25.69 -147.32,-31.27 -12.25,-60.65 -24.51,-121.3 -30.29,-181.15 -754.71,-329.42 -730.83,-1752.6 -429.6,-2438.48 -358.68,-129.54 -560.18,-147.75 -785.28,-241.16 33.86,-61.55 67.71,-123.11 100.78,-178.19 -104.8,-216.62 -144.65,-320.1 -128.94,-554.77 -769.94,94.92 -288.99,-370.86 -804.14,-782.37 29.46,-239.54 94.78,-343.24 131.3,-693.64 -127.09,-35.34 -254.98,-64.22 -376.4,-92.29 -2.49,-33.16 -4.99,-66.32 -1.01,-98.7 -494,-187.92 -1004.09,-1783.7 -939.63,-2192.31 -126.19,10.77 -253.18,28.01 -373.69,46.04 -57.21,-283.05 -44.36,-334.04 91.87,-586.75 -49.4,-25.79 -93.13,-44.32 -136.86,-62.84 -10.46,31.58 -20.91,63.17 -24.89,95.53 -745.53,-190.28 -695.41,-1025.33 -585.7,-1596.75 -67.23,-41.12 -67.23,-41.12 -292.13,-29.35 -38.63,100.41 -77.27,200.8 -109.42,302.01 -25.91,-3.18 -51.81,-6.37 -77.71,-9.55 -35.16,-194.93 -12.29,-487.84 -205.02,-577.27 -29.17,-388.19 -207.25,-532.73 -115.93,-927.77 -269.73,-158.04 -292.86,-397.47 -626.32,-464.77 102.69,-266.89 475.65,-5.64 615.78,-358.02 -68.03,-34.66 -129.58,-68.51 -191.94,-95.9 -2.49,-33.16 -4.99,-66.34 -1.8,-92.24 -210.25,53.02 -210.25,53.02 -542.01,25.37 188.8,-252.82 121.43,-773.72 117.62,-1063.34 -86.66,-43.53 -166.83,-86.26 -247.82,-122.51 116.11,-196.02 284.13,-333.09 499.98,-431.39 8.74,-71.22 16.7,-135.97 24.66,-200.71 -85.87,-49.99 -172.52,-93.5 -259.18,-137.03 126.86,-497.01 599.74,-708.31 778.57,-1093.77 -31.57,-10.46 -63.15,-20.92 -95.51,-24.9 -13.36,-211.95 -13.36,-211.95 76.43,-621.51 359.96,-41.17 731.6,-284.64 1094.67,-404.29 87.03,-173.31 1382.78,-769.74 1360.87,-805.29 -458.87,-63.01 -458.87,-63.01 -999.3,-50.6 -3.98,32.36 -8.76,71.2 -13.54,110.05 32.36,3.98 63.94,14.44 95.51,24.89 -3.19,25.91 -6.37,51.8 -10.35,84.17 -152.08,7.58 -304.97,21.63 -451.38,36.49 -59.17,-53.27 -59.17,-53.27 -31.99,-220.81 175.7,67.6 339.63,-89.66 397.59,-240.27 488.31,-176.53 1284.06,-768.74 1764.85,-670.17 3.98,-32.37 14.44,-63.96 24.88,-95.52 223.1,-104.01 264.71,-335.5 396.95,-555.82 46.13,-0.9 98.72,-1.01 150.51,5.36 10.45,-31.57 20.91,-63.13 37.83,-93.92 60.67,-12.25 121.32,-24.5 181.15,-30.29 -3.16,25.9 -6.34,51.79 -10.33,84.16 -113.05,22.82 -138.59,38.93 -170.4,156.49 128.69,22.4 257.38,44.8 385.26,73.66 29.88,-29.18 -36.18,-293.61 -12.19,-435.24 731.56,89.96 437.4,-563.98 1409.61,-293.26 13.54,-110.07 27.07,-220.12 39.81,-323.71 -119.71,11.56 -119.71,11.56 -798.79,-131.09 -24.43,-68.72 -48.84,-137.45 -67.56,-198.9 -22.61,23.5 -45.21,47.01 -68.61,76.99 -323.02,-98.87 -646.03,-197.74 -963.37,-289.34 84.5,-153.66 271.15,-145.89 435.74,-176.43 -3.98,32.37 -1.49,65.54 1,98.7 32.37,3.98 71.23,8.76 110.07,13.53 288.49,-582.28 962.97,-722.79 1569.72,-740.16 40.64,-122.75 107.36,-114.05 233.56,-135.59 28.18,-68.83 62.03,-130.39 95.89,-191.96 1231.84,-183.67 2895.69,-780.83 4115.53,-492.79 -264.08,651 -2439.33,810.66 -3095.5,802.27 -41.92,73.71 -77.37,148.21 -113.61,229.2 190.24,56.25 380.48,112.51 576.42,176.03 98.96,-270.43 1474.91,-396.95 1784.99,-299.67 12.25,60.65 23.71,127.78 35.17,194.92 93.03,-8.28 186.05,-16.55 278.27,-18.35 62.75,-189.45 307.86,-205.32 458.03,-357.71 56.68,20.11 113.35,40.23 169.23,66.82 -3.18,25.87 -0.69,59.08 1.8,92.23 79.29,-3.41 158.57,-6.79 237.05,-3.72 17.73,-37.25 35.46,-74.5 59.66,-110.94 543.02,73.34 1457.57,225.24 1934.54,34.17 929.17,501.3 2192.17,159.66 2884,-151.38 -182.27,-120.99 -241.34,-121.68 -456.58,-135.01 6.37,-51.79 18.42,-96.32 30.47,-140.84 67.14,-11.46 139.94,-15.65 212.73,-19.84 28.98,-75.31 57.96,-150.6 86.15,-219.43 7874.61,393.21 8646.34,6864.18 10472.4,7669.32 -84.12,416.83 365.54,1142.48 465.99,1608.3 32.36,3.98 63.93,14.43 95.51,24.9 1135.04,2418.33 711.51,6921.52 1546.12,9765.55 28.3,-16.24 63.06,-31.67 97.01,-40.64 28.77,-180.48 63.22,-353.7 97.67,-526.9 58.26,7.16 123.01,15.12 187.75,23.08 14.96,199.01 29.9,398 51.35,597.8 304.38,90.01 319.33,289.01 683.59,373.23 118.87,-432.26 118.87,-432.26 156.19,-789.13 -103.68,-65.34 -207.38,-130.66 -311.86,-189.52 83.81,-574.6 83.81,-574.6 135.39,-673.41 114.94,27.29 236.35,55.37 356.98,89.91 271.14,-761.86 1754.25,-3149.13 95.39,-3287.42 49.62,130.97 49.62,130.97 27.44,364.84 37.25,17.72 74.5,35.45 110.95,59.65 -127.32,661.25 -850.19,874.67 -1134.49,1529.76 -164.18,-375.07 -141.35,-1095.18 -88.8,-1522.47 99.51,-7.48 199,-14.96 304.98,-21.66 28.87,-127.88 64.22,-254.98 98.77,-375.59 -174.6,83.68 -342.7,168.16 -510.83,252.63 -556,-2244.45 -145.38,-4983.71 -348.6,-7265.5 -206.91,-2323.38 -7497.05,-7581.02 -9706.35,-8554.34 -2770.65,-1220.62 -6223.52,-686.8 -8991.28,-1703.81 -5442.89,-1999.98 -17609.7,8010.11 -17756.93,13621.93 -88.42,3370.71 2329.51,9479.27 1820.4,12612.11 -6471.17,-105.34 5687.42,11467.62 7290.88,9972.57 356.47,-332.37 224.64,-530.76 534.71,-446.85 1478.22,3530.06 5070.2,9208.7 4309.96,13049.71 -13646.9,6457.52 -20199.81,3067.25 -24206.16,24337.98l34002.7 5907.61 37609.46 -5996.2zm-39903.08 -1403.56l-1392.49 25.44 957.9 -13777.45 434.59 13752.01zm37.15 -16128.6c-231.68,-146.79 -519.66,-530.53 -764.4,-731.49 -990.18,463.13 -4803.77,-2621.53 -5130.84,-3542.39 -647.41,-79.62 -1232.55,-3016.98 -1160.1,-3606.13 980.42,4603.38 2731.38,4528.37 6278.06,6772.33 21.81,-17.03 43.62,-34.07 71.9,-50.3 -191.56,-312.74 -191.56,-312.74 -160.88,-348.4 112.44,-5.88 224.88,-11.77 343.82,-16.85 -9.55,77.67 -19.11,155.36 -22.98,240.33 746.79,19.54 1307.61,-318.95 2003.11,-470.02 3.98,-32.37 14.44,-63.93 24.08,-89.04 1211.12,-442.54 4091.64,-1527.54 4212.41,-3043.98 99.51,-7.48 199,-14.96 298.51,-22.44 178.37,-221.22 155.81,-572.32 276.6,-859.77 129.49,15.93 258.96,31.85 387.65,54.25 7.06,-110.87 13.32,-215.24 19.58,-319.63 67.94,-17.93 135.86,-35.87 203.78,-53.8 23.3,-82.58 52.29,-157.87 81.27,-233.16 104.37,6.24 208.76,12.51 312.34,25.25 26.58,-55.87 53.17,-111.75 85.44,-160.36 -42.14,-31.46 -84.27,-62.95 -126.39,-94.42 253.24,-402.6 461,-488.77 881.4,-647.37 22.5,-76.11 51.47,-151.4 80.45,-226.7 148.01,-27.81 179.58,-17.36 215.44,118.5 60.65,-12.25 120.51,-18.05 180.38,-23.82 -10.77,-126.18 -21.54,-252.38 -32.32,-378.58 119.73,-11.56 245.93,-22.33 371.32,-26.62 29.77,-81.79 58.74,-157.08 87.72,-232.39 -59.06,-0.68 -111.65,-0.57 -164.23,-0.46 -15.44,-34.78 -24.42,-68.75 -34.19,-96.23 368.03,-53.31 1614.96,-787.2 1712.45,-992.09 1133.92,-189.13 1811.18,-2596.64 2850.45,-3191.75 605.81,1477.13 -1746.52,4352.23 -2513.61,5369.1 -32.33,-3.98 -65.52,-1.48 -98.7,1 -179.15,227.71 -358.31,455.41 -538.27,689.58 -220.12,-27.07 -653.53,504.55 -746.93,729.64 -32.37,-3.98 -65.54,-1.48 -92.22,1.81 -9.66,25.09 -20.12,56.67 -24.1,89.05 -32.38,-3.98 -65.54,-1.5 -98.71,1 -1590.98,1447.33 -3658.81,3138.35 -5723.87,3791.33 -9.66,25.09 -20.11,56.67 -24.09,89.03 -1047.56,502.09 -2393.18,1236.98 -3521.33,1485.99zm9796.42 -7996.05c1.49,-65.53 2.18,-124.61 2.87,-183.66 240.72,-193.85 240.72,-193.85 297.39,-173.73 -218.59,334.57 -218.59,334.57 -300.26,357.39zm-5378.62 -1206.95c-12.25,-60.65 -25.31,-114.82 -38.36,-169 76.89,16.03 152.98,38.52 235.55,61.82 -3.18,25.9 -7.16,58.26 -11.14,90.64 -66.34,4.97 -126.2,10.76 -186.05,16.54zm2985.03 202.82c52.27,-157.88 127.17,-339.26 334.33,-313.78 21.13,42.02 -75.89,82.67 -120.69,340.05 -71.2,-8.76 -142.42,-17.51 -213.64,-26.27zm-3663.65 -509.71c-85.05,-56.47 -170.12,-112.93 -248.72,-168.6 200.7,24.68 345.53,22.77 508.39,141.37 -86.56,9.08 -173.12,18.15 -259.67,27.23zm-880.2 -377.7c20.91,-63.15 41.03,-119.84 61.14,-176.51 109.27,20.01 218.52,40.02 334.27,60.83 -17.72,37.24 -35.45,74.51 -47.5,119.03 -118.13,-1.39 -236.25,-2.77 -347.91,-3.35zm-465.64 -221.58c-9.87,-80.06 -20.53,-153.68 -31.21,-227.28 223.43,53.76 223.43,53.76 291.55,141.01 -88.95,28.5 -177.88,56.99 -260.34,86.27zm7051.26 538.56c109.4,-182.26 201.75,-492.94 442.35,-497.63 -3.98,32.39 -8.76,71.21 -13.53,110.06 -235.35,43.35 -101.46,237.26 -105.13,427.39 -110.06,-13.53 -220.12,-27.07 -323.69,-39.82zm629.04 -198.66c-4.99,-66.32 -4.3,-125.38 -3.61,-184.46 51.81,6.37 102.8,19.22 160.27,32.86 0.1,52.59 -0.59,111.65 5.2,171.51 -58.27,-7.17 -110.06,-13.54 -161.86,-19.91zm713.5 -457.72c20.89,-63.16 41.03,-119.82 61.14,-176.49 46.11,-0.91 91.42,4.67 143.21,11.04 -13.64,57.46 -28.07,121.4 -42.51,185.36 -58.26,-7.17 -110.05,-13.54 -161.84,-19.91zm-10026.23 -1785.08c3.08,-78.48 6.16,-156.97 9.22,-235.46 107.68,32.96 221.04,73.18 334.38,113.41 -17.73,37.25 -36.25,80.99 -48.3,125.51 -97.93,-5.47 -196.61,-4.46 -295.3,-3.46zm4022.33 -162.53c-238.56,-357.95 -635.39,-551.32 -1036.88,-653.29 35.03,-284.85 134.31,-397.5 107.8,-716.22 67.91,-17.94 135.83,-35.87 209.44,-46.54 -12.26,-60.66 -18.05,-120.51 -23.83,-180.37 -154.57,-25.58 -302.69,-50.37 -450.79,-75.16 12.74,-103.58 24.68,-200.69 43.1,-297.01 1320.96,-469.18 4826.79,1187.45 5841.1,-576.34 68.85,28.17 137.64,56.35 212.95,85.33 14.65,41.23 28.5,88.95 42.34,136.65 141.64,23.99 282.47,54.45 423.32,84.91 -110.3,683.09 -304.63,606.6 -504.28,1107.81 -763.59,14.94 -3490.47,945.68 -4509.94,707.2 -22.38,128.68 -22.38,128.68 27.24,259.65 -123.51,149.11 -189.04,147.62 -381.57,163.38zm-5112.79 -3421.87c-12.27,-60.67 -25.35,-114.85 -31.91,-168.23 108.38,-26.1 222.41,-44.94 336.45,-63.78 -3.18,25.91 -0.69,59.07 1.81,92.23 45.31,5.57 96.3,18.42 147.31,31.26 -17.72,37.25 -36.25,80.98 -54.78,124.71 -136.75,-10.24 -267.83,-13.22 -398.88,-16.19zm14294.78 1757.98c26.65,-430.49 26.65,-430.49 85.62,-482.39 51.1,65.44 51.1,65.44 24.44,495.92 -38.84,-4.77 -77.69,-9.55 -110.06,-13.53zm-13535.12 -2591.22c-22.01,-88.14 -22.01,-88.14 69.21,-188.65 63.94,14.44 127.89,28.87 198.31,44.1 -20.12,56.69 -40.23,113.36 -53.87,170.83 -71.23,-8.76 -142.44,-17.52 -213.65,-26.28zm655.33 -412.31c-2.6,-85.74 0.47,-164.24 3.55,-242.72 57.49,13.62 121.42,28.07 185.36,42.51 -8.75,71.21 -17.51,142.44 -27.07,220.11 -58.26,-7.16 -110.05,-13.53 -161.84,-19.9zm-502.46 -830.72c1.49,-65.53 2.18,-124.59 2.88,-183.66 45.31,5.57 97.1,11.94 148.89,18.31 -5.58,45.33 -11.95,97.15 -18.32,148.91 -46.11,0.9 -93.01,8.27 -133.45,16.44zm9388.98 714.34c108.15,-131.27 113.04,-117.53 285.35,-129.22 -6.38,51.81 -12.75,103.6 -19.91,161.86 -90.63,-11.14 -181.27,-22.29 -265.44,-32.64zm-11555.39 -1802.26c-96.73,-228.79 -501.21,-199.65 -707.59,-231.6 3.98,-32.37 7.96,-64.75 11.94,-97.11 343.93,35.72 512.15,3.84 699.11,33.4 36.76,181.96 36.76,181.96 -3.46,295.31zm-2471.75 -849.46c-36.47,-24.19 -66.45,-47.59 -96.43,-71 12.04,-44.53 30.57,-88.25 48.29,-125.5 90.64,11.14 90.64,11.14 209.07,170.3 -53.38,6.58 -106.76,13.16 -160.93,26.2zm2229.22 -277.89c-16.24,-28.29 -26.8,-49.3 -37.35,-70.31 148.68,-86.88 274.19,-38.57 448.19,-10.6 1.69,39.63 9.07,86.55 16.44,133.47 -142.43,-17.53 -284.85,-35.05 -427.28,-52.56zm16898.71 1532.73c30.85,-357.66 30.85,-357.66 66.51,-327 -26.49,108.48 -46.5,217.74 -66.51,327zm-20263.53 -2708.88c5.47,-97.92 10.94,-195.82 16.41,-293.74 64.75,7.97 129.49,15.93 200.7,24.68 -7.96,64.74 -15.93,129.49 -24.68,200.7 -67.93,17.94 -130.17,43.14 -192.43,68.36zm18070.85 1834.61c-130.59,-167.23 -193.05,-247.2 -233.9,-449.38 -162.38,-74.89 -847.58,-1596.08 -1101.14,-1627.27 -191.88,-470.49 -1512.65,-2289.06 -1683.46,-2342.93 -51.52,-275.8 -51.52,-275.8 -21.95,-462.79 79.27,-3.35 158.56,-6.75 243.51,-2.86 -3.18,25.87 -0.69,59.06 1.8,92.23 402.3,95.48 590.95,164.68 639.49,571.54 527.1,202.84 741.28,492.05 846.79,1076.8 119.84,41.02 239.66,82.05 365.16,130.34 -51.47,151.4 -51.47,151.4 -25.26,312.34 62.35,27.39 124.7,54.78 192.73,89.43 -3.95,32.38 -8.75,71.21 -13.53,110.06 -198.1,61.07 -198.1,61.07 -176.99,103.11 76.9,16.03 152.96,38.51 235.56,61.82 7.01,263.75 26.74,423.9 128.35,666.41 25.9,3.19 57.48,13.64 89.05,24.1 25.2,62.24 56.88,125.29 87.76,194.81 70.43,15.23 140.05,36.94 209.67,58.64 29.82,345.41 181.53,554.67 232.37,889.51 32.35,3.97 63.92,14.43 95.5,24.89 36.4,398.79 36.4,398.79 1.74,466.83 -39.63,1.7 -79.29,3.4 -113.25,12.37zm-10236.91 -3171.4c13.54,-110.06 27.07,-220.11 39.81,-323.71 143.91,-48.02 143.91,-48.02 181.75,-141.95 272.82,79.56 230.1,159.75 184.51,423.58 -139.14,9.18 -272.62,25.62 -406.07,42.08zm-8821.88 -3989.75c-54.29,-39.52 -108.57,-79.06 -162.85,-118.61 1.49,-65.54 9.45,-130.28 17.41,-195.02 45.3,5.57 97.1,11.94 148.89,18.31 43.16,130.18 43.16,130.18 -3.45,295.32zm-381.11 -428.04c22.49,-76.1 45.01,-152.2 67.51,-228.3 71.21,8.76 148.1,24.79 225.01,40.82 -20.12,56.67 -40.24,113.36 -60.35,170.02 -79.29,3.4 -158.56,6.79 -232.17,17.46zm-587.7 -565.18c-79.9,-312.14 -159.29,-361.33 -150.36,-754.55 330.66,-123.65 622.43,-679.24 964.18,-518.92 -2.03,604.38 -279.42,668.85 -787.47,685.23 82.99,233.65 95.35,346.89 77.24,600.98 -38.84,-4.78 -71.22,-8.76 -103.59,-12.74zm3116.46 -438.24c-27.6,-42.82 -48.71,-84.86 -69.84,-126.88 72.02,2.28 144.03,4.56 215.23,13.32 -3.18,25.89 -7.17,58.26 -11.15,90.65 -46.9,7.36 -93.81,14.74 -134.24,22.91zm-1424.29 -2205.91c91.91,-159.57 221.08,-301.41 442.1,-228.22 -124.88,267.23 -166.22,229.3 -442.1,228.22zm525.35 -263.99c-9.76,-27.49 -19.52,-54.98 -22.8,-81.68 1363.69,-1416.13 3752.58,-1549.52 5543.84,-1151.79 9.06,86.55 18.14,173.09 33.68,260.45 312.44,77.85 312.44,77.85 427.5,157.72 -7.96,64.75 -15.92,129.48 -24.68,200.7 -249.69,159.88 -1038.66,-318.33 -1288.07,-427.86 -1616.38,-444.03 -3158.05,877.48 -4669.47,1042.46zm7283.36 895.71c-68.83,-28.19 -137.64,-56.36 -207.27,-78.07 7.4,-327.69 7.4,-327.69 53.34,-433.76 237.15,48.87 242.13,115.22 382.49,309.91 -79.97,62.47 -154.26,132.18 -228.56,201.92zm-4732.78 -687.19c11.14,-90.61 22.29,-181.28 33.44,-271.91 271.92,33.46 280.79,14.82 250.53,260.83 -98.7,1 -190.93,2.8 -283.97,11.08zm-2878.44 -1122.92c3.87,-84.96 6.95,-163.44 10.03,-241.94 45.32,5.58 97.11,11.95 148.91,18.32 -7.96,64.75 -16.72,135.96 -25.48,207.17 -46.13,0.9 -93.03,8.28 -133.46,16.45zm12385.69 -941.3c73.4,-115.84 146.79,-231.68 220.17,-347.53 -11.13,90.63 -22.28,181.28 -27.73,279.18 -67.94,17.93 -130.18,43.14 -192.44,68.35zm2447.7 136.71c-313.57,-229.15 -549.55,-501.33 -803.35,-788.85 85.02,-370.72 209.99,-585.38 -204.46,-688.92 -23.4,29.99 -47.59,66.44 -65.32,103.69 -84.15,-10.35 -168.32,-20.72 -252.49,-31.06 6.37,-51.78 12.74,-103.57 18.31,-148.9 162.45,-91.73 278.87,-130 320.59,-308.88 -309.05,1.43 -825.35,351.98 -946.14,639.41 -278.98,77.43 -432.56,150.54 -719.11,75.87 143.88,-475.2 1796.98,-1198.56 2242.58,-1294.91 -2.49,-33.17 1.49,-65.55 5.47,-97.91 -83.38,-16.83 -166.73,-33.65 -250.91,-44 -12.04,44.52 -24.89,95.53 -31.26,147.32 -887.12,212.91 -2717.71,776.43 -3186.95,1599.37 -32.37,-3.98 -64.74,-7.96 -97.11,-11.94 16.62,-188.54 81.94,-292.22 229.34,-1437.36 135.86,-35.86 271.7,-71.73 407.56,-107.59 205.68,-432.34 967.3,-463.98 1179.97,-1044.43 262.14,5.96 523.48,18.38 791.33,31.6 10.44,-31.58 20.9,-63.15 37.8,-93.93 100.42,38.63 200.04,83.75 299.63,128.87 7.54,-192.04 22.77,-232.78 179.75,-339.36 9.77,27.49 25.2,62.24 40.65,96.99 193.42,30.36 386.05,67.2 578.69,104.03 39.53,-54.28 79.06,-108.56 117.8,-156.37 -31.57,-10.46 -63.14,-20.91 -95.51,-24.89 -2.49,-33.18 -4.99,-66.34 -1.01,-98.72 -31.57,-10.44 -63.14,-20.9 -95.52,-24.88 11.15,-90.64 22.3,-181.28 33.44,-271.91 105.98,-6.69 218.42,-12.57 330.08,-12 25.2,62.26 50.41,124.51 82.08,187.55 -34.75,15.43 -69.51,30.88 -98.59,53.58 161.16,78.99 160.36,85.48 191.45,260.15 214.55,72.4 292.25,81.95 391.31,-135.89 330.18,40.61 904.68,71.83 1102.35,-199.61 -136.84,-62.83 -136.84,-62.83 -815.82,-152.88 -7.38,-46.93 -15.55,-87.37 -17.25,-127.01 436.75,-77.73 929.57,-23.69 1366.62,56.35 -3.98,32.36 -1.49,65.53 1.01,98.69 25.9,3.19 57.48,13.64 89.04,24.1 -3.18,25.91 -0.69,59.07 1.8,92.24 125.51,48.29 251.01,96.57 375.71,151.36 -6.26,104.37 -6.05,209.55 -5.84,314.73 109.37,72.59 109.37,72.59 692.82,137.77 -1.69,-39.63 2.29,-72.01 6.27,-104.37 -154.58,-25.58 -302.69,-50.37 -450.79,-75.16 14.32,-116.54 28.66,-233.07 49.46,-348.8 54.18,-13.06 108.37,-26.11 161.75,-32.68 -17.93,-67.94 -35.86,-135.87 -53.79,-203.78 263.73,-7.01 263.73,-7.01 907.95,98.52 6.37,-51.81 19.22,-102.8 31.26,-147.32 32.38,3.98 64.74,7.95 103.58,12.74 64.69,382.56 384.89,290.49 313.02,767.98 -76.89,-16.02 -154.57,-25.58 -225.79,-34.34 -136.23,252.71 -166,334.48 59.31,533.08 -18.2,201.48 -36.41,402.98 -48.15,605.25 -68.82,-28.17 -137.66,-56.36 -207.27,-78.07 -2.49,-33.16 -4.99,-66.33 -1.01,-98.69 -342.02,109.09 -656.64,155.83 -1023.08,196.2 -40.32,60.77 -74.98,128.8 -109.63,196.82 -103.58,-12.74 -207.97,-19 -312.36,-25.26 0.9,46.12 1.01,98.7 1.11,151.29 377.62,296.15 636.8,433.2 704.92,520.44 -367.11,99.44 -367.11,99.44 -668.09,88.68 -37.85,93.96 -69.22,188.68 -100.57,283.41 -103.6,-12.74 -207.18,-25.48 -310.77,-38.22 -23.61,-75.2 -47.22,-150.4 -70.83,-225.58 -156.18,-12.64 -156.18,-12.64 -325.09,78.31 -181.7,-232.65 -210.19,-321.59 -510.4,-338.79 -406.77,902.9 73.57,1592.89 -1341.55,1556.87zm-2931.7 -636.55c4.78,-38.86 8.76,-71.22 12.74,-103.6 108.36,-26.1 223.2,-51.41 337.23,-70.24 -8.75,71.21 -17.51,142.42 -26.27,213.65 -110.05,-13.54 -220.11,-27.07 -323.7,-39.81zm861.05 105.92c-36.44,-24.22 -72.9,-48.44 -103.69,-65.38 39.34,-174.26 83.32,-195.04 242.2,-259.37 12.74,-103.57 31.95,-206.38 51.17,-309.16 151.19,-53.7 302.38,-107.4 453.56,-161.11 -74.88,181.38 -176.24,471.23 -378.43,512.09 -59.54,163.55 -122.58,195.23 -264.81,282.93zm4124.39 290.31c21.07,-385.16 21.07,-385.16 101.63,-559.27 76.89,16.03 153.79,32.06 236.36,55.35 -37.52,251.69 -44.37,467.73 -337.99,503.92zm3968.99 271.26c7.17,-58.31 13.53,-110.1 19.9,-161.88 -38.85,-4.78 -77.69,-9.56 -110.06,-13.54 35.24,-179.68 76.95,-358.58 118.67,-537.46 53.37,-6.58 113.25,-12.36 172.31,-11.67 -36.73,245.22 -66.99,491.23 -97.24,737.25 -38.84,-4.77 -71.21,-8.75 -103.58,-12.7zm-4057.6 -886.79c-81.09,-88.84 -155.7,-176.87 -231.1,-258.43 215.24,13.32 215.24,13.32 331.08,86.71 -0.7,59.07 5.09,118.92 10.07,185.26 -38.84,-4.78 -77.68,-9.56 -110.05,-13.54zm-1929.48 -342.44c5.45,-97.91 10.92,-195.82 16.39,-293.73 207.17,25.48 212.95,85.34 169.65,277.17 -66.33,4.99 -126.19,10.78 -186.04,16.56zm-229 -1237.42c140.41,-179.87 469.8,-132.79 673.67,-134.02 -17.72,37.26 -36.24,80.99 -48.29,125.5 -210.35,0.41 -420.7,0.84 -625.38,8.52zm-21578.58 -4894.78c-3.49,-131.88 -6.99,-263.74 -4.8,-388.35 92.23,-1.8 159.25,-65.85 194.9,-35.17 -20.81,115.73 -35.14,232.27 -49.47,348.79 -48.5,20.34 -97.79,47.14 -140.63,74.73zm-2635.36 -6626.66c-15.64,-139.94 -15.64,-139.94 97.98,-369.13 32.37,3.98 71.23,8.76 110.06,13.54 -97.6,152.29 -97.6,152.29 -118.3,320.63 -33.96,8.97 -61.45,18.72 -89.74,34.96zm1252.4 -831.79c-28.39,-36.34 -56.77,-72.69 -78.69,-108.24 160.75,-131.4 160.75,-131.4 283.64,-168.85 36.45,24.2 72.92,48.39 115.05,79.86 -0.69,59.06 5.09,118.93 10.08,185.26 -111.66,-0.59 -224.1,5.3 -330.08,11.97zm5737.37 -4328.57c-112.55,-46.7 -225.11,-93.4 -331.19,-139.31 -7.38,-46.9 -15.55,-87.34 -23.73,-127.79 182.09,15.82 370.63,32.44 558.38,55.53 5.78,59.85 11.56,119.73 17.34,179.58 -73.6,10.66 -147.21,21.33 -220.8,31.99zm680.84 -192.29c36.24,-80.97 71.71,-155.48 113.63,-229.19 254.08,18.11 508.16,36.21 762.23,54.32 -158.23,164.55 -649.37,150.15 -875.86,174.87zm720.65 -516c-7.37,-46.91 -8.27,-93.02 -9.96,-132.65 140.74,-22.14 281.47,-44.26 422.19,-66.39 -3.98,32.37 -1.48,65.53 0.21,105.17 -189.13,95.05 -189.13,95.05 -412.44,93.87zm8483.87 4.97c4.78,-38.84 9.55,-77.68 13.53,-110.05 144.81,-1.9 289.63,-3.82 440.14,1.54 -6.37,51.8 -12.74,103.59 -19.91,161.85 -148.91,-18.31 -291.34,-35.83 -433.76,-53.34zm-683.12 -537.48c209.35,-99.13 209.35,-99.13 432.66,-97.94 -17.73,37.25 -36.25,80.98 -48.3,125.5 -119.72,11.53 -240.23,29.6 -354.28,48.43 -9.75,-27.48 -19.52,-54.97 -30.08,-75.99zm1376.71 241.6c-59.98,-46.8 -119.95,-93.6 -174.23,-133.14 10.46,-31.57 20.12,-56.67 29.78,-81.79 122.98,15.13 122.98,15.13 301.19,115.92 -56.56,32.48 -106.65,65.74 -156.74,99.01zm-4608.39 -790.19c-12.26,-60.65 -25.32,-114.82 -38.36,-169.01 90.64,11.15 181.27,22.29 271.9,33.44 -3.98,32.37 -8.76,71.21 -13.54,110.06 -72.79,4.18 -146.39,14.85 -220,25.51zm922.97 -1306.03c-27.59,-42.84 -49.54,-78.39 -71.41,-113.95 342.21,-3.91 980.75,94.33 1109.41,-310.46 244.42,43.21 316.41,45.49 449.54,245.88 -75.11,76.19 -144.54,159.67 -213.95,243.14 -424,-25.86 -848.79,-45.24 -1273.59,-64.61zm1566.74 192.68c-9.87,-80.09 -20.55,-153.69 -24.74,-226.5 152.89,-14.07 152.89,-14.07 265.45,32.65 -28.18,68.82 -56.37,137.64 -78.87,213.75 -58.27,-7.17 -110.05,-13.54 -161.84,-19.9z"/>
   </g>
  </g>
  <path class="fil1" d="M39677.7 0c21913.39,0 39677.7,17764.31 39677.7,39677.7 0,21913.39 -17764.31,39677.7 -39677.7,39677.7 -21913.39,0 -39677.7,-17764.31 -39677.7,-39677.7 0,-21913.39 17764.31,-39677.7 39677.7,-39677.7z"/>
 </g>
</svg>
